<?xml version="1.0" encoding="utf-8"?>
<!-- Generator: Adobe Illustrator 22.0.1, SVG Export Plug-In . SVG Version: 6.00 Build 0)  -->
<svg version="1.1" id="Layer_1" xmlns="http://www.w3.org/2000/svg" xmlns:xlink="http://www.w3.org/1999/xlink" x="0px" y="0px"
	 viewBox="0 0 108.8 2359.2" style="enable-background:new 0 0 108.8 2359.2;" xml:space="preserve">
<style type="text/css">
	.st0{clip-path:url(#SVGID_2_);}
	.st1{fill:#00B964;}
	.st2{fill:#78DDA3;}
	.st3{fill:#FFFFFF;}
	.st4{clip-path:url(#SVGID_4_);}
	.st5{clip-path:url(#SVGID_6_);}
	.st6{fill:none;}
	.st7{clip-path:url(#SVGID_8_);}
	.st8{clip-path:url(#SVGID_10_);}
	.st9{clip-path:url(#SVGID_12_);}
	.st10{clip-path:url(#SVGID_14_);}
	.st11{fill:none;stroke:#78DDA3;stroke-width:1.875;stroke-linecap:round;stroke-linejoin:round;}
	.st12{clip-path:url(#SVGID_16_);}
	.st13{clip-path:url(#SVGID_18_);}
	.st14{clip-path:url(#SVGID_20_);}
	.st15{clip-path:url(#SVGID_22_);}
	.st16{clip-path:url(#SVGID_24_);}
	.st17{clip-path:url(#SVGID_26_);}
	.st18{clip-path:url(#SVGID_28_);}
	.st19{clip-path:url(#SVGID_30_);}
	.st20{clip-path:url(#SVGID_32_);}
	.st21{clip-path:url(#SVGID_34_);}
	.st22{clip-path:url(#SVGID_36_);}
	.st23{clip-path:url(#SVGID_38_);}
</style>
<title>sprite_categories</title>
<g>
	<defs>
		<circle id="SVGID_1_" cx="51.4" cy="1109.6" r="45"/>
	</defs>
	<clipPath id="SVGID_2_">
		<use xlink:href="#SVGID_1_"  style="overflow:visible;"/>
	</clipPath>
	<g class="st0">
		<circle class="st1" cx="51.4" cy="1109.6" r="45"/>
		<path class="st2" d="M102,1121.9H72.2c-0.5,0-1-0.4-1-0.9c0,0,0,0,0,0l0,0c0-5.5,3.2-7.5,5.8-7.5c1,0,1.9,0.2,2.8,0.7
			c2.8-3.6,8-4.2,11.6-1.4c0,0,0,0,0,0c0.4,0.3,0.7,0.6,1,0.9c0.8-0.2,1.5-0.3,2.3-0.2c5,0,8.2,2.9,8.2,7.5
			C103,1121.5,102.5,1121.9,102,1121.9C102,1121.9,102,1121.9,102,1121.9L102,1121.9z M73.2,1120H101c-0.5-3.3-3.4-4.6-6.2-4.6
			c-0.8,0-1.6,0.1-2.4,0.3c-0.4,0.1-0.8,0-1-0.3c-2.2-2.7-6.2-3.2-9-1c-0.6,0.5-1,1-1.4,1.6c-0.1,0.2-0.4,0.4-0.6,0.4
			c-0.3,0-0.5,0-0.8-0.2c-0.7-0.5-1.6-0.8-2.4-0.8C75,1115.4,73.5,1117.2,73.2,1120L73.2,1120z"/>
		<path class="st3" d="M53.1,1125.8l10.3,7.1c1.3,1,3.2,0.6,4.1-0.7c0.6-0.8,0.7-1.8,0.4-2.7l-3.7-11.8c-0.4-1.2,0-2.5,1-3.2
			l9.9-7.5c1.3-1,1.5-2.9,0.4-4.2c-0.5-0.6-1.3-1-2.1-1.1l-12.4-0.2c-1.3,0-2.3-0.9-2.7-2.1l-4.1-11.7c-0.5-1.5-2.2-2.4-3.7-1.8
			c-0.9,0.3-1.5,1-1.8,1.8l-4.1,11.7c-0.4,1.2-1.5,2-2.7,2l-12.4,0.2c-1.6,0.1-2.9,1.5-2.8,3.1c0,0.9,0.5,1.7,1.2,2.2l9.9,7.5
			c1,0.7,1.4,2,1,3.2l-3.6,11.9c-0.5,1.5,0.3,3.2,1.9,3.7c0.9,0.3,1.9,0.1,2.6-0.4l10.2-7.1C50.7,1125.1,52.1,1125.1,53.1,1125.8z"
			/>
		<path class="st2" d="M51.4,1139.5c-0.5,0-0.9-0.5-0.9-1v-6.3c0-0.5,0.4-0.9,0.9-0.9s0.9,0.4,0.9,0.9v6.3
			C52.3,1139,51.9,1139.5,51.4,1139.5z"/>
		<path class="st2" d="M28.8,1149.6h-0.3c-0.5-0.2-0.7-0.7-0.6-1.2l1.3-4.2c0.2-0.5,0.7-0.8,1.2-0.6c0.5,0.1,0.8,0.6,0.6,1.1
			c0,0,0,0,0,0l0,0l-1.3,4.2C29.6,1149.3,29.2,1149.6,28.8,1149.6z"/>
		<path class="st2" d="M40,1154.1h-0.2c-0.5,0-0.9-0.5-0.8-1l0,0l1.7-16c0.1-0.5,0.5-0.8,1-0.8c0.5,0.1,0.9,0.5,0.8,1l0,0l-1.7,16
			C40.7,1153.7,40.4,1154,40,1154.1z"/>
		<path class="st2" d="M78,1086.5h-2.5v-2.5c-0.1-0.5-0.5-0.9-1-0.8c-0.4,0-0.8,0.4-0.8,0.8l0,0v2.5h-2.5c-0.5,0-0.9,0.4-0.9,0.9
			l0,0c0,0.5,0.4,1,0.9,1h2.5v2.5c0.1,0.5,0.5,0.9,1,0.8c0.4,0,0.8-0.4,0.8-0.8l0,0v-2.5H78c0.5,0,0.9-0.5,0.9-1
			C78.9,1086.9,78.5,1086.5,78,1086.5z"/>
		<path class="st2" d="M23.5,1124.9l1.8-1.8c0.4-0.4,0.4-1,0-1.3s-1-0.4-1.3,0l-1.8,1.8l-1.8-1.8c-0.4-0.3-1-0.3-1.3,0
			c-0.3,0.4-0.3,1,0,1.3l1.8,1.8l-1.8,1.8c-0.3,0.4-0.3,1,0,1.3c0.2,0.2,0.4,0.3,0.7,0.3c0.2,0,0.5-0.1,0.7-0.3l1.8-1.8l1.8,1.8
			c0.4,0.4,1,0.4,1.3,0c0.3-0.4,0.3-1,0-1.3L23.5,1124.9z"/>
		<circle class="st2" cx="60.4" cy="1077.2" r="1.4"/>
		<circle class="st2" cx="15.1" cy="1109.1" r="1.4"/>
		<circle class="st2" cx="81.9" cy="1132.4" r="1.4"/>
		<circle class="st2" cx="84.7" cy="1097.4" r="1.4"/>
		<path class="st2" d="M39.2,1081.6c-2,0-3.7-1.6-3.7-3.7c0-2,1.6-3.7,3.7-3.7c2,0,3.7,1.6,3.7,3.7c0,0,0,0,0,0
			C42.8,1080,41.2,1081.6,39.2,1081.6z M39.2,1076.1c-1,0-1.8,0.8-1.8,1.8c0,1,0.8,1.8,1.8,1.8c1,0,1.8-0.8,1.8-1.8
			C41,1077,40.2,1076.2,39.2,1076.1C39.2,1076.2,39.2,1076.2,39.2,1076.1L39.2,1076.1z"/>
		<path class="st2" d="M62.8,1154.1c-0.5,0-0.9-0.4-0.9-0.8l-1.7-16c-0.1-0.5,0.3-1,0.8-1c0.5-0.1,1,0.3,1,0.8l0,0l1.7,16
			c0.1,0.5-0.3,0.9-0.8,1l0,0L62.8,1154.1z"/>
	</g>
</g>
<path class="st2" d="M51.2,1117.4c-4.4,0.1-8.5-2.5-10.2-6.7c-0.2-0.5,0.1-1,0.6-1.2c0,0,0,0,0,0c0.5-0.2,1,0.1,1.2,0.5c0,0,0,0,0,0
	l0,0c1.4,3.3,4.7,5.5,8.3,5.3c3.6,0.1,6.9-2,8.3-5.3c0.2-0.5,0.7-0.7,1.1-0.6c0,0,0,0,0,0l0,0c0.5,0.2,0.8,0.7,0.6,1.2c0,0,0,0,0,0
	C59.5,1114.8,55.6,1117.5,51.2,1117.4z"/>
<path class="st2" d="M34.5,1096.8H4.5c-0.5,0-0.9-0.4-0.9-0.9l0,0c0-4.5,3.2-7.5,8.2-7.5c0.8,0,1.6,0.1,2.3,0.2
	c1.6-1.7,3.8-2.7,6.1-2.7c2.6,0,4.8,1.6,5.8,4c1.1-0.4,2.3-0.7,3.5-0.7c3.8,0,5.9,2.3,5.9,6.6C35.4,1096.4,35,1096.8,34.5,1096.8
	C34.5,1096.8,34.5,1096.8,34.5,1096.8L34.5,1096.8z M5.5,1095h27.9c-0.3-3.3-2.2-3.8-3.9-3.8c-1.2,0-2.3,0.3-3.3,0.9
	c-0.4,0.3-1,0.2-1.3-0.1c-0.1-0.1-0.1-0.1-0.1-0.2c-1.2-2.8-2.5-3.9-4.5-3.9c-2,0-3.8,0.9-5,2.4c-0.2,0.3-0.6,0.4-1,0.3
	c-0.8-0.2-1.6-0.3-2.4-0.3C9,1090.3,6,1091.6,5.5,1095z"/>
<path class="st2" d="M31.2,1141.8c-0.1,0-0.2,0-0.3,0c-0.5-0.1-0.8-0.6-0.6-1.1c0,0,0,0,0,0l0,0l1.6-5c0.2-0.5,0.7-0.8,1.2-0.6
	c0.5,0.2,0.8,0.7,0.6,1.2l-1.6,5C32,1141.5,31.6,1141.8,31.2,1141.8z"/>
<path class="st2" d="M27.3,1154.4H27c-0.5-0.1-0.8-0.6-0.6-1.1c0,0,0,0,0,0l0,0l2.8-9c0.1-0.5,0.7-0.8,1.2-0.6c0,0,0,0,0,0l0,0
	c0.5,0.1,0.8,0.6,0.6,1.1c0,0,0,0,0,0l0,0l-2.8,9C28.1,1154.2,27.7,1154.4,27.3,1154.4z"/>
<path class="st2" d="M71.6,1141.8c-0.4,0-0.8-0.3-0.9-0.7l-1.6-5c-0.1-0.5,0.1-1,0.6-1.2c0.5-0.2,1,0.1,1.2,0.6c0,0,0,0,0,0l1.6,5
	c0.1,0.5-0.1,1-0.6,1.2c0,0,0,0,0,0l0,0C71.8,1141.7,71.7,1141.7,71.6,1141.8z"/>
<path class="st2" d="M75.5,1154.4c-0.4,0-0.8-0.3-0.9-0.7l-2.8-9c-0.2-0.5,0.1-1,0.6-1.2s1,0.1,1.2,0.6l2.8,9c0.2,0.5-0.1,1-0.6,1.2
	l0,0C75.7,1154.4,75.6,1154.4,75.5,1154.4z"/>
<path class="st2" d="M51.4,1159.6c-0.5,0-0.9-0.4-0.9-0.9l0,0v-15.4c0-0.5,0.4-0.9,0.9-0.9s0.9,0.4,0.9,0.9v15.4
	C52.3,1159.1,51.9,1159.6,51.4,1159.6C51.4,1159.6,51.4,1159.6,51.4,1159.6z"/>
<g>
	<defs>
		<circle id="SVGID_3_" cx="50" cy="845.5" r="45"/>
	</defs>
	<clipPath id="SVGID_4_">
		<use xlink:href="#SVGID_3_"  style="overflow:visible;"/>
	</clipPath>
	<g class="st4">
		<circle class="st1" cx="50" cy="845.5" r="45"/>
		<path class="st2" d="M65.4,871.9c-0.5,0-1,0.4-1,0.9v5.7H42.8v-5.8c0-0.5-0.4-0.9-1-0.9c-0.5,0-0.9,0.4-0.9,0.9v19.8
			c0,0.5,0.4,0.9,0.9,0.9h23.6c0.5,0,0.9-0.4,0.9-0.9c0,0,0,0,0,0v-19.8C66.4,872.2,66,871.8,65.4,871.9z M42.8,891.7v-11.3h21.7
			v11.3L42.8,891.7z"/>
	</g>
</g>
<path class="st2" d="M72.8,877.8c-2,0-3.7-1.6-3.7-3.7s1.6-3.7,3.7-3.7c2,0,3.7,1.6,3.7,3.6C76.5,876.1,74.9,877.7,72.8,877.8
	C72.8,877.7,72.8,877.7,72.8,877.8z M72.8,872.3c-1,0-1.8,0.8-1.8,1.8c0,1,0.8,1.8,1.8,1.8s1.8-0.8,1.8-1.8c0,0,0,0,0,0
	C74.6,873.1,73.8,872.3,72.8,872.3L72.8,872.3z"/>
<circle class="st2" cx="77.8" cy="863.5" r="1.4"/>
<circle class="st2" cx="76.4" cy="824.9" r="1.4"/>
<circle class="st2" cx="42.8" cy="811.2" r="1.4"/>
<circle class="st2" cx="27.8" cy="829" r="1.4"/>
<circle class="st2" cx="31.6" cy="879.2" r="1.4"/>
<circle class="st2" cx="21.2" cy="871.4" r="1.4"/>
<path class="st2" d="M30.5,821.2c-2,0-3.7-1.6-3.7-3.7c0-2,1.6-3.7,3.7-3.7s3.7,1.6,3.7,3.7c0,0,0,0,0,0
	C34.2,819.6,32.6,821.2,30.5,821.2C30.5,821.2,30.5,821.2,30.5,821.2z M30.5,815.8c-1,0-1.8,0.8-1.8,1.8c0,1,0.8,1.8,1.8,1.8
	c1,0,1.8-0.8,1.8-1.8c0,0,0,0,0,0C32.3,816.6,31.5,815.8,30.5,815.8C30.5,815.8,30.5,815.8,30.5,815.8L30.5,815.8z"/>
<path class="st2" d="M71.2,840.2c-0.5,0-1-0.4-1-0.9c0-0.4,0.2-0.8,0.6-0.9l0,0l13.2-4.7c0.5-0.1,1,0.1,1.2,0.6
	c0.2,0.5-0.1,1-0.5,1.2c0,0,0,0,0,0l0,0l-13.2,4.7C71.4,840.2,71.3,840.2,71.2,840.2z"/>
<path class="st2" d="M84.4,858.7c-0.1,0-0.2,0-0.3,0L70.9,854c-0.5-0.2-0.7-0.7-0.6-1.2l0,0c0.2-0.5,0.7-0.7,1.2-0.6l13.2,4.7
	c0.5,0.2,0.7,0.7,0.6,1.2C85.1,858.5,84.8,858.8,84.4,858.7L84.4,858.7z"/>
<path class="st2" d="M99.1,846.8H83.7c-0.5,0-1-0.4-1-1c0-0.5,0.5-0.9,1-0.9h15.4c0.5,0,0.9,0.4,0.9,0.9
	C100,846.4,99.6,846.8,99.1,846.8z"/>
<path class="st2" d="M79.8,846.8h-8.6c-0.5,0-1-0.4-1-1c0-0.5,0.5-0.9,1-0.9h8.6c0.5,0,1,0.4,1,0.9
	C80.8,846.4,80.3,846.8,79.8,846.8z"/>
<path class="st2" d="M29,840.2c-0.1,0-0.2,0-0.3,0l-13.2-4.7c-0.5-0.2-0.7-0.7-0.6-1.2l0,0c0.2-0.5,0.7-0.7,1.2-0.6l13.2,4.7
	c0.5,0.2,0.7,0.8,0.5,1.2C29.7,840.1,29.4,840.3,29,840.2L29,840.2z"/>
<path class="st2" d="M15.9,858.7c-0.5,0-0.9-0.4-0.9-0.9c0-0.4,0.2-0.8,0.6-0.9l13.2-4.7c0.5-0.2,1,0,1.2,0.5c0,0,0,0.1,0,0.1
	c0.1,0.5-0.1,1-0.6,1.2l0,0l-13.2,4.7H15.9z"/>
<path class="st2" d="M16.6,846.8H0.9c-0.5,0-0.9-0.4-0.9-1c0-0.5,0.4-0.9,0.9-0.9h15.6c0.5,0,0.9,0.4,0.9,0.9
	C17.5,846.4,17.1,846.8,16.6,846.8z"/>
<path class="st2" d="M29,846.8h-8.6c-0.5,0-0.9-0.4-0.9-1c0-0.5,0.4-0.9,0.9-0.9H29c0.5,0,0.9,0.4,0.9,0.9
	C30,846.4,29.6,846.8,29,846.8z"/>
<path class="st2" d="M65.1,813.4l1.8-1.8c0.4-0.4,0.4-1,0-1.3c-0.4-0.3-1-0.3-1.3,0l-1.8,1.8l-1.8-1.8c-0.4-0.3-1-0.3-1.3,0
	c-0.4,0.4-0.4,1,0,1.3l1.8,1.8l-1.8,1.8c-0.4,0.4-0.4,1,0,1.3c0.4,0.4,1,0.4,1.3,0l0,0l1.8-1.8l1.8,1.8c0.2,0.2,0.4,0.3,0.7,0.3
	c0.3,0,0.5-0.1,0.7-0.3c0.4-0.4,0.4-0.9,0-1.3L65.1,813.4z"/>
<path class="st2" d="M32.8,869.9c-2,0-3.7-1.7-3.7-3.7c0-2,1.7-3.7,3.7-3.7s3.7,1.7,3.7,3.7S34.8,869.9,32.8,869.9L32.8,869.9z
	 M32.8,864.5c-1,0-1.8,0.8-1.8,1.8c0,1,0.8,1.8,1.8,1.8c1,0,1.8-0.8,1.8-1.8C34.6,865.3,33.8,864.5,32.8,864.5
	C32.8,864.4,32.8,864.5,32.8,864.5z"/>
<path class="st1" d="M56,857.8H40.5c-0.5,0-0.8-0.4-0.8-0.8v-20.9c0-0.5,0.4-0.8,0.8-0.8c0,0,0,0,0,0H56c0.5,0,0.8,0.4,0.8,0.8v21
	C56.8,857.5,56.4,857.8,56,857.8z M41.3,856.2h13.9v-19.3H41.3L41.3,856.2z"/>
<path class="st3" d="M41.9,869.5h23.5c0.6,0,1-0.4,1-1v-38.8c0.2-1.4-0.7-2.7-2.1-2.9c-1.4-0.2-2.7,0.7-2.9,2.1c0,0.1,0,0.2,0,0.3
	c0,0.2,0,0.4,0,0.6v14.7c0,0.5-0.4,0.8-0.8,0.8c-0.5,0-0.8-0.4-0.8-0.8v-19c0-1.4-1.1-2.5-2.5-2.5s-2.5,1.1-2.5,2.5v19
	c0,0.5-0.4,0.8-0.8,0.8c-0.5,0-0.8-0.4-0.8-0.8l0,0v-23.3c-0.2-1.4-1.4-2.4-2.8-2.2c-1.1,0.1-2,1-2.2,2.2v23.3
	c0,0.5-0.4,0.8-0.8,0.8c0,0,0,0,0,0c-0.5,0-0.8-0.4-0.8-0.8v-19c-0.2-1.4-1.4-2.4-2.8-2.2c-1.1,0.1-2,1-2.2,2.2v20.9
	c0,0.4,0.4,0.6,1.2,1.2c1.8,0.9,2.9,2.7,2.9,4.7c0,0.5-0.4,0.8-0.8,0.8c-0.5,0-0.8-0.4-0.8-0.8c0,0,0,0,0,0c0-1.4-0.8-2.7-2.2-3.3
	c-0.9-0.6-1.9-1.3-1.9-2.6v-3.5c0.1-2.6-1.7-4.8-4.2-5.2c-0.6,0-1.2,0.2-1.7,0.6c-0.1,0.1-0.2,0.3-0.1,0.5c0.9,4.3,1.4,8.7,1.3,13.1
	c0.2,2.1,1.1,4,2.7,5.3c2.1,1.8,3.3,4.5,3.3,7.3v4.2C41,869,41.4,869.5,41.9,869.5z"/>
<path class="st2" d="M61.2,851.2h-0.3c-3.6-1.3-7.6-1.5-11.3-0.5c-0.5,0.1-1-0.1-1.2-0.6c0,0,0,0,0,0c-0.1-0.5,0.1-1,0.6-1.1
	c0,0,0,0,0,0l0,0c4.1-1.1,8.5-0.9,12.5,0.6c0.5,0.2,0.7,0.7,0.6,1.2C62,851,61.6,851.3,61.2,851.2L61.2,851.2z"/>
<circle class="st1" cx="49.2" cy="1644.5" r="45"/>
<path class="st2" d="M97.3,1649.8h-31c-0.5,0-0.9-0.4-0.9-0.9c0-0.5,0.4-0.9,0.9-0.9c0,0,0,0,0,0h30c-0.5-4.8-4.5-6.5-8.3-6.5
	c-1.1,0-2.1,0.1-3.2,0.4c-0.4,0.1-0.8,0-1-0.3c-1.6-2-4.1-3.2-6.7-3.2c-2.7,0-4.4,1.5-6,5.1c-0.1,0.3-0.4,0.5-0.6,0.5
	c-0.3,0.1-0.6,0-0.8-0.2c-1.1-0.6-2.4-1-3.7-1.1c-0.5-0.1-0.9-0.5-0.8-1l0,0c0.1-0.5,0.5-0.8,1-0.8c1.2,0.1,2.5,0.4,3.6,0.9
	c1.3-2.6,3.3-5.3,7.3-5.3c3-0.1,5.9,1.2,7.9,3.4c1-0.2,2-0.3,3.1-0.3c6.2,0,10.2,3.7,10.2,9.3C98.3,1649.4,97.9,1649.9,97.3,1649.8
	L97.3,1649.8z"/>
<path class="st2" d="M56.8,1621.1h-36c-0.5,0-0.9-0.5-0.9-1c0-5.3,3.8-8.8,9.7-8.8c1,0,1.9,0.1,2.9,0.3c1.8-2.1,4.5-3.3,7.3-3.3
	c3.7,0,5.6,2.5,6.8,5c1.4-0.6,2.9-0.9,4.3-0.9c3.1,0,6.8,1.3,6.8,7.7C57.7,1620.6,57.3,1621,56.8,1621.1L56.8,1621.1z M21.8,1619.2
	h34c-0.3-4.4-2.9-4.9-5-4.9c-1.5,0-2.9,0.4-4.2,1.1c-0.2,0.2-0.5,0.3-0.8,0.2c-0.3-0.1-0.5-0.3-0.6-0.5c-1.5-3.3-3.1-4.8-5.6-4.8
	c-2.4,0-4.7,1.1-6.2,3c-0.2,0.3-0.6,0.4-1,0.3c-1-0.3-2-0.4-3-0.4C26,1613.2,22.3,1614.8,21.8,1619.2L21.8,1619.2z"/>
<circle class="st2" cx="60.9" cy="1675.7" r="1.4"/>
<circle class="st2" cx="81.4" cy="1627.1" r="1.4"/>
<path class="st3" d="M62.4,1658l1.4-1.4c0.4-0.4,0.7-1,0.6-1.7l-1.9-18c-0.1-0.6,0.1-1.2,0.6-1.7l5.7-5.7c3.8-3.8,3.2-6.9,2.6-8.2
	c-0.2-0.5-0.6-0.8-1.1-1c-1.3-0.6-4.4-1.2-8.3,2.6l-5.7,5.7c-0.4,0.4-1.1,0.7-1.7,0.6l-18-1.9c-0.6-0.1-1.2,0.1-1.7,0.6l-1.4,1.4
	c-0.8,0.8-0.8,2-0.1,2.8c0,0,0,0,0.1,0.1c0.2,0.2,0.4,0.3,0.7,0.4l11.9,4.6c0.7,0.3,1,1,0.7,1.6c-0.1,0.1-0.1,0.3-0.2,0.4l-5.5,6.3
	c-0.8,0.8-1.9,1.3-3,1.2l-6.2-0.4c-0.6-0.1-1.2,0.1-1.7,0.6l-1.7,1.7c-0.5,0.5-0.5,1.3,0,1.9c0.1,0.1,0.3,0.2,0.5,0.3l7.9,3
	c0.4,0.2,0.7,0.5,0.9,0.9l3,7.8c0.3,0.7,1,1,1.7,0.8c0,0,0,0,0,0c0.2-0.1,0.3-0.2,0.5-0.3l1.7-1.7c0.4-0.4,0.6-1,0.6-1.6l-0.4-6.2
	c-0.1-1.1,0.4-2.3,1.2-3l6.2-5.5c0.5-0.5,1.3-0.5,1.8,0.1c0,0,0,0,0,0c0.1,0.1,0.2,0.2,0.2,0.4l4.6,11.9c0.3,1.1,1.4,1.7,2.4,1.4
	c0,0,0,0,0.1,0C61.7,1658.6,62.1,1658.4,62.4,1658z"/>
<path class="st2" d="M60.8,1653.6c-0.5,0-0.9-0.4-0.9-0.8l-0.3-2.6c0-0.5,0.3-0.9,0.8-1l0,0c0.5,0,0.9,0.4,1,0.8l0.3,2.6
	C61.7,1653.1,61.4,1653.5,60.8,1653.6C60.9,1653.6,60.9,1653.6,60.8,1653.6L60.8,1653.6L60.8,1653.6z"/>
<path class="st2" d="M60.1,1647.2c-0.5,0-0.9-0.4-0.9-0.8l-0.8-7.3c-0.1-0.5,0.3-1,0.8-1c0.5-0.1,1,0.3,1,0.8l0,0l0.8,7.3
	C61.1,1646.7,60.7,1647.1,60.1,1647.2L60.1,1647.2z"/>
<path class="st2" d="M13,1679.8c-0.5,0-1-0.4-1-0.9c0,0,0,0,0,0c0-0.3,0.1-0.6,0.3-0.8l6.7-6.6c0.4-0.4,1-0.3,1.3,0
	c0.3,0.3,0.3,0.8,0.1,1.2l-0.1,0.1l-6.6,6.7C13.5,1679.8,13.3,1679.9,13,1679.8z"/>
<path class="st2" d="M22.5,1670.2c-0.5,0.1-1-0.3-1-0.8c0-0.3,0.1-0.7,0.4-0.9l12.4-12.4c0.3-0.4,0.9-0.4,1.3-0.1
	c0.4,0.3,0.4,0.9,0.1,1.3c0,0,0,0,0,0l-0.1,0.1l-12.4,12.4C23,1670.1,22.8,1670.2,22.5,1670.2z"/>
<path class="st2" d="M2.6,1663.6c-0.2,0-0.5-0.1-0.6-0.3c-0.3-0.4-0.3-0.9,0-1.3l16.3-16.4c0.4-0.3,1-0.3,1.3,0c0.4,0.4,0.4,1,0,1.3
	l-16.4,16.4C3.1,1663.5,2.9,1663.6,2.6,1663.6z"/>
<path class="st2" d="M22.5,1643.7c-0.5,0-1-0.4-1-0.9c0-0.3,0.1-0.6,0.3-0.8l8.8-8.8c0.4-0.4,1-0.4,1.3,0c0,0,0,0,0,0
	c0.4,0.3,0.4,0.9,0,1.3c0,0,0,0,0,0l-8.8,8.8C23,1643.6,22.7,1643.7,22.5,1643.7z"/>
<path class="st2" d="M28.4,1690.9c-0.5,0-1-0.4-1-0.9c0-0.3,0.1-0.6,0.3-0.8l17.3-17.1c0.4-0.3,1-0.3,1.3,0.2c0,0,0,0,0,0
	c0.3,0.3,0.3,0.8,0,1.2l-17.2,17.2C29,1690.8,28.7,1690.9,28.4,1690.9z"/>
<path class="st2" d="M49,1670.2c-0.5,0-0.9-0.3-1-0.8c0-0.3,0.1-0.6,0.4-0.8l8.8-8.8c0.4-0.4,1-0.4,1.3,0c0.3,0.4,0.3,1,0,1.3
	l-8.8,8.8C49.5,1670.1,49.3,1670.2,49,1670.2z"/>
<g>
	<defs>
		<circle id="SVGID_5_" cx="49.2" cy="1644.6" r="45"/>
	</defs>
	<clipPath id="SVGID_6_">
		<use xlink:href="#SVGID_5_"  style="overflow:visible;"/>
	</clipPath>
	<g class="st5">
		<path class="st2" d="M22.5,1683.6c-0.5,0-0.9-0.4-1-0.9c0-0.3,0.1-0.6,0.3-0.8l16.8-16.8c0.3-0.4,0.9-0.4,1.3,0c0,0,0,0,0,0
			c0.4,0.4,0.4,1,0,1.3c0,0,0,0,0,0l-16.7,16.7C23.1,1683.4,22.8,1683.5,22.5,1683.6z"/>
		<path class="st2" d="M9.2,1670.2c-0.2,0-0.5-0.1-0.6-0.3c-0.4-0.4-0.4-1,0-1.3c0,0,0,0,0,0l16.8-16.6c0.4-0.3,1-0.3,1.3,0
			c0.4,0.4,0.4,1,0,1.3l-16.8,16.7C9.7,1670.2,9.4,1670.3,9.2,1670.2z"/>
	</g>
</g>
<path class="st2" d="M75.7,1668.9c-2,0-3.7-1.7-3.7-3.7c0-2,1.7-3.7,3.7-3.7c2,0,3.7,1.7,3.7,3.7l0,0
	C79.3,1667.3,77.7,1668.9,75.7,1668.9z M75.7,1663.4c-1,0-1.8,0.8-1.8,1.8c0,1,0.8,1.8,1.8,1.8c1,0,1.8-0.8,1.8-1.8
	C77.4,1664.2,76.6,1663.4,75.7,1663.4z"/>
<path class="st2" d="M22.5,1629.7H20v-2.5c-0.1-0.5-0.5-0.9-1-0.8c-0.4,0-0.8,0.4-0.8,0.8v2.5h-2.5c-0.5,0-0.9,0.4-0.9,0.9
	c0,0.5,0.4,1,0.9,1h2.5v2.5c-0.1,0.5,0.3,1,0.8,1c0.5,0.1,1-0.3,1-0.8c0-0.1,0-0.1,0-0.2l0,0v-2.5h2.5c0.5,0,0.9-0.5,0.9-1
	C23.4,1630.1,23,1629.7,22.5,1629.7C22.5,1629.7,22.5,1629.7,22.5,1629.7z"/>
<circle class="st1" cx="50" cy="978.8" r="45"/>
<path class="st2" d="M23,962.1c-0.8,0-1.5-0.1-2.2-0.2c-6.2-1.7-9.9-8.1-8.1-14.4c1.5-5.5,6.9-9.1,12.6-8.5l0,0
	c6.3,1.4,10.2,7.7,8.8,13.9C32.9,958.2,28.3,962,23,962.1z M23,940.8c-5.4,0-9.8,4.4-9.8,9.8c0,5.4,4.4,9.8,9.8,9.8
	c5.4,0,9.8-4.4,9.8-9.8c0-4.7-3.3-8.7-7.9-9.6l0,0C24.3,940.8,23.6,940.7,23,940.8L23,940.8z"/>
<ellipse transform="matrix(0.9999 -1.285844e-02 1.285844e-02 0.9999 -12.2205 0.3733)" class="st6" cx="22.9" cy="950.5" rx="10.7" ry="10.7"/>
<path class="st2" d="M46,1012.1l1.8-1.8c0.4-0.4,0.4-0.9,0-1.3c0,0,0,0,0,0c-0.4-0.3-1-0.3-1.3,0l-1.8,1.8l-1.8-1.7
	c-0.3-0.4-0.9-0.5-1.3-0.2c-0.4,0.3-0.5,0.9-0.2,1.3c0,0,0.1,0.1,0.1,0.1l0.1,0.1l1.8,1.8l-1.8,1.8c-0.4,0.3-0.4,0.9-0.1,1.3
	c0,0,0,0,0,0c0.3,0.4,0.9,0.4,1.3,0.1l0.1-0.1l1.8-1.8l1.8,1.8c0.2,0.2,0.4,0.3,0.7,0.3c0.6,0,1-0.5,0.9-1.1c0-0.2-0.1-0.4-0.3-0.6
	L46,1012.1z"/>
<circle class="st2" cx="82.1" cy="991.6" r="1.6"/>
<circle class="st2" cx="43.2" cy="946.2" r="1.6"/>
<path class="st2" d="M55.3,947.2c-2,0-3.7-1.7-3.7-3.7c0-2,1.7-3.7,3.7-3.7c2,0,3.7,1.7,3.7,3.7C59,945.6,57.4,947.2,55.3,947.2
	C55.3,947.2,55.3,947.2,55.3,947.2L55.3,947.2z M55.3,941.8c-1,0-1.8,0.8-1.8,1.8c0,1,0.8,1.8,1.8,1.8c0,0,0,0,0,0l0,0
	c1,0,1.8-0.8,1.8-1.8C57.1,942.6,56.3,941.8,55.3,941.8z"/>
<path class="st2" d="M89.7,1009.9c-0.3-0.3-5.6-7.2-12.8-9.2v-0.7c-0.1-0.5-0.5-0.9-1-0.8c-0.4,0-0.8,0.4-0.8,0.8v0.2
	c-0.3,0-0.7,0-1,0v-0.2c-0.1-0.5-0.5-0.9-1-0.8c-0.4,0-0.8,0.4-0.8,0.8v0.2c-0.3,0-0.7,0-1,0v-0.2c-0.1-0.5-0.5-0.9-1.1-0.8
	c-0.4,0.1-0.7,0.4-0.8,0.8v0.7c-7.2,2-12.5,8.8-12.7,9.2c-0.3,0.3-0.3,0.8,0,1.1c0.3,0.4,7.5,9.7,16.5,9.7s16.2-9.3,16.5-9.7
	c0.5,0,0.9,0,0.9-0.6c0-0.5-0.4-0.9-0.9-1L89.7,1009.9z M69.4,1002.6v0.1c0.1,0.5,0.6,0.9,1.1,0.8c0.4-0.1,0.8-0.4,0.8-0.8v-0.5
	c0.3,0,0.7-0.1,1-0.1v0.6c0.1,0.5,0.5,0.9,1,0.8c0.4,0,0.8-0.4,0.8-0.8v-0.6c0.3,0,0.6,0.1,1,0.1v0.5c0.1,0.5,0.5,0.9,1,0.8
	c0.4,0,0.8-0.4,0.8-0.8v-0.1c3.9,1.4,7.3,3.8,10,6.8H59.4C62.1,1006.4,65.5,1004.1,69.4,1002.6L69.4,1002.6z M73.1,1018.8
	c-6,0-11.4-4.9-13.7-7.5h27.4C84.5,1013.9,79.2,1018.8,73.1,1018.8z"/>
<g>
	<defs>
		<circle id="SVGID_7_" cx="50" cy="978.8" r="22.3"/>
	</defs>
	<clipPath id="SVGID_8_">
		<use xlink:href="#SVGID_7_"  style="overflow:visible;"/>
	</clipPath>
	<g class="st7">
		<circle class="st3" cx="50" cy="978.8" r="22.3"/>
		<path class="st2" d="M81.6,982.4l-8.6-6.3c-0.3-0.2-0.8-0.2-1.1,0l-8.2,5.9l-4.4-2l-3-9.2l2.8-3.1h10.2c0.4,0,0.8-0.3,0.9-0.7
			l3.3-10c0.1-0.4,0-0.8-0.3-1l-8.6-6.2c-0.3-0.3-0.8-0.3-1.1,0l-8.6,6.2c-0.3,0.2-0.5,0.7-0.3,1l3.1,9.6l-2.8,3.1h-9.8l-2.3-3.2
			l3.1-9.6c0.1-0.4,0-0.8-0.3-1l-8.7-6.3c-0.3-0.2-0.8-0.2-1.1,0l-8.6,6.2c-0.3,0.2-0.4,0.6-0.3,1l3.3,10c0.1,0.4,0.5,0.6,0.9,0.7
			h10.2l2.3,3.2l-3,9.2l-4.2,1.7l-8.2-5.8c-0.3-0.2-0.8-0.2-1.1,0l-8.6,6.2c-0.3,0.2-0.5,0.7-0.3,1l3.3,10.1
			c0.1,0.4,0.5,0.6,0.9,0.6h10.6c0.4,0,0.8-0.2,0.9-0.6l3.1-9.7l4.2-1.7l7.8,5.7v5l-8.2,6c-0.3,0.2-0.4,0.6-0.3,1l3.4,10.1
			c0.1,0.4,0.5,0.7,0.9,0.7h10.6c0.4,0,0.8-0.3,0.9-0.7l3.3-10.1c0.1-0.4,0-0.8-0.3-1l-8.2-6v-5l7.8-5.6l4.4,2l3.2,9.7
			c0.1,0.4,0.5,0.6,0.9,0.6H78c0.4,0,0.8-0.3,0.9-0.6l3.3-10.1C82.3,983,82,982.5,81.6,982.4z M64.1,951.8l7.5,5.4l-2.9,8.8h-9.2
			l-2.8-8.8L64.1,951.8z M29.1,957l7.5-5.4L44,957l-2.9,8.8h-9.3L29.1,957z M32.4,992h-9.3l-2.9-8.8l7.5-5.5l7.5,5.4L32.4,992z
			 M54.6,1008.4h-9.3l-2.9-8.8l7.5-5.5l7.5,5.4L54.6,1008.4z M50,985.9l-7.5-5.4l2.9-8.8h9.2l2.9,8.8L50,985.9z M77.1,992.3h-9.3
			l-2.8-8.8l7.5-5.4l7.5,5.4L77.1,992.3z"/>
	</g>
</g>
<g>
	<defs>
		<circle id="SVGID_9_" cx="50" cy="978.8" r="45"/>
	</defs>
	<clipPath id="SVGID_10_">
		<use xlink:href="#SVGID_9_"  style="overflow:visible;"/>
	</clipPath>
	<g class="st8">
		<path class="st2" d="M27.5,1018.6c-0.5,0-0.9-0.4-0.9-1c0-0.2,0-0.3,0.1-0.4l3.8-6.7c0.1-0.5,0.6-0.9,1.2-0.8
			c0.5,0.1,0.9,0.6,0.8,1.2c0,0.2-0.1,0.4-0.3,0.5l-3.8,6.7C28.2,1018.4,27.9,1018.6,27.5,1018.6z"/>
		<path class="st2" d="M33.5,1008.3c-0.5,0-0.9-0.4-0.9-0.9c0,0,0,0,0-0.1c0-0.2,0-0.3,0.1-0.5l2.4-4.1c0.3-0.4,0.8-0.6,1.3-0.3
			c0.4,0.3,0.6,0.8,0.3,1.3c0,0,0,0,0,0l0,0l-2.3,4.1C34.2,1008,33.8,1008.3,33.5,1008.3z"/>
		<path class="st2" d="M7.6,1004.1c-0.5,0-0.9-0.4-0.9-0.9c0,0,0,0,0,0c0-0.3,0.2-0.7,0.5-0.8l16.9-9.8c0.5-0.2,1-0.1,1.3,0.3
			c0.3,0.4,0.1,1-0.3,1.3l0,0l-17,9.8C7.9,1004.1,7.7,1004.1,7.6,1004.1z"/>
		<path class="st2" d="M23,979.7h-9.6c-0.5,0-0.9-0.4-0.9-0.9c0-0.5,0.4-0.9,0.9-0.9c0,0,0,0,0,0H23c0.5,0,0.9,0.4,0.9,0.9
			C23.9,979.3,23.5,979.7,23,979.7C23,979.7,23,979.7,23,979.7z"/>
		<path class="st2" d="M9.3,979.7H1.1c-0.5,0-0.9-0.4-0.9-0.9c0,0,0,0,0,0c0-0.5,0.4-0.9,0.9-0.9h8.2c0.5,0,0.9,0.4,0.9,0.9
			C10.2,979.3,9.8,979.7,9.3,979.7C9.3,979.7,9.3,979.7,9.3,979.7z"/>
		<path class="st2" d="M68.7,947.4c-0.2,0-0.3,0-0.5-0.1c-0.4-0.3-0.6-0.8-0.3-1.3l0,0l3.8-6.6c0.4-0.4,1-0.4,1.4,0
			c0.2,0.2,0.3,0.6,0.3,0.9l-3.8,6.7C69.3,947.3,69,947.5,68.7,947.4z"/>
		<path class="st2" d="M64.2,955.2c-0.5,0-0.9-0.4-0.9-0.9c0-0.2,0-0.3,0.1-0.5l0,0l2.3-4.1c0.4-0.4,1-0.4,1.4,0
			c0.2,0.2,0.3,0.6,0.2,0.9l-2.4,4C64.8,955,64.5,955.2,64.2,955.2z"/>
		<path class="st2" d="M75.5,965c-0.3,0-0.6-0.2-0.8-0.5c-0.3-0.4-0.1-1,0.3-1.3c0,0,0,0,0,0l17-9.8c0.4-0.4,1-0.4,1.4,0
			c0.4,0.4,0.4,1,0,1.4c-0.1,0.1-0.3,0.2-0.4,0.3l-17,9.7C75.8,965,75.7,965,75.5,965z"/>
		<path class="st2" d="M86.6,979.7H77c-0.5,0-0.9-0.4-0.9-0.9c0-0.5,0.4-0.9,0.9-0.9h9.5c0.5,0,0.9,0.4,0.9,0.9
			C87.4,979.3,87,979.7,86.6,979.7L86.6,979.7z"/>
		<path class="st2" d="M98.9,979.7h-8.2c-0.5,0-0.9-0.4-0.9-0.9c0,0,0,0,0,0c0-0.5,0.4-0.9,0.9-0.9h8.2c0.5,0,0.9,0.4,0.9,0.9
			C99.9,979.3,99.5,979.7,98.9,979.7C98.9,979.7,98.9,979.7,98.9,979.7z"/>
	</g>
</g>
<path class="st2" d="M23,938.9c-6.4,0-11.7,5.2-11.7,11.7c0,6.4,5.2,11.7,11.7,11.7c6.4,0,11.7-5.2,11.7-11.7c0,0,0,0,0,0
	C34.7,944.1,29.4,938.9,23,938.9z M30,957.4c-0.2-0.6-0.9-0.8-1.4-0.6c-0.4,0.2-0.7,0.6-0.7,1c0,0.4,0.2,0.7,0.5,0.9
	c-1.6,1.1-3.5,1.7-5.4,1.7c-1.9,0-3.8-0.6-5.4-1.7c0.5-0.3,0.7-1,0.4-1.5c-0.2-0.3-0.6-0.5-1-0.5c-0.4,0-0.8,0.3-1,0.7
	c-3.8-3.8-3.8-9.9,0-13.7c0.3,0.5,0.9,0.7,1.4,0.5c0,0,0,0,0,0c0.4-0.2,0.6-0.6,0.6-1c0-0.3-0.2-0.6-0.4-0.8c3.2-2.1,7.4-2.1,10.7,0
	c-0.3,0.2-0.4,0.5-0.4,0.8c0,0.6,0.4,1.1,1,1.1c0,0,0,0,0.1,0l0,0c0.4,0,0.8-0.2,1-0.6C33.8,947.5,33.8,953.6,30,957.4z"/>
<path class="st2" d="M27.9,945c-0.6,0-1.1,0.5-1.1,1.1c0,0.6,0.5,1.1,1.1,1.1s1.1-0.5,1.1-1.1l0,0C29,945.5,28.5,945,27.9,945z"/>
<circle class="st2" cx="27.5" cy="949.1" r="1.1"/>
<circle class="st2" cx="27.5" cy="952.1" r="1.1"/>
<circle class="st2" cx="27.9" cy="955" r="1.1"/>
<path class="st2" d="M18,947.2c0.6,0,1.1-0.5,1.1-1.1S18.6,945,18,945c-0.6,0-1.1,0.5-1.1,1.1C16.9,946.7,17.4,947.2,18,947.2z"/>
<circle class="st2" cx="18.4" cy="949.1" r="1.1"/>
<circle class="st2" cx="18.4" cy="952.1" r="1.1"/>
<circle class="st2" cx="18" cy="955" r="1.1"/>
<circle class="st1" cx="47.9" cy="712.2" r="45"/>
<path class="st3" d="M47.9,696.6c-2,0-19.6-0.2-19.6-5.6s17.6-5.6,19.6-5.6s19.6,0.2,19.6,5.6S49.9,696.6,47.9,696.6z M31.3,690.9
	c1.1,1.1,7.1,2.7,16.5,2.7s15.4-1.6,16.5-2.7c-1.1-1-7.1-2.7-16.5-2.7S32.5,689.9,31.3,690.9z"/>
<g>
	<defs>
		<circle id="SVGID_11_" cx="47.9" cy="712.2" r="45"/>
	</defs>
	<clipPath id="SVGID_12_">
		<use xlink:href="#SVGID_11_"  style="overflow:visible;"/>
	</clipPath>
	<g class="st9">
		<path class="st2" d="M107.9,727.8H72c-0.5,0-0.9-0.4-0.9-0.9c0-6.4,3.7-7.7,6.8-7.7c1.5,0,3,0.3,4.3,0.9c1.2-2.5,3.2-5,6.9-5
			c2.8,0,5.4,1.2,7.3,3.2c0.9-0.2,1.9-0.3,2.9-0.3c5.9,0,9.7,3.5,9.7,8.8c0,0.5-0.4,1-0.9,1L107.9,727.8z M72.9,725.9h34
			c-0.4-4.4-4.2-6-7.7-6c-1,0-2,0.1-3,0.4c-0.4,0.1-0.8,0-1-0.3c-1.5-1.9-3.8-3-6.2-3c-2.5,0-4.1,1.4-5.6,4.8
			c-0.1,0.3-0.3,0.5-0.6,0.5c-0.3,0-0.6,0-0.8-0.2c-1.3-0.7-2.7-1-4.2-1c-2,0.1-4.6,0.6-4.9,5L72.9,725.9z"/>
	</g>
</g>
<path class="st3" d="M69.1,712.1c0-6.6-5.3-12-11.9-12c-4.1-0.2-7.9,2.4-9.2,6.3c-2.5-4.6-5.5-6.3-9.2-6.3c-6.6,0-12,5.3-12,11.9
	c0,0,0,0,0,0.1v1c0,6.3,7.2,17.2,20.5,25.4c0.4,0.2,0.8,0.2,1.2,0c13.3-8.2,20.6-19,20.6-25.4C69.1,712.7,69.1,712.4,69.1,712.1z"/>
<path class="st2" d="M31.2,713c-0.5,0-0.9-0.4-0.9-0.9c0-4.6,3.7-8.3,8.3-8.3c0,0,0,0,0,0l0,0c0.5,0.1,0.9,0.5,0.8,1
	c0,0.4-0.4,0.8-0.8,0.8l0,0c-3.6,0-6.5,2.9-6.5,6.5C32.1,712.6,31.7,713,31.2,713z"/>
<path class="st2" d="M68.4,699.2c-0.3,0-0.5-0.1-0.7-0.3c-0.4-0.4-0.4-1,0-1.3l17.7-16.8c0.4-0.3,1-0.2,1.3,0.2
	c0.2,0.3,0.2,0.8,0,1.1L69,698.9C68.9,699,68.6,699.2,68.4,699.2z"/>
<path class="st2" d="M74.5,710.1c-0.5-0.1-0.9-0.7-0.7-1.2c0.1-0.3,0.3-0.5,0.5-0.7l21.7-4.8c0.5-0.1,1,0.2,1.1,0.7c0,0,0,0,0,0l0,0
	c0.1,0.5-0.2,1-0.7,1.1L74.6,710L74.5,710.1z"/>
<path class="st2" d="M81.9,698.5c-0.5,0-0.9-0.4-0.9-0.9c0-0.3,0.2-0.7,0.5-0.8l10.4-5.8c0.4-0.3,1-0.1,1.3,0.3l0,0
	c0.2,0.4,0.1,1-0.3,1.3l0,0l-10.4,5.9C82.3,698.4,82.1,698.5,81.9,698.5z"/>
<path class="st2" d="M71.3,704.4c-0.3,0-0.7-0.2-0.8-0.5c-0.3-0.4-0.1-1,0.3-1.2c0,0,0,0,0,0l5.1-2.9c0.5-0.2,1-0.1,1.3,0.4
	c0.3,0.4,0.1,1-0.4,1.3c0,0,0,0,0,0l-5.2,2.9C71.6,704.4,71.5,704.4,71.3,704.4z"/>
<circle class="st2" cx="71" cy="740.3" r="1.4"/>
<circle class="st2" cx="35" cy="677.4" r="1.4"/>
<circle class="st2" cx="13.2" cy="704.5" r="1.4"/>
<path class="st2" d="M22.9,690.2h-2.5v-2.4c0-0.5-0.4-1-1-1c-0.5,0-0.9,0.5-0.9,1v2.5H16c-0.5,0-0.9,0.4-0.9,0.8
	c0,0.5,0.4,0.9,0.9,0.9h2.5v2.5c0,0.5,0.4,0.9,0.9,0.9c0.5,0,0.9-0.4,1-0.9V692h2.5c0.5,0,0.9-0.4,1-0.9
	C23.8,690.6,23.4,690.2,22.9,690.2z"/>
<path class="st2" d="M13.2,725.6c-2,0-3.7-1.6-3.7-3.7s1.6-3.7,3.7-3.7c2,0,3.7,1.6,3.7,3.7c0,0,0,0,0,0
	C16.9,723.9,15.3,725.6,13.2,725.6C13.3,725.6,13.3,725.6,13.2,725.6z M13.2,720.1c-1,0-1.8,0.8-1.8,1.8c0,1,0.8,1.8,1.8,1.8
	c1,0,1.8-0.8,1.8-1.8C15.1,720.9,14.3,720.1,13.2,720.1L13.2,720.1z"/>
<path class="st2" d="M53.4,679.9c-2,0-3.7-1.6-3.7-3.7s1.6-3.7,3.7-3.7c2,0,3.7,1.6,3.7,3.7C57.1,678.3,55.4,679.9,53.4,679.9
	C53.4,679.9,53.4,679.9,53.4,679.9z M53.4,674.4c-1,0-1.8,0.8-1.8,1.8c0,1,0.8,1.8,1.8,1.8c1,0,1.8-0.8,1.8-1.8l0,0
	C55.2,675.2,54.4,674.4,53.4,674.4C53.4,674.4,53.4,674.4,53.4,674.4z"/>
<path class="st2" d="M40.6,746.5h-36c-0.5,0-0.9-0.4-0.9-0.9c0,0,0,0,0,0c0-5.3,3.8-8.8,9.7-8.8c1,0,1.9,0.1,2.9,0.3
	c1.8-2.1,4.5-3.2,7.3-3.2c3.7,0,5.6,2.5,6.9,4.9c1.4-0.6,2.9-0.9,4.3-0.9c3.1,0,6.8,1.3,6.8,7.7C41.5,746.1,41.1,746.5,40.6,746.5z
	 M5.6,744.7h34c-0.3-4.4-2.9-4.9-4.9-4.9c-1.5,0-2.9,0.4-4.2,1.1c-0.2,0.2-0.5,0.3-0.8,0.2c-0.3-0.1-0.5-0.3-0.6-0.5
	c-1.5-3.3-3.1-4.8-5.6-4.8c-2.4,0-4.7,1.1-6.2,3c-0.2,0.3-0.6,0.4-1,0.3c-1-0.3-2-0.4-3-0.4C9.8,738.7,6,740.3,5.6,744.7L5.6,744.7z
	"/>
<path class="st2" d="M58.4,750.4c-0.2,0-0.5-0.1-0.7-0.3l-2.9-2.9c-0.4-0.3-0.4-0.9,0-1.3c0,0,0,0,0,0l2.9-2.9c0.4-0.3,1-0.3,1.3,0
	l2.9,2.9c0.2,0.2,0.3,0.4,0.3,0.7c0,0.2-0.1,0.5-0.3,0.7l-2.9,2.9C58.9,750.4,58.6,750.5,58.4,750.4z M56.8,746.6l1.5,1.5l1.5-1.5
	l-1.5-1.5L56.8,746.6z"/>
<g>
	<defs>
		<circle id="SVGID_13_" cx="50" cy="179.1" r="45"/>
	</defs>
	<clipPath id="SVGID_14_">
		<use xlink:href="#SVGID_13_"  style="overflow:visible;"/>
	</clipPath>
	<g class="st10">
		<circle class="st1" cx="50" cy="179.1" r="45"/>
		<path class="st11" d="M70,176.5"/>
		<path class="st2" d="M85.7,159.4c-0.3,0-0.6-0.2-0.8-0.5c-0.2-0.5-0.1-1,0.3-1.3l3.3-1.9c0.5-0.2,1.1,0.1,1.3,0.7
			c0.1,0.4,0,0.8-0.3,1l-3.4,1.9C86.1,159.4,85.9,159.4,85.7,159.4z"/>
		<path class="st2" d="M79.2,163.2c-0.3,0-0.7-0.2-0.8-0.4c-0.3-0.4-0.1-1,0.3-1.3l3.3-2c0.5-0.2,1.1,0.1,1.3,0.7
			c0.1,0.4,0,0.8-0.3,1l-3.3,2C79.5,163.2,79.3,163.2,79.2,163.2z"/>
		<path class="st2" d="M65.2,153.7c-0.2,0-0.3-0.1-0.5-0.1c-0.4-0.3-0.6-0.8-0.3-1.3l7.3-12.6c0.3-0.4,0.9-0.6,1.3-0.3
			c0.4,0.3,0.6,0.8,0.3,1.3l-7.3,12.6C65.9,153.5,65.6,153.7,65.2,153.7z"/>
		<path class="st2" d="M50,156.7c-0.5,0-0.9-0.4-0.9-0.9v-5.4c0.1-0.5,0.5-0.9,1-0.8c0.4,0,0.8,0.4,0.8,0.8l0,0v5.4
			C50.9,156.3,50.5,156.7,50,156.7z"/>
		<path class="st2" d="M27.5,219c-0.2,0-0.3,0-0.5-0.1c-0.4-0.3-0.6-0.8-0.4-1.3l3.8-6.7c0.3-0.4,0.8-0.6,1.3-0.3
			c0.4,0.3,0.6,0.8,0.3,1.3c0,0,0,0,0,0l0,0l-3.8,6.7C28.1,218.8,27.8,219,27.5,219z"/>
		<path class="st2" d="M33.5,208.7c-0.2,0-0.3,0-0.5-0.1c-0.4-0.3-0.6-0.8-0.3-1.3l2.4-4.1c0.4-0.4,1-0.4,1.4,0
			c0.2,0.2,0.3,0.6,0.2,0.9l0,0l-2.3,4.1C34.1,208.5,33.8,208.7,33.5,208.7z"/>
		<path class="st2" d="M50,225c-0.5,0-0.9-0.4-0.9-0.9c0,0,0,0,0,0v-12.6c0.1-0.5,0.5-0.9,1-0.8c0.4,0,0.8,0.4,0.8,0.8l0,0v12.6
			C50.9,224.6,50.5,225,50,225z"/>
		<path class="st3" d="M75.3,173.8c0-7.9-6.4-14.3-14.3-14.3c-4.9-0.2-9.4,2.9-11,7.5c-2.9-5.4-6.6-7.5-11-7.5
			c-7.9,0-14.3,6.4-14.3,14.3v1.1c0,7.6,8.5,20.4,24.4,30.2c0.5,0.3,1.2,0.3,1.8,0c15.9-9.8,24.4-22.7,24.4-30.2
			C75.3,174.5,75.3,174.2,75.3,173.8L75.3,173.8z"/>
		<path class="st2" d="M30.1,174.7c-0.5,0-0.9-0.4-0.9-0.9c0,0,0,0,0,0l0,0c0-5.4,4.4-9.8,9.8-9.8c0.5,0,0.9,0.4,0.9,0.9
			c0,0.5-0.4,0.9-0.9,0.9c-4.4,0-8,3.6-8,7.9C31,174.4,30.6,174.8,30.1,174.7L30.1,174.7z"/>
		<path class="st2" d="M50.1,192.9c-0.4,0-0.7-0.2-0.8-0.6l-5.2-11.8l-2.5,5.8c-0.2,0.3-0.5,0.6-0.9,0.6H20.3c-0.5,0.1-1-0.3-1-0.8
			s0.3-1,0.8-1c0.1,0,0.1,0,0.2,0h19.8l3.1-7.2c0.2-0.3,0.5-0.5,0.8-0.6l0,0c0.4,0,0.7,0.2,0.8,0.6l5,11.5l5.5-17.6
			c0.1-0.5,0.6-0.8,1.1-0.6c0.3,0.1,0.6,0.3,0.7,0.6l3.2,13.2h19.2c0.5,0.1,0.9,0.5,0.8,1c0,0.4-0.4,0.8-0.8,0.8H59.8
			c-0.4,0-0.8-0.3-0.9-0.7l-2.6-10.7L51,192.2c-0.1,0.4-0.5,0.6-0.8,0.7L50.1,192.9z"/>
		<path class="st2" d="M20.8,163h-0.1c-2.6-0.1-4.6-2.2-4.5-4.8c0-1.2,0.5-2.3,1.4-3.2c0.9-0.8,2.1-1.3,3.3-1.3
			c2.6,0,4.6,2.1,4.6,4.7C25.5,161,23.4,163.1,20.8,163L20.8,163L20.8,163z M20.8,155.6c-1.5,0-2.7,1.2-2.8,2.7
			c0,1.5,1.2,2.8,2.7,2.8c0,0,0,0,0,0l0,0c0.7,0.1,1.5-0.2,2-0.8c0.5-0.5,0.9-1.2,0.9-2C23.6,156.8,22.4,155.5,20.8,155.6
			C20.9,155.5,20.9,155.5,20.8,155.6L20.8,155.6L20.8,155.6z"/>
		<circle class="st2" cx="61.2" cy="211.5" r="1.6"/>
		<circle class="st2" cx="13.8" cy="175.2" r="1.6"/>
	</g>
</g>
<path class="st2" d="M50,229.1c-0.5,0-0.9-0.4-0.9-0.9v-16.5c0.1-0.5,0.5-0.9,1-0.8c0.4,0,0.8,0.4,0.8,0.8l0,0v16.5
	C50.9,228.7,50.5,229.1,50,229.1C50,229.1,50,229.1,50,229.1z"/>
<path class="st2" d="M50,147.1c-0.5,0-0.9-0.4-0.9-0.9V130c0-0.5,0.4-1,1-1c0.5,0,1,0.4,1,1l0,0v16.1c0,0.5-0.3,1-0.8,1L50,147.1z"
	/>
<path class="st2" d="M86,159.3c-0.3,0-0.7-0.2-0.8-0.5c-0.2-0.5-0.1-1,0.4-1.3l6.5-3.6c0.5-0.2,1-0.1,1.3,0.4c0.2,0.5,0.1,1-0.4,1.3
	l-6.5,3.6C86.3,159.2,86.2,159.2,86,159.3z"/>
<path class="st2" d="M7.6,204.5c-0.3,0-0.7-0.2-0.8-0.5c-0.2-0.5-0.1-1,0.3-1.3L24,193c0.5-0.1,1.1,0.2,1.2,0.8
	c0.1,0.3,0,0.7-0.3,0.9L8,204.4C7.9,204.5,7.7,204.5,7.6,204.5z"/>
<path class="st2" d="M79.9,195.5c-1.4,0-2.9,0.4-4.2,1l-6.4-2.2c-0.5-0.1-1,0.1-1.2,0.6c-0.1,0.2-0.1,0.5,0,0.7l2.8,5.7
	c-2.3,5-0.1,10.8,4.9,13.1c5,2.3,10.8,0.1,13.1-4.9s0.1-10.8-4.9-13.1c-1.1-0.5-2.3-0.8-3.5-0.9L79.9,195.5z M79.9,212.9
	c-4.3,0-7.8-3.5-7.8-7.8c0-1.2,0.3-2.4,0.8-3.5c0.1-0.3,0.1-0.6,0-0.9l-2-4.1l4.6,1.6c0.2,0.1,0.5,0.1,0.8,0c3.8-2,8.5-0.5,10.5,3.3
	c2,3.8,0.5,8.5-3.3,10.5C82.4,212.7,81.1,213,79.9,212.9L79.9,212.9z"/>
<path class="st2" d="M83.7,203.9h-2.6v-2.6c0-0.5-0.4-0.9-0.9-0.9c-0.5,0-0.9,0.4-0.9,0.9l0,0v2.6h-2.5c-0.5,0-0.9,0.4-0.9,0.9
	c0,0.5,0.4,1,0.9,1h2.6v2.6c0.1,0.5,0.5,0.9,1,0.8c0.4,0,0.8-0.4,0.8-0.8l0,0v-2.6h2.6c0.5,0,0.9-0.5,0.9-1
	C84.7,204.3,84.3,203.9,83.7,203.9L83.7,203.9z"/>
<path class="st2" d="M39.5,146.6h-2.6V144c-0.1-0.5-0.5-0.9-1-0.8c-0.4,0-0.8,0.4-0.8,0.8l0,0v2.6h-2.6c-0.5,0-0.9,0.4-0.9,0.9
	c0,0.5,0.4,0.9,0.9,0.9H35v2.6c0,0.5,0.4,0.9,0.9,0.9s0.9-0.4,0.9-0.9v-2.6h2.6c0.5-0.1,0.9-0.5,0.8-1
	C40.3,147,39.9,146.7,39.5,146.6L39.5,146.6z"/>
<path class="st2" d="M85.4,181.4L85.4,181.4c-2.7-0.1-4.7-2.2-4.6-4.8c0.1-2.6,2.2-4.6,4.8-4.6c2.6,0,4.6,2.1,4.6,4.7
	C90,179.3,87.9,181.4,85.4,181.4z M85.4,174c-1.4,0-2.5,1.2-2.5,2.6c0,1.4,1.2,2.5,2.6,2.5c1.4,0,2.5-1.2,2.5-2.6
	C87.9,175.1,86.8,174,85.4,174L85.4,174z"/>
<circle class="st1" cx="50" cy="2314.2" r="45"/>
<circle class="st2" cx="19.9" cy="2336.7" r="1.4"/>
<circle class="st2" cx="66.7" cy="2347.8" r="1.4"/>
<path class="st2" d="M76.1,2342.7c-2,0-3.7-1.6-3.7-3.7c0-2,1.6-3.7,3.7-3.7c2,0,3.7,1.6,3.7,3.7c0,0,0,0,0,0
	C79.7,2341.1,78.1,2342.7,76.1,2342.7z M76.1,2337.2c-1,0-1.8,0.8-1.8,1.8c0,1,0.8,1.8,1.8,1.8c1,0,1.8-0.8,1.8-1.8c0,0,0,0,0,0
	c0.1-1-0.7-1.8-1.7-1.9C76.1,2337.2,76.1,2337.2,76.1,2337.2L76.1,2337.2L76.1,2337.2z"/>
<path class="st2" d="M29.1,2348.1c-2,0-3.7-1.7-3.7-3.7c0-2,1.7-3.7,3.7-3.7c2,0,3.7,1.7,3.7,3.7
	C32.8,2346.5,31.1,2348.1,29.1,2348.1z M29.1,2342.6c-1,0-1.8,0.8-1.8,1.8c0,1,0.8,1.8,1.8,1.8c1,0,1.8-0.8,1.8-1.8
	C30.9,2343.4,30.1,2342.6,29.1,2342.6C29.1,2342.6,29.1,2342.6,29.1,2342.6z"/>
<path class="st2" d="M81.2,2330.8H69.1c-0.5,0-0.9-0.4-0.9-0.9c0,0,0,0,0,0c0-0.5,0.4-0.9,0.9-0.9h11c-2-9.5-7-17-13-19.7
	c-0.3-0.1-0.5-0.4-0.6-0.8c0-0.3,0.1-0.6,0.4-0.9c2.1-1.6,3.4-4,3.3-6.7c0.1-4.5-3.5-8.3-8-8.4c-3.6-0.1-6.8,2.2-7.9,5.5
	c-0.1,0.5-0.5,0.9-1,0.8c-0.5-0.1-0.9-0.5-0.8-1c0-0.2,0.1-0.3,0.2-0.5c2.1-5.1,7.9-7.5,13.1-5.4s7.5,7.9,5.4,13.1
	c-0.5,1.1-1.1,2.1-2,3c6.3,3.5,11.2,11.4,13.1,21.6c0.1,0.3,0,0.6-0.2,0.8C81.8,2330.6,81.6,2330.7,81.2,2330.8z"/>
<path class="st2" d="M31,2330.8H18.8c-0.3,0-0.6-0.1-0.7-0.3c-0.2-0.2-0.2-0.5-0.2-0.8c1.9-10.1,6.7-18.1,13.1-21.6
	c-3.7-4.1-3.5-10.4,0.6-14.1c4-3.7,10.2-3.5,13.9,0.4c0.9,0.9,1.5,1.9,2,3.1c0.2,0.5-0.1,1-0.6,1.2s-1-0.1-1.2-0.6
	c-1.6-4.2-6.3-6.4-10.6-4.8c-4.2,1.6-6.4,6.3-4.8,10.6c0.6,1.5,1.5,2.8,2.8,3.7c0.3,0.2,0.4,0.5,0.4,0.9c0,0.3-0.3,0.6-0.5,0.8
	c-6.1,2.7-11,10.2-13.1,19.7H31c0.5-0.1,1,0.3,1,0.8c0.1,0.5-0.3,1-0.8,1C31.1,2330.8,31.1,2330.8,31,2330.8L31,2330.8L31,2330.8z"
	/>
<path class="st3" d="M66.4,2332.9c-2-8.2-6.3-14.5-11.7-16.8c3.6-2.6,4.4-7.6,1.8-11.2s-7.6-4.4-11.2-1.8s-4.4,7.6-1.8,11.2
	c0.5,0.7,1.1,1.3,1.8,1.8c-5.4,2.4-9.7,8.7-11.7,16.8c-0.2,0.8,0.3,1.7,1.1,1.9c0.1,0,0.3,0,0.4,0h29.7c0.9,0,1.6-0.7,1.6-1.6l0,0
	C66.4,2333.2,66.4,2333,66.4,2332.9z"/>
<path class="st2" d="M50,2313.5c-1.4-0.1-2.7-0.5-3.7-1.3c-0.4-0.3-0.6-0.8-0.3-1.3c0.3-0.4,0.8-0.6,1.3-0.3l0.1,0.1
	c0.8,0.6,1.7,0.9,2.7,1c1-0.1,1.9-0.4,2.7-1c0.4-0.3,1-0.1,1.3,0.3c0.2,0.4,0.2,0.9-0.2,1.2l-0.1,0.1
	C52.7,2313,51.4,2313.5,50,2313.5z"/>
<path class="st2" d="M50,2294.4c-0.5,0-0.9-0.5-0.9-1v-14.2c0.1-0.5,0.5-0.9,1-0.8c0.4,0,0.8,0.4,0.8,0.8l0,0v14.2
	C50.9,2293.9,50.5,2294.4,50,2294.4z"/>
<path class="st2" d="M50,2275.7c-0.5,0-0.9-0.4-0.9-0.9l0,0v-9.8c0.1-0.5,0.5-0.9,1-0.8c0.4,0,0.8,0.4,0.8,0.8l0,0v9.8
	C50.9,2275.3,50.5,2275.7,50,2275.7L50,2275.7z"/>
<path class="st2" d="M99.1,2318.6H82.6c-0.5,0-0.9-0.4-0.9-0.9c0,0,0,0,0,0l0,0c0-0.5,0.4-1,0.9-1h16.5c0.5,0,0.9,0.5,0.9,1
	C100,2318.2,99.6,2318.6,99.1,2318.6z"/>
<path class="st2" d="M76.1,2303.6c-0.5-0.1-0.9-0.5-0.8-1c0-0.3,0.2-0.5,0.3-0.6l5.9-3.3c0.4-0.4,1-0.4,1.4,0s0.4,1,0,1.4
	c-0.1,0.1-0.3,0.2-0.5,0.3l-5.9,3.3C76.4,2303.6,76.2,2303.6,76.1,2303.6z"/>
<path class="st2" d="M85.4,2298.1c-0.5-0.1-0.9-0.5-0.8-1c0-0.3,0.2-0.5,0.3-0.6l9.3-5.4c0.4-0.4,1-0.4,1.4,0c0.4,0.4,0.4,1,0,1.4
	c-0.1,0.1-0.2,0.2-0.4,0.2l-9.3,5.4C85.7,2298.2,85.6,2298.2,85.4,2298.1z"/>
<path class="st2" d="M67.2,2288.8c-0.5,0-0.9-0.4-0.9-0.9c0-0.2,0-0.3,0.1-0.5l0,0l9.3-16.1c0.4-0.4,1-0.4,1.4,0
	c0.2,0.2,0.3,0.6,0.3,0.9l-9.3,16.1C67.9,2288.7,67.5,2288.8,67.2,2288.8z"/>
<path class="st2" d="M17.4,2318.6H0.9c-0.5,0-0.9-0.4-0.9-0.9l0,0c0-0.5,0.4-1,0.9-1h16.5c0.5,0,0.9,0.5,0.9,1
	C18.4,2318.2,18,2318.6,17.4,2318.6C17.4,2318.6,17.4,2318.6,17.4,2318.6z"/>
<path class="st2" d="M24,2303.6c-0.2,0-0.3-0.1-0.5-0.1l-5.9-3.3c-0.5-0.1-0.9-0.6-0.8-1.2c0.1-0.5,0.6-0.9,1.2-0.8
	c0.2,0,0.4,0.1,0.5,0.3l0,0l5.9,3.3c0.4,0.3,0.5,0.9,0.2,1.3c-0.2,0.2-0.4,0.3-0.6,0.4L24,2303.6z"/>
<path class="st2" d="M14.6,2298.1c-0.2,0-0.3-0.1-0.5-0.1l-9.3-5.4c-0.5-0.1-0.9-0.6-0.8-1.2c0.1-0.5,0.6-0.9,1.2-0.8
	c0.2,0,0.4,0.1,0.5,0.3l9.4,5.4c0.4,0.2,0.6,0.8,0.3,1.3c0,0,0,0,0,0l0,0C15.3,2297.9,14.9,2298.1,14.6,2298.1z"/>
<path class="st2" d="M32.8,2288.8c-0.3,0-0.7-0.2-0.8-0.5l-9.3-16.1c-0.4-0.4-0.4-1,0-1.4c0.4-0.4,1-0.4,1.4,0
	c0.1,0.1,0.2,0.3,0.3,0.5l9.3,16.1c0.3,0.4,0.1,1-0.3,1.3l0,0C33.2,2288.8,33,2288.8,32.8,2288.8z"/>
<path class="st2" d="M50,2356.1c-0.2,0-0.3,0-0.5-0.1c-6.2-3.7-9.4-8.7-9.4-11.7c0-0.1,0-0.2,0-0.3c-0.1-3.3,2.6-6.1,5.9-6.1
	c0,0,0.1,0,0.1,0l0,0c1.5,0,2.9,0.6,3.8,1.8c1-1.2,2.4-1.9,4-1.8c3.3,0,6,2.7,6,6H59l1,0.1c0,0.1,0,0.2,0,0.4c0,3-3.2,8-9.4,11.7
	C50.4,2356.1,50.2,2356.1,50,2356.1z M46.1,2339.7c-2.3,0-4.1,1.9-4.1,4.1v0.3c0,2.4,2.8,6.7,8,9.9c5.2-3.3,8-7.5,8-9.8v-0.4
	c0-2.3-1.9-4.1-4.1-4.1c-1.4,0-2.6,0.8-3,2.1c-0.1,0.3-0.5,0.6-0.8,0.6c-0.4,0-0.7-0.2-0.9-0.5C48.2,2340,47,2339.7,46.1,2339.7
	L46.1,2339.7z"/>
<circle class="st1" cx="52.5" cy="1511.9" r="45"/>
<path class="st2" d="M89,1495.8h-2.5v-2.5c-0.1-0.5-0.6-0.9-1.1-0.8c-0.4,0.1-0.8,0.4-0.8,0.8v2.5h-2.5c-0.5,0.1-0.9,0.5-0.8,1
	c0,0.4,0.4,0.8,0.8,0.8h2.5v2.5c0.1,0.5,0.6,0.9,1.1,0.8c0.4-0.1,0.7-0.4,0.8-0.8v-2.4H89c0.5-0.1,0.9-0.5,0.8-1
	C89.8,1496.3,89.4,1495.9,89,1495.8L89,1495.8z"/>
<path class="st2" d="M20.2,1514.9h-2.5v-2.5c-0.1-0.5-0.5-0.9-1-0.8c-0.4,0-0.8,0.4-0.8,0.8v2.5h-2.5c-0.5,0-0.9,0.4-0.9,0.9l0,0
	c0,0.5,0.4,1,0.9,1h2.5v2.5c-0.1,0.5,0.3,1,0.8,1c0.5,0.1,1-0.3,1-0.8c0-0.1,0-0.1,0-0.2l0,0v-2.5h2.5c0.5,0,0.9-0.5,0.9-1
	C21.2,1515.3,20.7,1514.9,20.2,1514.9z"/>
<path class="st2" d="M54.6,1537.8c-0.6,0-1-0.4-1-1v-6.8c0-0.5,0.5-0.9,1-0.9c0.5,0,0.9,0.4,0.9,0.9l0,0v6.9
	C55.5,1537.4,55.1,1537.8,54.6,1537.8z"/>
<path class="st2" d="M58,1534.4h-6.9c-0.5,0.2-1.1,0-1.3-0.5c-0.2-0.5,0-1.1,0.5-1.3c0.2-0.1,0.4-0.1,0.6-0.1H58
	c0.5,0.2,0.8,0.8,0.6,1.3C58.5,1534.1,58.3,1534.3,58,1534.4z"/>
<circle class="st2" cx="73.9" cy="1483.2" r="1.4"/>
<circle class="st2" cx="45.2" cy="1476.6" r="1.4"/>
<circle class="st2" cx="71.6" cy="1498.2" r="1.4"/>
<circle class="st2" cx="89.3" cy="1509.8" r="1.4"/>
<circle class="st2" cx="51.1" cy="1548" r="1.4"/>
<circle class="st2" cx="26.7" cy="1532.2" r="1.4"/>
<path class="st2" d="M60,1483c-2,0-3.7-1.6-3.7-3.7c0-2,1.6-3.7,3.7-3.7c2,0,3.7,1.6,3.7,3.7c0,0,0,0,0,0l0,0
	C63.7,1481.4,62,1483,60,1483C60,1483,60,1483,60,1483z M60,1477.5c-1,0-1.8,0.9-1.8,1.9c0,1,0.9,1.8,1.9,1.8c1,0,1.8-0.8,1.8-1.8
	c0-1-0.7-1.8-1.7-1.8c0,0,0,0,0,0H60z"/>
<path class="st2" d="M36,1545.4c-2,0-3.7-1.6-3.7-3.7c0-2,1.6-3.7,3.7-3.7c2,0,3.7,1.6,3.7,3.7C39.7,1543.8,38,1545.4,36,1545.4z
	 M36,1540c-1,0-1.8,0.8-1.8,1.8c0,1,0.8,1.8,1.8,1.8c1,0,1.8-0.8,1.8-1.8C37.8,1540.8,37,1540,36,1540z"/>
<path class="st2" d="M92.8,1545.3H61.4c-0.5,0-0.9-0.4-0.9-0.9l0,0c0-4.7,3.8-8.5,8.5-8.6c0.4,0,0.8,0,1.1,0c3.1-3.6,8.4-4,12-0.9
	c1,0.9,1.8,2,2.3,3.2c4.1-0.5,8,2,9.2,5.9c0.2,0.5-0.1,1-0.6,1.2c-0.1,0-0.2,0-0.3,0L92.8,1545.3z M62.4,1543.4h29
	c-1.4-2.6-4.4-4-7.3-3.3c-0.5,0.1-1-0.2-1.1-0.6c-1.1-3.5-4.9-5.4-8.4-4.3c-1.3,0.4-2.5,1.2-3.3,2.3c-0.2,0.3-0.6,0.4-0.9,0.4
	c-0.4-0.1-0.9-0.1-1.3-0.1C65.7,1537.7,62.9,1540.1,62.4,1543.4z"/>
<path class="st2" d="M27.5,1478.5c-0.3,0-0.6-0.2-0.8-0.5l-3.8-6.6c-0.4-0.4-0.4-1,0-1.4c0.4-0.4,1-0.4,1.4,0
	c0.1,0.1,0.2,0.3,0.3,0.5l0,0l3.8,6.6c0.3,0.5,0.1,1-0.3,1.3c0,0,0,0,0,0C27.8,1478.5,27.7,1478.5,27.5,1478.5L27.5,1478.5z"/>
<path class="st2" d="M31.4,1485.2c-0.3,0-0.7-0.2-0.8-0.5l-2.2-3.6c-0.4-0.4-0.4-1,0-1.4c0.4-0.4,1-0.4,1.4,0
	c0.1,0.1,0.2,0.3,0.3,0.5l2.1,3.7c0.2,0.5,0.1,1-0.4,1.3C31.7,1485.2,31.5,1485.2,31.4,1485.2z"/>
<path class="st2" d="M22.6,1494c-0.2,0-0.3,0-0.5-0.1l-12.6-7.3c-0.5-0.1-0.9-0.7-0.8-1.2s0.7-0.9,1.2-0.8c0.2,0,0.4,0.1,0.5,0.3
	l12.6,7.3c0.4,0.3,0.5,1,0.2,1.4C23.1,1493.8,22.8,1493.9,22.6,1494z"/>
<path class="st2" d="M9.8,1505.9H3.4c-0.5-0.1-0.9-0.5-0.8-1c0-0.4,0.4-0.8,0.8-0.8h6.4c0.5,0.1,0.9,0.5,0.8,1
	C10.6,1505.5,10.3,1505.9,9.8,1505.9z"/>
<path class="st2" d="M19.4,1505.9h-6c-0.5,0-0.9-0.4-0.9-0.9l0,0c0-0.5,0.4-0.9,0.9-0.9c0,0,0,0,0,0h6c0.5,0.1,0.9,0.5,0.8,1
	C20.2,1505.5,19.8,1505.9,19.4,1505.9L19.4,1505.9z"/>
<path class="st3" d="M84.5,1523.9c0.6,0,1.1-0.5,1.1-1c0,0,0,0,0,0l0,0c-0.1-5.2-3-9.9-7.6-12.3c-2.9-1.5-6.2-2.2-9.5-1.8
	c-0.7,0.1-1.4-0.2-1.9-0.7c-5.5-6.3-15.1-7-21.4-1.4c-1.7,1.5-3,3.3-3.9,5.3c-0.4,0.9-1.4,1.5-2.3,1.3c-0.6-0.1-1.1-0.1-1.7-0.1
	c-6.1,0-11.5,3.7-13.9,9.3c-0.2,0.5,0,1.1,0.5,1.3c0,0,0,0,0.1,0c0.1,0.1,0.3,0.1,0.4,0.1L84.5,1523.9z"/>
<path class="st3" d="M37.3,1511.3c0.6,0,1.2,0,1.9,0.1c0.2,0,0.3-0.1,0.4-0.2c3.6-8.2,13-12.3,21.4-9.2
	c-1.5-9.9-10.8-16.7-20.7-15.2s-16.7,10.8-15.2,20.7c0.4,2.5,1.3,4.8,2.6,6.9C30.4,1512.4,33.8,1511.3,37.3,1511.3z"/>
<path class="st2" d="M79.3,1519.8c-0.3,0-0.6-0.2-0.8-0.5c-0.6-1.1-1.4-2-2.3-2.8c-0.4-0.3-0.5-0.9-0.2-1.3c0,0,0,0,0,0l0,0
	c0.3-0.4,0.9-0.4,1.3-0.2c1.1,0.9,2.1,2,2.8,3.3c0.3,0.4,0.1,1-0.3,1.3l0,0C79.6,1519.8,79.4,1519.8,79.3,1519.8z M65.3,1515.4
	c-0.3,0-0.6-0.1-0.8-0.4l-1.9-2.5c-0.3-0.4-0.6-0.8-1-1.2c-1.7-1.7-4-2.6-6.4-2.6c-0.5-0.1-0.9-0.5-0.8-1c0-0.4,0.4-0.8,0.8-0.8l0,0
	c2.9,0,5.6,1.1,7.7,3.1c0.4,0.4,0.8,0.9,1.2,1.4l1.6,2.1l2.5-0.5c1.8-0.4,3.6-0.3,5.4,0.2c0.5,0.1,0.8,0.7,0.6,1.2c0,0,0,0,0,0l0,0
	c-0.2,0.5-0.7,0.7-1.2,0.6c-1.5-0.4-3-0.5-4.5-0.2l-3.1,0.6L65.3,1515.4z"/>
<path class="st2" d="M54.2,1498.1c-0.3,0-0.6-0.1-0.8-0.4c-0.5-0.7-1-1.4-1.7-2c-0.4-0.4-0.4-1,0-1.3c0.4-0.3,1-0.3,1.3,0
	c0.7,0.7,1.4,1.4,2,2.2c0.3,0.4,0.2,1-0.2,1.3C54.6,1498,54.4,1498.1,54.2,1498.1L54.2,1498.1z"/>
<path class="st2" d="M50,1494.2c-0.2,0-0.3,0-0.5-0.1c-2-1.2-4.3-1.9-6.7-1.8c-0.5,0-0.9-0.5-0.9-1c0-0.5,0.4-0.9,0.9-0.9
	c2.7,0,5.3,0.7,7.6,2.1c0.4,0.3,0.6,0.8,0.3,1.3c0,0,0,0,0,0l0,0C50.6,1494,50.3,1494.2,50,1494.2z"/>
<g>
	<defs>
		<circle id="SVGID_15_" cx="50" cy="2045.1" r="45"/>
	</defs>
	<clipPath id="SVGID_16_">
		<use xlink:href="#SVGID_15_"  style="overflow:visible;"/>
	</clipPath>
	<g class="st12">
		<circle class="st1" cx="50" cy="2045" r="45"/>
		<path class="st2" d="M25.1,2021.8c-0.3,0-0.5-0.1-0.7-0.3l-11.2-13.6c-0.3-0.4-0.3-1,0.1-1.3c0.4-0.3,1-0.2,1.3,0.1l11.2,13.6
			c0.3,0.4,0.2,1-0.1,1.3C25.5,2021.7,25.3,2021.8,25.1,2021.8z"/>
		<path class="st2" d="M27,2010.9c-0.4,0-0.8-0.3-0.9-0.7l-1.4-6.1c-0.2-0.5,0-1,0.5-1.2c0.5-0.2,1,0,1.2,0.5c0,0.1,0,0.1,0,0.2v0.2
			l1.4,6.1c0.1,0.5-0.2,1-0.7,1.1L27,2010.9z"/>
		<path class="st2" d="M29.4,2021.1c-0.4,0-0.8-0.3-0.9-0.7l-1.5-6.9c-0.1-0.5,0.2-1,0.7-1.1c0.5-0.1,1,0.2,1.1,0.7c0,0,0,0,0,0l0,0
			l1.5,6.8c0.1,0.5-0.2,1-0.7,1.1l0,0L29.4,2021.1z"/>
		<path class="st2" d="M15.9,2023.7h-0.3l-6.9-2.4c-0.5-0.2-0.7-0.7-0.5-1.2c0.2-0.5,0.7-0.7,1.1-0.6l7,2.4c0.5,0.2,0.7,0.7,0.6,1.2
			C16.7,2023.5,16.3,2023.7,15.9,2023.7z"/>
		<path class="st2" d="M24.6,2026.7h-0.3l-5.1-1.8c-0.5-0.2-0.7-0.7-0.6-1.2c0.2-0.5,0.7-0.7,1.2-0.6l0,0l5.1,1.8
			c0.5,0.2,0.8,0.7,0.6,1.2c0,0,0,0,0,0l0,0C25.4,2026.4,25,2026.6,24.6,2026.7z"/>
	</g>
</g>
<path class="st3" d="M29.9,2024.8h40.1c0.7,0,1.2,0.6,1.2,1.2v40.1c0,0.7-0.6,1.2-1.2,1.2H29.9c-0.7,0-1.2-0.6-1.2-1.2v-40.1
	C28.7,2025.4,29.2,2024.8,29.9,2024.8z"/>
<path class="st2" d="M39.7,2029.5c-0.5,0-0.9-0.4-0.9-0.9c0,0,0,0,0,0v-7.7c0.1-0.5,0.6-0.9,1.1-0.8c0.4,0.1,0.8,0.4,0.8,0.8v7.7
	C40.6,2029.1,40.2,2029.5,39.7,2029.5C39.7,2029.5,39.7,2029.5,39.7,2029.5L39.7,2029.5z"/>
<path class="st2" d="M60.4,2029.5c-0.5,0-0.9-0.4-1-0.9v-7.7c0-0.5,0.4-0.9,1-0.9c0.5,0,0.9,0.4,0.9,0.9l0,0v7.7
	C61.3,2029.1,60.9,2029.5,60.4,2029.5z"/>
<path class="st2" d="M65.4,2043.2H34.6c-0.5,0-0.9-0.4-0.9-0.9l0,0c0-0.5,0.4-1,0.9-1h30.8c0.5,0,0.9,0.5,0.9,1
	C66.3,2042.7,65.9,2043.2,65.4,2043.2z"/>
<path class="st2" d="M65.4,2055.6H34.6c-0.5-0.1-0.9-0.5-0.8-1c0-0.4,0.4-0.8,0.8-0.8h30.8c0.5,0.1,0.9,0.5,0.8,1
	C66.2,2055.2,65.9,2055.5,65.4,2055.6z"/>
<path class="st2" d="M65.4,2061.8H34.6c-0.5,0-0.9-0.4-0.9-0.9l0,0c0-0.5,0.4-1,0.9-1h30.8c0.5,0,0.9,0.5,0.9,1
	C66.3,2061.3,65.9,2061.8,65.4,2061.8z"/>
<path class="st2" d="M65.4,2049.4H34.6c-0.5,0-0.9-0.5-0.9-1c0-0.5,0.4-0.9,0.9-0.9h30.8c0.5,0,0.9,0.4,0.9,0.9l0,0
	C66.4,2048.9,65.9,2049.4,65.4,2049.4z"/>
<g>
	<defs>
		<path id="SVGID_17_" d="M29.9,2024.9h40.1c0.7,0,1.2,0.6,1.2,1.2v40.1c0,0.7-0.6,1.2-1.2,1.2H29.9c-0.7,0-1.2-0.6-1.2-1.2v-40.1
			C28.7,2025.5,29.2,2024.9,29.9,2024.9z"/>
	</defs>
	<clipPath id="SVGID_18_">
		<use xlink:href="#SVGID_17_"  style="overflow:visible;"/>
	</clipPath>
	<g class="st13">
		<path class="st2" d="M71.3,2036.3H28.7c-0.5,0-0.9-0.4-0.9-0.9l0,0c0-0.5,0.4-1,0.9-1h42.6c0.5,0,0.9,0.5,0.9,1
			C72.2,2035.8,71.8,2036.3,71.3,2036.3z"/>
	</g>
</g>
<path class="st2" d="M92.2,2023.5c0-7.6-5.6-13.8-12.4-13.8c-6.2,0-11.5,5.2-12.3,12c0,0.5,0.3,0.9,0.8,1c0.5,0,0.9-0.3,1-0.8
	c0.7-5.9,5.2-10.3,10.4-10.3c5.8,0,10.5,5.3,10.5,12s-4.7,12-10.5,12c-2,0-3.9-0.6-5.5-1.8c-0.4-0.3-1-0.1-1.3,0.3
	c-0.2,0.4-0.1,0.9,0.2,1.2c1.3,0.9,2.7,1.5,4.1,1.8l-1.1,3.7c-0.1,0.3,0,0.6,0.2,0.8c0.2,0.2,0.5,0.4,0.8,0.4h1.4
	c-1,4.7,0,8.8,1,12.9c1.3,5.1,2.5,10-0.7,15.7c-0.2,0.5-0.1,1,0.4,1.3c0.1,0.1,0.3,0.1,0.5,0.1c0.3,0,0.6-0.2,0.8-0.5
	c3.5-6.4,2.2-11.8,0.8-17.1c-1-4.1-2-8-0.9-12.4h1.8c0.3,0,0.6-0.1,0.8-0.4c0.2-0.2,0.2-0.5,0.2-0.8l-1-3.6
	C88.3,2035.5,92.4,2029.8,92.2,2023.5z M80.4,2037.4l0.8,2.7h-2.7l0.8-2.7H80.4z"/>
<path class="st2" d="M75,2018.9c0.3,0,0.5-0.1,0.7-0.3c0.9-1.1,2.2-1.8,3.6-2c0.5-0.1,0.9-0.5,0.8-1l0,0c-0.1-0.5-0.5-0.9-1-0.8
	c-1.9,0.2-3.6,1.2-4.8,2.6c-0.4,0.4-0.4,1,0,1.3c0,0,0,0,0,0C74.5,2018.8,74.8,2018.9,75,2018.9z"/>
<path class="st2" d="M73,2023.4c0.5,0,0.9-0.4,0.9-0.8c0.1-0.5,0.1-0.9,0.3-1.4c0.1-0.5-0.2-1-0.7-1.2c-0.5-0.1-1,0.1-1.1,0.6l0,0
	c-0.2,0.5-0.3,1.1-0.4,1.7c0,0.5,0.3,0.9,0.8,1l0,0L73,2023.4z"/>
<path class="st2" d="M22.4,2083.2c-7.3-0.2-13.1-6.3-12.9-13.6c0.2-7,5.8-12.7,12.9-12.9c0.9,0,1.8,0.1,2.7,0.3
	c0.6,0.1,1.1,0.3,1.7,0.4c0.5,0.1,0.8,0.7,0.6,1.2c-0.1,0.5-0.7,0.8-1.2,0.6c0,0,0,0-0.1,0l0,0c-1.2-0.4-2.4-0.6-3.7-0.6
	c-6.3,0-11.4,5.1-11.4,11.4c0,6.3,5.1,11.4,11.4,11.4c6.3,0,11.4-5.1,11.4-11.3l0,0c0-0.5,0.4-0.9,1-0.9c0.5,0,0.9,0.4,0.9,0.9l0,0
	C35.6,2077.3,29.7,2083.2,22.4,2083.2z"/>
<path class="st2" d="M27.3,2073.6c-0.2,0-0.3,0-0.5-0.1l-4.9-2.7c-0.3-0.2-0.5-0.5-0.5-0.8v-7.7c0-0.5,0.4-0.9,0.9-0.9
	s0.9,0.4,0.9,0.9v7.2l4.4,2.4c0.4,0.3,0.6,0.8,0.4,1.3C27.9,2073.4,27.6,2073.6,27.3,2073.6z"/>
<path class="st2" d="M20.4,2040h-2.5v-2.5c-0.1-0.5-0.5-0.9-1-0.8c-0.4,0-0.8,0.4-0.8,0.8v2.5h-2.5c-0.5,0-0.9,0.5-0.9,1
	c0,0.5,0.4,0.9,0.9,0.9H16v2.5c0.1,0.5,0.5,0.9,1,0.8c0.4,0,0.8-0.4,0.8-0.8v-2.5h2.5c0.5,0,0.9-0.4,0.9-0.9l0,0
	C21.3,2040.5,20.9,2040.1,20.4,2040z"/>
<circle class="st2" cx="49.5" cy="2080" r="1.4"/>
<circle class="st2" cx="55.2" cy="2010.7" r="1.4"/>
<path class="st2" d="M43.2,2014.1c-2,0-3.7-1.6-3.7-3.7s1.6-3.7,3.7-3.7c2,0,3.7,1.6,3.7,3.7C46.9,2012.5,45.3,2014.1,43.2,2014.1
	C43.3,2014.1,43.3,2014.1,43.2,2014.1z M43.2,2008.6c-1,0-1.8,0.8-1.8,1.8c0,1,0.8,1.8,1.8,1.8c1,0,1.8-0.8,1.8-1.8
	C45,2009.4,44.2,2008.6,43.2,2008.6z"/>
<path class="st2" d="M67.1,2081.1c-2,0-3.7-1.6-3.7-3.7c0-2,1.6-3.7,3.7-3.7c2,0,3.7,1.6,3.7,3.7
	C70.7,2079.5,69.1,2081.1,67.1,2081.1C67.1,2081.1,67.1,2081.1,67.1,2081.1z M67.1,2075.6c-1,0-1.8,0.8-1.8,1.8s0.8,1.8,1.8,1.8
	c1,0,1.8-0.8,1.8-1.8C68.9,2076.4,68.1,2075.6,67.1,2075.6C67.1,2075.6,67.1,2075.6,67.1,2075.6L67.1,2075.6z"/>
<circle class="st1" cx="50" cy="448.2" r="45"/>
<g>
	<defs>
		<circle id="SVGID_19_" cx="50" cy="448.2" r="45"/>
	</defs>
	<clipPath id="SVGID_20_">
		<use xlink:href="#SVGID_19_"  style="overflow:visible;"/>
	</clipPath>
	<g class="st14">
		<circle class="st1" cx="50" cy="448.2" r="45"/>
		<path class="st2" d="M50,427c-0.5,0-0.9-0.4-0.9-0.9v-9.7c-0.1-0.5,0.3-1,0.8-1c0.5-0.1,1,0.3,1,0.8c0,0.1,0,0.1,0,0.2l0,0v9.7
			C51,426.6,50.6,427,50,427C50.1,427,50,427,50,427L50,427z"/>
		<path class="st2" d="M37.6,428.3c-0.3,0-0.6-0.2-0.8-0.5l-10.4-18c-0.4-0.4-0.4-1-0.1-1.4c0.4-0.4,1-0.4,1.4-0.1
			c0.2,0.1,0.3,0.3,0.3,0.5l10.4,18c0.2,0.5,0,1.1-0.5,1.3C37.9,428.2,37.7,428.3,37.6,428.3z"/>
		<path class="st2" d="M25.9,448.8H5c-0.5,0-0.9-0.4-0.9-0.9c0,0,0,0,0,0c0-0.5,0.4-0.9,0.9-0.9h20.9c0.5,0,0.9,0.4,0.9,0.9
			C26.8,448.5,26.4,448.9,25.9,448.8C25.9,448.9,25.9,448.9,25.9,448.8L25.9,448.8z"/>
		<path class="st2" d="M28.8,437.5c-0.2,0-0.3,0-0.5-0.1l-7.1-4.1c-0.4-0.3-0.6-0.8-0.3-1.3l0,0c0.3-0.4,0.8-0.6,1.3-0.3l7.1,4.1
			c0.4,0.3,0.6,0.8,0.4,1.3C29.4,437.3,29.1,437.4,28.8,437.5z"/>
		<path class="st11" d="M86.5,474.4"/>
		<path class="st11" d="M13.5,474.4"/>
		<path class="st11" d="M64.4,465"/>
		<path class="st2" d="M86.5,484.3h-73c-0.5,0-0.9-0.4-0.9-0.9s0.4-0.9,0.9-0.9c0,0,0,0,0,0h73c0.5,0,0.9,0.4,0.9,0.9
			S87,484.3,86.5,484.3C86.5,484.3,86.5,484.3,86.5,484.3z"/>
		<path class="st2" d="M95,448.8H74.2c-0.5,0-0.9-0.4-0.9-0.9s0.4-0.9,0.9-0.9c0,0,0,0,0,0H95c0.5,0,0.9,0.4,0.9,0.9
			C95.9,448.4,95.5,448.8,95,448.8z"/>
	</g>
</g>
<path class="st2" d="M91.3,476.3H8.7c-0.5-0.1-0.9-0.5-0.8-1c0-0.4,0.4-0.8,0.8-0.8h82.6c0.5,0.1,0.9,0.5,0.8,1
	C92.1,475.9,91.7,476.3,91.3,476.3z"/>
<path class="st2" d="M50,412.3c-0.5,0-0.9-0.4-0.9-0.9v-12.2c-0.1-0.5,0.3-1,0.8-1c0.5-0.1,1,0.3,1,0.8c0,0.1,0,0.1,0,0.2l0,0v12.2
	C50.9,411.8,50.5,412.3,50,412.3z"/>
<path class="st2" d="M17.9,431.2c-0.2,0-0.3-0.1-0.5-0.1l-10.7-6.2c-0.4-0.3-0.6-0.8-0.3-1.3c0.3-0.4,0.8-0.6,1.3-0.3c0,0,0,0,0,0
	l0,0l10.7,6.2c0.4,0.3,0.6,0.8,0.3,1.3c0,0,0,0,0,0C18.5,431,18.2,431.2,17.9,431.2z"/>
<path class="st2" d="M84.2,457.5h-2.5V455c0-0.5-0.4-0.9-0.9-0.9s-0.9,0.4-0.9,0.9l0,0v2.5h-2.6c-0.5,0-1,0.4-1,1
	c0,0.5,0.5,0.9,1,0.9h2.5v2.5c0,0.5,0.4,0.9,0.9,0.9s0.9-0.4,0.9-0.9l0,0v-2.5h2.5c0.5,0,0.9-0.4,0.9-0.9c0,0,0,0,0,0
	C85.1,458,84.7,457.5,84.2,457.5C84.2,457.5,84.2,457.5,84.2,457.5L84.2,457.5z"/>
<circle class="st2" cx="24.3" cy="456.8" r="1.4"/>
<path class="st2" d="M17.9,467.9c-2,0-3.7-1.6-3.7-3.7c0-2,1.6-3.7,3.7-3.7s3.7,1.6,3.7,3.7l0,0C21.5,466.2,19.9,467.9,17.9,467.9z
	 M17.9,462.4c-1,0-1.8,0.8-1.8,1.8s0.8,1.8,1.8,1.8c1,0,1.8-0.8,1.8-1.8S18.9,462.4,17.9,462.4C17.9,462.4,17.9,462.4,17.9,462.4z"
	/>
<path class="st3" d="M32.5,464.6c-0.7,0-1.2-0.5-1.2-1.2c0,0,0,0,0,0v-0.1l1.8-20c0-6.2,5-11.2,11.2-11.2c0,0,0,0,0,0h11.7
	c6.2,0,11.2,5,11.2,11.2l0,0l1.8,20c0.1,0.7-0.5,1.3-1.1,1.4L32.5,464.6L32.5,464.6z"/>
<path class="st2" d="M77.2,427.3c0.5,0,1-0.3,1-0.9c0,0,0,0,0-0.1v-9.7c-0.1-0.5-0.6-0.9-1.1-0.8c-0.4,0.1-0.8,0.4-0.8,0.8v9.7
	C76.3,426.8,76.7,427.2,77.2,427.3z"/>
<path class="st2" d="M77.1,410.9c-6.9,0-12.4,5.6-12.4,12.4c0,1.8,0.4,3.5,1.1,5.1l-3.8,7.6c-0.1,0.3-0.1,0.7,0.1,1
	c0.2,0.2,0.4,0.3,0.7,0.3h0.3l8.6-3c1.7,0.8,3.6,1.3,5.4,1.3c6.9-0.2,12.3-5.9,12.1-12.8c-0.2-6.6-5.5-11.9-12.1-12.1L77.1,410.9z
	 M77.1,433.9c-1.7,0-3.5-0.4-5-1.2c-0.2-0.1-0.5-0.1-0.8,0l-6.7,2.3l3-6c0.1-0.3,0.1-0.6,0-0.8c-0.7-1.5-1.1-3.1-1.1-4.7
	c0-5.8,4.7-10.5,10.6-10.5c5.8,0,10.5,4.7,10.5,10.6S82.9,433.9,77.1,433.9C77,433.9,77,433.9,77.1,433.9L77.1,433.9z"/>
<path class="st2" d="M77.2,428.6c-0.6,0-1,0.4-1,1s0.4,1,1,1s1-0.4,1-1S77.8,428.6,77.2,428.6z"/>
<path class="st2" d="M37.4,444.6L37.4,444.6c-0.5,0-0.9-0.5-0.9-1c0,0,0,0,0,0v-0.4c0-4.2,3.4-7.6,7.7-7.6c0.5,0.1,0.9,0.5,0.8,1
	c0,0.4-0.4,0.8-0.8,0.8c-3.2,0-5.8,2.6-5.8,5.8l0,0v0.4C38.4,444.1,37.9,444.6,37.4,444.6C37.4,444.6,37.4,444.6,37.4,444.6z"/>
<path class="st2" d="M57.7,464.6V451c0-2.7-2.1-4.8-4.8-4.9h-5.7c-2.7,0-4.8,2.2-4.8,4.8v13.7h1.9v-13.7c0-1.6,1.4-3,3-3h5.7
	c1.6,0,2.9,1.3,3,3v13.7L57.7,464.6L57.7,464.6z"/>
<path class="st3" d="M71.8,467.3H28.2c-1.3,0.2-2.2,1.3-2.1,2.6v2c-0.1,1.3,0.8,2.4,2.1,2.6h43.5c1.3-0.2,2.2-1.3,2.1-2.6v-2
	C73.9,468.6,73,467.4,71.8,467.3z"/>
<circle class="st1" cx="50" cy="46.6" r="45"/>
<path class="st3" d="M24.1,25.3h51.8c0.6,0,1.1,0.5,1.1,1.1v40.4c0,0.6-0.5,1.1-1.1,1.1H24.1c-0.6,0-1.1-0.5-1.1-1.1V26.4
	C23,25.8,23.5,25.3,24.1,25.3z"/>
<path class="st3" d="M24.1,25.3H50v42.6H24.1c-0.6,0-1.1-0.5-1.1-1.1c0,0,0,0,0,0l0,0V26.4C23,25.8,23.5,25.3,24.1,25.3
	C24.1,25.3,24.1,25.3,24.1,25.3z"/>
<path class="st2" d="M71.1,33.8H55.9c-0.5,0-0.9-0.4-0.9-0.9l0,0l0,0c0-0.5,0.4-1,0.9-1h15.2c0.6,0,1,0.4,1,1
	C72,33.4,71.6,33.8,71.1,33.8z"/>
<path class="st2" d="M71.1,41.1H55.9c-0.5,0-0.9-0.4-0.9-0.9s0.4-0.9,0.9-0.9h15.2c0.5,0,0.9,0.4,0.9,0.9S71.6,41.1,71.1,41.1z"/>
<path class="st2" d="M71.1,48.4H55.9c-0.5,0-0.9-0.4-0.9-0.9l0,0c0-0.5,0.4-1,0.9-1h15.2c0.6,0,1,0.4,1,1C72,48,71.6,48.4,71.1,48.4
	z"/>
<path class="st2" d="M71.1,55.7H55.9c-0.5-0.1-0.9-0.5-0.8-1c0-0.4,0.4-0.8,0.8-0.8h15.2c0.5,0.1,0.9,0.5,0.8,1
	C71.9,55.3,71.5,55.7,71.1,55.7z"/>
<path class="st2" d="M71.1,63H55.9c-0.5,0-0.9-0.4-0.9-0.9l0,0l0,0c0-0.5,0.4-0.9,0.9-1h15.2c0.5,0,1,0.4,1,1
	C72,62.6,71.6,63,71.1,63z"/>
<path class="st2" d="M44.1,33.8H28.9c-0.5,0-0.9-0.4-0.9-0.9c0,0,0,0,0,0l0,0c0-0.5,0.4-1,0.9-1h15.2c0.6,0,1,0.4,1,1
	C45.1,33.4,44.6,33.8,44.1,33.8z"/>
<path class="st2" d="M44.1,41.1H28.9c-0.5,0-0.9-0.4-0.9-0.9s0.4-0.9,0.9-0.9l0,0h15.2c0.5,0,0.9,0.4,0.9,0.9S44.6,41.1,44.1,41.1z"
	/>
<path class="st2" d="M44.1,48.4H28.9c-0.5,0-0.9-0.4-0.9-0.9l0,0c0-0.5,0.4-1,0.9-1h15.2c0.5-0.1,1,0.3,1,0.8c0.1,0.5-0.3,1-0.8,1
	C44.2,48.4,44.2,48.4,44.1,48.4L44.1,48.4z"/>
<path class="st2" d="M44.1,55.7H28.9c-0.5,0.1-1-0.3-1-0.8c-0.1-0.5,0.3-1,0.8-1c0.1,0,0.1,0,0.2,0h15.2c0.5,0.1,0.9,0.5,0.8,1
	C44.9,55.3,44.6,55.7,44.1,55.7z"/>
<path class="st2" d="M44.1,63H28.9c-0.5,0-0.9-0.4-0.9-0.9l0,0c0-0.5,0.4-0.9,0.9-1h15.2c0.5,0,1,0.4,1,1C45.1,62.6,44.6,63,44.1,63
	z"/>
<path class="st2" d="M70.8,14.2c-0.5,0.2-0.9,0.5-1.2,0.8c-0.7,0.7-1.2,1.7-1.2,2.7c0,0.1,0,0.2,0,0.4v0.2c0,0.1,0,0.3,0,0.4v0.2
	c0.1,0.7,0.2,1.4,0.4,2c0.1,0.4,0.5,0.7,0.9,0.8h0.2c0.5-0.1,0.8-0.6,0.7-1.1c0,0,0,0,0,0l0,0c-0.1-0.6-0.2-1.3-0.4-2v-0.8
	c0-0.5,0.2-1,0.6-1.4c0.2-0.2,0.4-0.3,0.7-0.4c0.4-0.3,0.5-0.9,0.2-1.3C71.4,14.3,71.1,14.2,70.8,14.2L70.8,14.2z"/>
<path class="st2" d="M89.8,12c-1.5-1.5-3.6-2.3-5.8-2.3h-0.4c0.5-0.5,0.9-1.1,1.2-1.7C86,5.7,86.1,2.9,85,0.6
	c-0.2-0.4-0.6-0.6-1-0.6c-2.6,0.4-4.9,2-6.1,4.4c-0.2,0.5-0.5,1-0.6,1.5c-0.4-0.7-0.9-1.3-1.5-1.9c-0.4-0.3-1-0.3-1.3,0
	c-0.4,0.4-0.4,1,0,1.3c1.5,1.5,2.4,3.5,2.7,5.6c-0.6-0.1-1.1-0.2-1.7-0.4c-0.9-0.4-1.9-0.6-2.9-0.6h-0.1c-4.4,0-8,3.5-8.1,7.9v0.5
	c0,0.1,0,0.2,0,0.3v0.3c0,0.3,0,0.6,0.1,0.8c0.1,0.7,0.3,1.7,0.5,2.7c0.1,0.5,0.6,0.8,1.1,0.7l0,0c0.5-0.1,0.8-0.6,0.7-1
	c0,0,0,0,0,0l0,0c-0.2-1.1-0.4-2-0.5-2.6c-0.1-0.2-0.1-0.5-0.1-0.7v-0.2c0-0.2,0-0.4,0-0.5c0.1-3.4,2.9-6.2,6.3-6.1c0,0,0,0,0,0l0,0
	c0.8,0,1.5,0.2,2.2,0.5c1,0.4,2,0.6,3.1,0.6h0.3c1.3,0,2.5-0.2,3.7-0.7c0.7-0.3,1.5-0.4,2.2-0.5c1.6,0,3.2,0.6,4.4,1.8
	c1.2,1.1,1.9,2.7,1.9,4.4v0.8c0,0.2,0,0.5-0.1,0.7C88.6,28.1,86.1,34,83.7,34c-0.8,0-1.5-0.2-2.2-0.4l-0.6-0.2
	c-0.5-0.1-1,0.2-1.1,0.7c0,0,0,0,0,0l0,0c-0.1,0.5,0.2,1,0.7,1.1l0.6,0.2c0.9,0.3,1.8,0.4,2.7,0.5c4.8,0,7.3-10.2,8.3-16.3
	c0.1-0.3,0.1-0.5,0.1-0.8v-0.3c0-0.1,0-0.2,0-0.3v-0.5C92.2,15.6,91.3,13.5,89.8,12z M79.6,5.2c0.8-1.6,2.3-2.8,4.1-3.2
	c1.1,3.4-0.7,7.1-4.2,8.2c0,0,0,0,0,0l-0.3,0.1C78.5,8.7,78.7,6.8,79.6,5.2z"/>
<path class="st2" d="M14.6,57c-2,0-3.7-1.6-3.7-3.7c0-2,1.6-3.7,3.7-3.7c2,0,3.7,1.6,3.7,3.7c0,0,0,0,0,0l0,0
	C18.3,55.4,16.7,57,14.6,57z M14.6,51.6c-1,0-1.8,0.8-1.8,1.8c0,1,0.8,1.8,1.8,1.8s1.8-0.8,1.8-1.8l0,0
	C16.4,52.4,15.6,51.6,14.6,51.6z"/>
<path class="st2" d="M20.8,24.1c-0.3,0-0.6-0.1-0.8-0.4l-9.8-11.9c-0.3-0.4-0.2-1,0.1-1.3c0.4-0.3,1-0.3,1.3,0.1l9.8,11.9
	c0.3,0.4,0.3,1-0.1,1.3C21.2,24,21,24.1,20.8,24.1z"/>
<path class="st2" d="M22.5,14.6c-0.4,0-0.8-0.3-0.9-0.7l-1.2-5.3c-0.1-0.5,0.2-1,0.7-1.1l0,0c0.5-0.1,1,0.2,1.1,0.7l1.2,5.3
	c0.1,0.5-0.2,1-0.7,1.1L22.5,14.6z"/>
<path class="st2" d="M24.5,23.5c-0.4,0-0.8-0.3-0.9-0.7l-1.4-6c-0.1-0.5,0.2-1,0.7-1.1c0.5-0.1,1,0.2,1.1,0.7l0,0l1.4,6
	c0.1,0.5-0.2,1-0.7,1.1L24.5,23.5L24.5,23.5z"/>
<path class="st2" d="M12.7,25.8c-0.1,0-0.2,0-0.3,0l-6.1-2.1c-0.5-0.2-0.7-0.7-0.5-1.2C6,22,6.5,21.7,7,21.9l0,0l0,0l6.1,2.1
	c0.5,0.2,0.7,0.7,0.5,1.2C13.4,25.6,13.1,25.8,12.7,25.8L12.7,25.8z"/>
<path class="st2" d="M20.4,28.4c-0.1,0-0.2,0-0.3,0l-4.5-1.5c-0.5-0.1-0.8-0.7-0.6-1.2c0.1-0.5,0.7-0.8,1.2-0.6h0.1l4.5,1.5
	c0.5,0.2,0.7,0.7,0.5,1.2C21.1,28.1,20.7,28.4,20.4,28.4z"/>
<path class="st2" d="M90.8,80.6c-0.2,0-0.4-0.1-0.6-0.2l-2.7-2.2c-0.4-0.3-0.4-0.9-0.1-1.3c0.3-0.4,0.9-0.4,1.3-0.1l0,0l2.7,2.3
	c0.4,0.3,0.4,0.9,0.1,1.3c0,0,0,0,0,0l0,0C91.3,80.5,91.1,80.6,90.8,80.6z"/>
<path class="st2" d="M85.7,76.4c-0.2,0-0.4-0.1-0.6-0.2l-6.8-5.6c-0.4-0.3-0.4-0.9-0.1-1.3c0.3-0.4,0.9-0.5,1.3-0.1c0,0,0,0,0,0l0,0
	l6.8,5.6c0.4,0.3,0.5,0.9,0.2,1.3C86.3,76.3,86,76.4,85.7,76.4L85.7,76.4z"/>
<path class="st2" d="M93.8,70.3h-0.2l-8.3-1.8c-0.5-0.1-0.8-0.6-0.7-1.1c0,0,0,0,0,0c0.1-0.5,0.6-0.8,1.1-0.7c0,0,0,0,0,0l0,0
	l8.4,1.9c0.5,0.1,0.8,0.6,0.7,1.1c0,0,0,0,0,0l0,0C94.6,70,94.2,70.3,93.8,70.3z"/>
<path class="st2" d="M85.5,68.4h-0.2l-6-1.3c-0.5-0.1-0.8-0.6-0.7-1.1s0.6-0.8,1.1-0.7l0,0l6,1.3c0.5,0.1,0.8,0.6,0.7,1.1
	C86.3,68.1,85.9,68.4,85.5,68.4z"/>
<path class="st2" d="M79.3,84.9c-0.4,0-0.8-0.2-0.9-0.6l-4.7-13.7c-0.2-0.5,0.1-1,0.6-1.2c0.5-0.1,1,0.1,1.2,0.6l4.7,13.7
	c0.2,0.5-0.1,1-0.5,1.2c0,0,0,0,0,0C79.6,84.9,79.5,84.9,79.3,84.9z"/>
<path class="st2" d="M63.5,74.5H31.6L26.8,77c-0.3,0.2-0.5,0.5-0.5,0.8c0,0.3,0.2,0.7,0.4,0.8l4.9,3.1l0,0c0.2,0.1,0.3,0.1,0.5,0.1
	h31.4c0.5,0,0.9-0.4,0.9-0.9c0,0,0,0,0,0l0,0v-5.4C64.4,75,64,74.5,63.5,74.5C63.5,74.5,63.5,74.5,63.5,74.5z M55,80.1H33.7l1-1.7
	c0.2-0.3,0.2-0.7,0-1l-0.7-1h21V80.1z M31.9,76.8l1,1.3l-1,1.7l-2.6-1.7L31.9,76.8z M56.9,76.5h1.7v3.6h-1.7L56.9,76.5z M62.6,80.2
	h-2.3v-3.8h2.2L62.6,80.2z"/>
<path class="st2" d="M41.7,14.3h-2.6v-2.5c0-0.5-0.4-0.9-0.9-0.9s-0.9,0.4-0.9,0.9v2.5h-2.5c-0.5,0.1-0.9,0.5-0.8,1
	c0,0.4,0.4,0.8,0.8,0.8h2.5v2.5c0,0.5,0.4,0.9,0.9,0.9s0.9-0.4,0.9-0.9v-2.6h2.6c0.5,0,0.9-0.4,0.9-0.9
	C42.6,14.6,42.2,14.2,41.7,14.3C41.7,14.2,41.7,14.2,41.7,14.3L41.7,14.3z"/>
<circle class="st2" cx="52" cy="11.6" r="1.4"/>
<circle class="st2" cx="86.4" cy="54.8" r="1.4"/>
<circle class="st2" cx="14.6" cy="37.9" r="1.4"/>
<g>
	<defs>
		<path id="SVGID_21_" d="M24.1,25.3h51.8c0.6,0,1.1,0.5,1.1,1.1v40.4c0,0.6-0.5,1.1-1.1,1.1H24.1c-0.6,0-1.1-0.5-1.1-1.1V26.4
			C23,25.8,23.5,25.3,24.1,25.3z"/>
	</defs>
	<clipPath id="SVGID_22_">
		<use xlink:href="#SVGID_21_"  style="overflow:visible;"/>
	</clipPath>
	<g class="st15">
		<path class="st2" d="M50,68.9c-0.5,0-0.9-0.4-0.9-0.9V25.3c0.1-0.5,0.5-0.9,1-0.8c0.4,0,0.8,0.4,0.8,0.8l0,0v42.6
			C51,68.4,50.6,68.9,50,68.9C50.1,68.9,50,68.9,50,68.9L50,68.9z"/>
	</g>
</g>
<circle class="st1" cx="50" cy="1778.5" r="45"/>
<path class="st2" d="M75.5,1803.2c-2,0-3.7-1.6-3.7-3.7c0-2,1.6-3.7,3.7-3.7c2,0,3.7,1.6,3.7,3.7c0,0,0,0,0,0
	C79.2,1801.6,77.5,1803.2,75.5,1803.2z M75.5,1797.7c-1,0-1.8,0.8-1.8,1.8c0,1,0.8,1.8,1.8,1.8s1.8-0.8,1.8-1.8c0,0,0,0,0,0
	C77.3,1798.6,76.5,1797.8,75.5,1797.7L75.5,1797.7z"/>
<path class="st2" d="M20.6,1790.1c-2,0-3.7-1.7-3.7-3.7c0-2,1.7-3.7,3.7-3.7c2,0,3.7,1.7,3.7,3.7
	C24.3,1788.5,22.7,1790.1,20.6,1790.1z M20.6,1784.6c-1,0-1.8,0.8-1.8,1.8c0,1,0.8,1.8,1.8,1.8c1,0,1.8-0.8,1.8-1.8
	S21.6,1784.6,20.6,1784.6C20.6,1784.6,20.6,1784.6,20.6,1784.6z"/>
<path class="st2" d="M50.6,1813.8l1.8-1.8c0.4-0.4,0.4-1,0-1.3c-0.4-0.3-1-0.3-1.3,0l-1.8,1.8l-1.8-1.8c-0.3-0.4-0.9-0.4-1.3-0.1
	c0,0,0,0,0,0c-0.4,0.3-0.4,0.9-0.1,1.3l0.1,0.1l1.8,1.8l-1.8,1.8c-0.4,0.3-0.4,0.9-0.1,1.3c0.3,0.4,0.9,0.4,1.3,0.1l0.1-0.1l1.8-1.8
	l1.8,1.8c0.2,0.2,0.4,0.3,0.7,0.3c0.5,0,1-0.4,1-0.9c0-0.3-0.1-0.6-0.3-0.8L50.6,1813.8z"/>
<circle class="st2" cx="66.1" cy="1810" r="1.4"/>
<circle class="st2" cx="12" cy="1778.6" r="1.4"/>
<path class="st3" d="M70.7,1769.1c-1-8.3-11-14-22.3-12.7c-6.6,0.8-13.6,3.8-16.9,10c-4.2,7.8-1.9,17.2,2.9,24.3
	c4.4,6.7,13.3,14.8,22,12c4.6-1.5,7.9-5.7,8.2-10.5c0.1-1.4-0.1-2.9-0.5-4.2c-0.8-2.7,0-5.5,2-7.4
	C69.4,1777.7,71.1,1773.4,70.7,1769.1z"/>
<circle class="st1" cx="52.7" cy="1791.3" r="5"/>
<path class="st2" d="M60.5,1772.3c-2.2,0.1-4.1-1.6-4.2-3.8c-0.1-2.2,1.6-4.1,3.8-4.2c2.2-0.3,4.2,1.3,4.5,3.5s-1.3,4.2-3.5,4.5
	H60.5z M60.5,1766.1h-0.3c-1.2,0.1-2,1.2-1.9,2.4c0.1,1.2,1.2,2,2.4,1.9l0,0c0.6-0.1,1.1-0.4,1.4-0.8c0.4-0.4,0.5-1,0.5-1.6l0,0
	C62.5,1767,61.6,1766.2,60.5,1766.1L60.5,1766.1z"/>
<path class="st2" d="M49.3,1768.1c-2.2,0-4-1.8-4-4c0-0.9,0.3-1.8,0.9-2.5l0,0c1.3-1.8,3.9-2.1,5.6-0.7c0.9,0.7,1.4,1.7,1.5,2.7
	c0.3,2.2-1.3,4.2-3.5,4.5c0,0,0,0,0,0H49.3z M49.3,1761.9H49c-0.6,0.1-1.1,0.4-1.4,0.8c-0.7,1-0.6,2.3,0.4,3.1
	c0.5,0.4,1.1,0.5,1.7,0.4c0.6-0.1,1.1-0.4,1.4-0.8c0.4-0.5,0.5-1.1,0.5-1.7c-0.1-0.6-0.4-1.1-0.8-1.4
	C50.3,1762.1,49.8,1761.9,49.3,1761.9L49.3,1761.9z"/>
<path class="st2" d="M38.9,1774.3c-2,0-3.8-1.5-4-3.5c-0.1-1.1,0.2-2.2,0.8-3c0.6-0.8,1.6-1.4,2.7-1.5c2.2-0.3,4.2,1.3,4.5,3.4
	c0,0,0,0,0,0l0,0c0.3,2.2-1.2,4.2-3.4,4.5c0,0,0,0-0.1,0L38.9,1774.3z M38.9,1768.1h-0.3c-1.2,0.1-2,1.2-1.9,2.4
	c0.1,1.2,1.2,2,2.4,1.9l0,0l0,0c0.6-0.1,1.1-0.4,1.4-0.8c0.4-0.5,0.5-1.1,0.4-1.7l0,0c-0.1-0.6-0.4-1.1-0.8-1.4
	C39.8,1768.2,39.4,1768.1,38.9,1768.1L38.9,1768.1z"/>
<path class="st2" d="M39.3,1785.3c-0.9,0-1.8-0.3-2.5-0.8c-1.8-1.3-2.1-3.8-0.8-5.6c0.7-0.9,1.7-1.4,2.8-1.6c1.1-0.1,2.2,0.2,3,0.8
	c0.8,0.6,1.4,1.6,1.5,2.7c0.3,2.2-1.3,4.2-3.5,4.5c0,0,0,0,0,0l0,0C39.7,1785.3,39.5,1785.3,39.3,1785.3z M39.3,1779.1H39
	c-0.6,0.1-1.1,0.4-1.4,0.8c-0.7,0.9-0.6,2.3,0.4,3c0.4,0.4,1,0.5,1.6,0.4c0.6-0.1,1.1-0.4,1.4-0.8c0.4-0.5,0.5-1.1,0.4-1.7
	c-0.1-1.1-1-1.9-2.1-1.9L39.3,1779.1z"/>
<path class="st2" d="M74.4,1745.1c-2.3-1.8-5.4-4-7.4-4c-1.5,0-2.8,0.6-3.8,1.7c-0.9-0.2-2.8-0.4-5.2-0.6h-0.1
	c-1.2,0-2.4-0.2-3.7-0.2c-4.1,0-14.4,1.3-18.6,1.8c-1.6,0.2-2.8,1.6-2.6,3.3c0.2,1.4,1.2,2.4,2.6,2.6c4.2,0.6,14.5,1.8,18.6,1.8
	c1.3,0,2.5,0,3.8-0.1l0,0c1.9-0.1,3.8-0.3,5.7-0.7l0,0c1,0.8,2.2,1.3,3.5,1.3c2,0,5.1-2.2,7.4-4c0.4-0.3,0.7-0.8,0.7-1.4
	C75.1,1745.9,74.9,1745.4,74.4,1745.1z M35.8,1747.8c-0.5-0.1-0.9-0.5-0.9-1.1c0-0.5,0.4-1,0.9-1.1c4.2-0.5,14.3-1.8,18.3-1.8H57
	v5.6h-2.8C50.2,1749.5,40,1748.2,35.8,1747.8L35.8,1747.8z M61.6,1749c-0.6,0.1-1.5,0.2-2.8,0.3v-5.3c1.2,0.1,2.2,0.3,2.8,0.4V1749z
	 M67,1750c-1.9,0-3.5-1.6-3.5-3.5s1.6-3.5,3.5-3.5c1.1,0,3.5,1.4,6.2,3.3C70.5,1748.6,68.1,1750,67,1750L67,1750z"/>
<path class="st2" d="M34.4,1796.2H9.8c-0.5,0-0.9,0.4-0.9,0.9l0,0l0,0v17.9c0,0.5,0.4,0.9,0.9,0.9c0,0,0,0,0,0h24.6
	c0.5,0,0.9-0.4,0.9-0.9l0,0v-17.9C35.3,1796.7,34.9,1796.2,34.4,1796.2C34.4,1796.2,34.4,1796.2,34.4,1796.2z M10.7,1798.1h22.7v3.6
	l-4.9,6.3l-2.1-2c-0.2-0.2-0.5-0.3-0.7-0.3c-0.3,0-0.5,0.2-0.7,0.4l-5.7,8.1h-8.7V1798.1z M21.7,1814.1l4.3-6.1l2,2
	c0.2,0.2,0.5,0.3,0.7,0.3c0.3,0,0.5-0.2,0.7-0.4l4-5.2v9.4L21.7,1814.1z"/>
<path class="st2" d="M21.5,1804.9c0-2.5-2-4.5-4.5-4.5s-4.5,2-4.5,4.5c0,2.5,2,4.5,4.5,4.5c0,0,0,0,0,0
	C19.5,1809.5,21.5,1807.4,21.5,1804.9L21.5,1804.9z M14.3,1804.9c0-1.5,1.2-2.7,2.6-2.7c1.5,0,2.7,1.2,2.7,2.7
	c0,1.5-1.2,2.7-2.6,2.7c0,0,0,0,0,0C15.5,1807.6,14.3,1806.4,14.3,1804.9z"/>
<path class="st2" d="M80.9,1785.4c-3.4,0.2-6.7-0.4-9.7-2c-0.5-0.2-1-0.1-1.3,0.4c0,0,0,0,0,0c-0.2,0.5-0.1,1,0.4,1.3c0,0,0,0,0,0
	c2.8,1.5,6,2.2,9.1,2.2h1.6c0.5,0,0.9-0.5,0.9-1c0,0,0,0,0,0l0,0C81.9,1785.8,81.5,1785.4,80.9,1785.4L80.9,1785.4z"/>
<path class="st2" d="M84.1,1772.8H84c-3.3-1.8-5.3-3.5-5-6.7c0.2-2,1-3.8,2.3-5.3c0.4-0.4,0.4-1,0-1.3c-0.4-0.4-1-0.4-1.3,0
	c-1.6,1.8-2.6,4-2.8,6.4c-0.3,4.4,2.8,6.7,6.1,8.4h0.2c3.8,2,6.7,3.9,5.2,7.1c-0.9,1.7-2.5,2.9-4.3,3.3c-0.5,0.2-0.8,0.7-0.7,1.2
	c0.1,0.4,0.5,0.7,0.9,0.7h0.3c2.4-0.7,4.4-2.3,5.5-4.4C92.5,1777.2,87.3,1774.4,84.1,1772.8z"/>
<path class="st2" d="M94.5,1747.8c-1.7-4-9.7-2.9-14.4-2.3c-1,0.1-1.8,0.2-2.2,0.2c-0.5,0-0.9,0.4-0.9,0.9c0,0.5,0.4,0.9,0.9,0.9
	c0,0,0,0,0,0l0,0c0.8,0,1.6-0.1,2.4-0.2c3.3-0.5,11.3-1.5,12.4,1.2c0.4,0.8,0.4,1.7,0,2.5c-1.3,2.9-6.7,4.9-8.3,5.4
	c-0.5,0.2-1.1,0.4-1.6,0.7c-0.5,0.2-0.6,0.8-0.4,1.2c0,0,0,0,0,0c0.2,0.3,0.5,0.5,0.8,0.5c0.1,0,0.3,0,0.4-0.1
	c0.4-0.2,0.8-0.4,1.3-0.5c2.3-0.8,7.8-2.8,9.5-6.4C95.1,1750.5,95.1,1749,94.5,1747.8z"/>
<g>
	<defs>
		<circle id="SVGID_23_" cx="50" cy="1778.4" r="45"/>
	</defs>
	<clipPath id="SVGID_24_">
		<use xlink:href="#SVGID_23_"  style="overflow:visible;"/>
	</clipPath>
	<g class="st16">
		<path class="st2" d="M27,1766.9c-0.2,0-0.3-0.1-0.5-0.2l-21.2-13.2c-0.4-0.3-0.6-0.9-0.3-1.3c0.3-0.4,0.9-0.6,1.3-0.3l21.2,13.2
			c0.4,0.3,0.6,0.8,0.3,1.3c0,0,0,0,0,0l0,0C27.6,1766.7,27.3,1766.9,27,1766.9z"/>
		<path class="st2" d="M22.7,1751.6c-0.3,0-0.6-0.2-0.8-0.4l-4.1-6.7c-0.4-0.4-0.4-1,0-1.4s1-0.4,1.4,0c0.1,0.1,0.2,0.2,0.2,0.4
			l4.1,6.7c0.3,0.4,0.1,1-0.3,1.3c0,0,0,0,0,0l0,0C23.1,1751.6,22.9,1751.6,22.7,1751.6z"/>
		<path class="st2" d="M29.5,1763c-0.3,0-0.6-0.2-0.8-0.4l-4.6-7.6c-0.3-0.4-0.1-1,0.3-1.3l0,0c0.4-0.3,1-0.1,1.3,0.3l4.6,7.6
			c0.3,0.4,0.1,1-0.3,1.3l0,0C29.9,1762.9,29.7,1762.9,29.5,1763z"/>
		<path class="st2" d="M14.5,1771.4H5.2c-0.5,0-0.9-0.5-0.9-1c0-0.5,0.4-0.9,0.9-0.9c0,0,0,0,0,0h9.3c0.5,0,0.9,0.4,0.9,0.9
			c0,0,0,0,0,0l0,0C15.4,1770.9,15,1771.4,14.5,1771.4z"/>
		<path class="st2" d="M26.1,1771.5h-6.9c-0.5,0-0.9-0.5-0.9-1c0-0.5,0.4-0.9,0.9-0.9h6.9c0.5,0.1,0.9,0.5,0.8,1
			C26.9,1771,26.5,1771.4,26.1,1771.5L26.1,1771.5L26.1,1771.5z"/>
	</g>
</g>
<circle class="st1" cx="50" cy="1247.8" r="45"/>
<path class="st2" d="M50,1209.9c-0.5,0-0.9-0.4-0.9-0.9c0,0,0,0,0,0v-10.2c0.1-0.5,0.5-0.9,1-0.8c0.4,0,0.8,0.4,0.8,0.8l0,0v10.2
	C51,1209.5,50.6,1210,50,1209.9C50.1,1210,50,1210,50,1209.9L50,1209.9z"/>
<path class="st2" d="M50,1218.5c-0.5,0-0.9-0.4-0.9-0.9v-4.3c-0.1-0.5,0.3-1,0.8-1c0.5-0.1,1,0.3,1,0.8c0,0.1,0,0.1,0,0.2l0,0v4.3
	C50.9,1218,50.5,1218.5,50,1218.5C50,1218.5,50,1218.5,50,1218.5z"/>
<path class="st2" d="M13.6,1226.1c-0.2,0-0.3,0-0.5-0.1l-6.1-3.5c-0.4-0.3-0.6-0.8-0.3-1.3c0.2-0.4,0.8-0.6,1.3-0.3c0,0,0,0,0,0h0
	l6.1,3.5c0.4,0.2,0.6,0.8,0.4,1.2c0,0,0,0,0,0l0,0C14.3,1225.9,13.9,1226.1,13.6,1226.1z"/>
<path class="st2" d="M25.9,1233.2c-0.2,0-0.3-0.1-0.5-0.1l-9.2-5.3c-0.4-0.4-0.4-1,0-1.4c0.2-0.2,0.6-0.3,0.9-0.3l9.2,5.3
	c0.5,0.2,0.6,0.8,0.4,1.3c0,0,0,0,0,0l-0.1,0.1C26.5,1233,26.2,1233.2,25.9,1233.2z"/>
<g>
	<defs>
		<circle id="SVGID_25_" cx="50" cy="1247.8" r="45"/>
	</defs>
	<clipPath id="SVGID_26_">
		<use xlink:href="#SVGID_25_"  style="overflow:visible;"/>
	</clipPath>
	<g class="st17">
		<path class="st2" d="M35.8,1222.6c-0.3,0-0.6-0.2-0.8-0.5l-10.4-17.9c-0.1-0.5,0.2-1.1,0.8-1.2c0.3-0.1,0.7,0,0.9,0.2l0,0
			l10.4,17.8c0.3,0.4,0.1,1-0.3,1.3c0,0,0,0,0,0l0,0C36.2,1222.5,36,1222.5,35.8,1222.6z"/>
		<path class="st2" d="M20.7,1243.6L20.7,1243.6L5,1243.5c-0.5,0-0.9-0.4-0.9-0.9c0,0,0,0,0,0c0-0.5,0.4-0.9,0.9-0.9h0l15.6,0.2
			c0.5-0.1,1,0.3,1.1,0.8c0,0,0,0,0,0c0,0.1,0,0.1,0,0.2C21.6,1243.3,21.2,1243.7,20.7,1243.6C20.7,1243.6,20.7,1243.6,20.7,1243.6
			L20.7,1243.6z"/>
		<path class="st2" d="M79.1,1243.6c-0.5,0-1-0.4-1-0.9c0-0.5,0.3-1,0.9-1c0,0,0,0,0.1,0l0,0l16-0.2c0.5,0,1,0.3,1,0.8c0,0,0,0,0,0
			v0.1c0,0.5-0.3,1-0.8,1c0,0,0,0-0.1,0l0,0L79.1,1243.6L79.1,1243.6z"/>
		<path class="st2" d="M64.2,1222.6c-0.2,0-0.3-0.1-0.5-0.1c-0.4-0.3-0.6-0.8-0.3-1.3c0,0,0,0,0,0l0,0l10.4-18
			c0.1-0.5,0.6-0.9,1.2-0.8s0.9,0.6,0.8,1.2c0,0.2-0.1,0.4-0.3,0.5l-10.4,18C64.8,1222.4,64.5,1222.6,64.2,1222.6z"/>
	</g>
</g>
<path class="st2" d="M86.4,1226.1c-0.3,0-0.7-0.2-0.8-0.5c-0.3-0.4-0.1-1,0.3-1.3c0,0,0,0,0,0l0,0l6.1-3.5c0.4-0.4,1-0.4,1.4,0
	c0.4,0.4,0.4,1,0,1.4c-0.1,0.1-0.3,0.2-0.5,0.3l-6.1,3.5C86.7,1226.1,86.6,1226.1,86.4,1226.1z"/>
<path class="st2" d="M74.1,1233.2c-0.3,0-0.6-0.2-0.8-0.4c-0.2-0.4-0.1-1,0.3-1.3l9.2-5.4c0.4-0.4,1-0.4,1.4,0c0.4,0.4,0.4,1,0,1.4
	c-0.1,0.1-0.3,0.2-0.5,0.3l0,0l-9.2,5.3C74.5,1233.1,74.3,1233.2,74.1,1233.2z"/>
<circle class="st2" cx="79" cy="1268.7" r="1.4"/>
<circle class="st2" cx="50.4" cy="1284.2" r="1.4"/>
<circle class="st2" cx="15" cy="1254.2" r="1.4"/>
<path class="st2" d="M82.4,1259.4c-2,0-3.7-1.6-3.7-3.7c0-2,1.6-3.7,3.7-3.7s3.7,1.6,3.7,3.7c0,0,0,0,0,0
	C86,1257.8,84.4,1259.4,82.4,1259.4z M82.4,1253.9c-0.5,0.5-0.5,1.3,0.1,1.8c0.5,0.5,1.3,0.5,1.8-0.1c0.5-0.5,0.5-1.3-0.1-1.8
	C83.7,1253.4,82.9,1253.4,82.4,1253.9L82.4,1253.9L82.4,1253.9z"/>
<path class="st2" d="M22,1269.1c-2,0-3.7-1.6-3.7-3.7c0-2,1.6-3.7,3.7-3.7c2,0,3.7,1.6,3.7,3.7S24.1,1269.1,22,1269.1
	C22.1,1269.1,22.1,1269.1,22,1269.1z M22,1263.7c-1,0-1.8,0.8-1.8,1.8c0,1,0.8,1.8,1.8,1.8c1,0,1.8-0.8,1.8-1.8
	C23.8,1264.5,23,1263.7,22,1263.7z"/>
<path class="st3" d="M74.6,1242.8c0-2.4-4.5-4.1-5.2-6.3s1.9-6.3,0.5-8.2s-6-0.6-7.9-2s-2.1-6.2-4.3-6.9c-0.2,0-0.4,0-0.6,0
	c-2.1,0-4.8,3.2-7,3.2s-4.9-3.2-7-3.2c-0.2,0-0.4,0-0.6,0c-2.3,0.7-2.5,5.6-4.3,6.9s-6.5,0.1-7.9,2s1.3,5.9,0.5,8.2
	s-5.2,3.9-5.2,6.3s4.5,4.1,5.2,6.3s-1.9,6.3-0.5,8.2s6,0.6,7.9,2s2.1,6.2,4.3,6.9c0.2,0,0.4,0,0.6,0c2.1,0,4.8-3.2,7-3.2
	s4.9,3.2,7,3.2c0.2,0,0.4,0,0.6,0c2.3-0.7,2.5-5.6,4.3-6.9s6.6-0.1,7.9-2s-1.3-5.9-0.5-8.2S74.6,1245.3,74.6,1242.8z"/>
<path class="st2" d="M50,1256.8c-7.7-0.3-13.7-6.8-13.4-14.5c0.3-7.3,6.1-13.1,13.4-13.4c0.5,0,0.9,0.4,0.9,0.9l0,0
	c0,0.5-0.4,1-0.9,1c-6.7,0-12.1,5.4-12.1,12.1c0,6.7,5.4,12.1,12.1,12.1s12.1-5.4,12.1-12.1c0,0,0,0,0,0l0,0c0-0.5,0.4-0.9,0.9-0.9
	c0,0,0,0,0,0l0,0c0.5,0,0.9,0.4,1,0.9l0,0C63.9,1250.6,57.7,1256.7,50,1256.8z"/>
<path class="st2" d="M61.7,1238c-0.4,0-0.7-0.2-0.8-0.5c-0.2-0.4-0.4-0.8-0.7-1.2c-0.3-0.4-0.2-1,0.2-1.3c0,0,0,0,0,0l0,0
	c0.4-0.2,1-0.1,1.3,0.3c0.3,0.4,0.6,0.9,0.8,1.4c0.2,0.5,0,1-0.4,1.3C61.9,1238,61.8,1238,61.7,1238z"/>
<path class="st2" d="M58.3,1233.8c-0.2,0-0.4-0.1-0.6-0.2c-0.9-0.8-2-1.4-3.2-1.9c-0.5-0.2-0.7-0.7-0.5-1.2s0.7-0.7,1.2-0.5
	c1.3,0.5,2.5,1.3,3.6,2.2c0.4,0.3,0.4,0.9,0.1,1.3l0,0C58.9,1233.6,58.6,1233.8,58.3,1233.8z"/>
<path class="st3" d="M47.4,1266.3c-1.3,1-2.8,1.7-4.5,1.8c-0.4,0-0.8-0.1-1.2-0.2c-2.1-0.7-2.9-2.8-3.7-4.8
	c-0.2-0.9-0.6-1.7-1.2-2.4c-0.3-0.2-0.7-0.3-1.1-0.3l-8.5,17.4c-0.2,0.3-0.1,0.7,0.1,1c0.3,0.3,0.7,0.4,1,0.2l7.6-3.2l2.3,7.7
	c0.1,0.4,0.4,0.6,0.8,0.7l0,0c0.4,0,0.7-0.2,0.8-0.5l9-18.5C48.5,1265.6,48,1266,47.4,1266.3z"/>
<path class="st3" d="M64.2,1260.5c-0.4,0-0.8,0.1-1.1,0.3c-0.5,0.7-1,1.6-1.2,2.4c-0.7,1.9-1.6,4.1-3.7,4.8
	c-0.4,0.1-0.8,0.2-1.2,0.2c-1.6-0.2-3.2-0.8-4.5-1.8c-0.5-0.4-1.1-0.7-1.7-1l9,18.5c0.2,0.3,0.5,0.5,0.8,0.5l0,0
	c0.4,0,0.7-0.3,0.8-0.7l2.3-7.7l7.6,3.2c0.5,0.2,1,0,1.2-0.5c0.1-0.3,0.1-0.5,0-0.8L64.2,1260.5z"/>
<circle class="st1" cx="50" cy="1914.3" r="45"/>
<path class="st2" d="M84.5,1904.2H82v-2.5c0-0.5-0.4-0.9-0.9-0.9s-0.9,0.4-0.9,0.9l0,0v2.5h-2.5c-0.5,0.1-0.9,0.5-0.8,1
	c0,0.4,0.4,0.8,0.8,0.8h2.5v2.5c0,0.5,0.4,0.9,0.9,0.9s0.9-0.4,0.9-0.9v-2.5h2.5c0.5,0,0.9-0.4,0.9-0.9
	C85.4,1904.6,85,1904.2,84.5,1904.2C84.5,1904.2,84.5,1904.2,84.5,1904.2L84.5,1904.2L84.5,1904.2z"/>
<path class="st2" d="M28.7,1934.8h-2.5v-2.5c0-0.5-0.4-1-0.9-1c-0.6,0-1,0.4-1,1v2.5h-2.5c-0.5,0-1,0.5-1,1c0,0.5,0.4,0.9,1,0.9h2.5
	v2.5c0,0.5,0.5,0.9,1,0.9c0.5,0,0.9-0.4,0.9-0.9c0,0,0,0,0,0l0,0v-2.5h2.5c0.5,0,0.9-0.4,0.9-0.9c0,0,0,0,0,0l0,0
	C29.7,1935.2,29.3,1934.8,28.7,1934.8z"/>
<circle class="st2" cx="18.5" cy="1902.5" r="1.4"/>
<circle class="st2" cx="77.6" cy="1934.8" r="1.4"/>
<circle class="st2" cx="18.5" cy="1927.3" r="1.4"/>
<path class="st2" d="M15.8,1917.4c-2,0-3.7-1.7-3.7-3.7c0-2,1.7-3.7,3.7-3.7s3.7,1.7,3.7,3.7l0,0
	C19.5,1915.8,17.8,1917.4,15.8,1917.4z M15.8,1912c-1,0-1.8,0.8-1.8,1.8c0,1,0.8,1.8,1.8,1.8c1,0,1.8-0.8,1.8-1.8
	S16.8,1912,15.8,1912C15.8,1912,15.8,1912,15.8,1912z"/>
<path class="st2" d="M65.3,1940.9c-2,0-3.7-1.6-3.7-3.7c0-2,1.6-3.7,3.7-3.7c2,0,3.7,1.6,3.7,3.7c0,0,0,0,0,0
	C69,1939.3,67.4,1940.9,65.3,1940.9z M65.3,1935.5c-1,0-1.8,0.8-1.8,1.8c0,1,0.8,1.8,1.8,1.8c1,0,1.8-0.8,1.8-1.8
	S66.3,1935.5,65.3,1935.5C65.3,1935.5,65.3,1935.5,65.3,1935.5z"/>
<path class="st2" d="M84.5,1926.2c-2,0-3.7-1.6-3.7-3.7c0-2,1.6-3.7,3.7-3.7c2,0,3.7,1.6,3.7,3.7c0,0,0,0,0,0
	C88.2,1924.6,86.5,1926.2,84.5,1926.2z M84.5,1920.7c-1,0-1.8,0.8-1.8,1.8c0,1,0.8,1.8,1.8,1.8c1,0,1.8-0.8,1.8-1.8
	S85.5,1920.7,84.5,1920.7C84.5,1920.7,84.5,1920.7,84.5,1920.7z"/>
<path class="st2" d="M54.5,1947.9h-8.9c-0.5,0-0.9-0.4-0.9-0.9c0,0,0,0,0,0l0,0v-60.9c0-2,1.7-3.7,3.7-3.7h3.3c2,0,3.7,1.6,3.7,3.7
	c0,0,0,0,0,0l0,0v61C55.4,1947.5,55,1947.9,54.5,1947.9C54.5,1947.9,54.4,1947.9,54.5,1947.9L54.5,1947.9z M46.5,1946.1h7v-60
	c0-1-0.8-1.8-1.9-1.8h-3.3c-1,0-1.8,0.8-1.8,1.8L46.5,1946.1z"/>
<path class="st3" d="M64.2,1905.6h-33c-1.4,0-2.6-1.2-2.6-2.6v-9.6c0-1.4,1.1-2.6,2.5-2.6h33c0.7,0,1.4,0.3,1.9,0.8l4.6,5
	c1,1,1,2.6,0,3.6l-4.6,4.6C65.7,1905.3,65,1905.6,64.2,1905.6L64.2,1905.6z"/>
<path class="st2" d="M62.2,1896.3H34.1c-0.5,0.1-1-0.3-1-0.8c-0.1-0.5,0.3-1,0.8-1c0.1,0,0.1,0,0.2,0h28.1c0.5-0.1,1,0.3,1,0.8
	c0.1,0.5-0.3,1-0.8,1C62.3,1896.3,62.2,1896.3,62.2,1896.3z"/>
<path class="st2" d="M62.2,1901.7H34.1c-0.6,0-1-0.4-1-1c0-0.5,0.5-0.9,1-0.9h28.1c0.5,0,0.9,0.4,0.9,0.9l0,0
	C63.1,1901.2,62.7,1901.7,62.2,1901.7z"/>
<path class="st3" d="M35.8,1927.4h33c1.4,0,2.6-1.1,2.6-2.6c0,0,0,0,0,0v-9.6c0-1.4-1.1-2.6-2.6-2.6c0,0,0,0,0,0H35.8
	c-0.7,0-1.4,0.3-1.9,0.8l-4.6,5c-0.9,1-0.9,2.6,0.1,3.6l4.6,4.6C34.4,1927.1,35.1,1927.4,35.8,1927.4z"/>
<path class="st2" d="M66,1918.2H37.8c-0.5,0-0.9-0.4-0.9-0.9c0,0,0,0,0,0l0,0c0-0.5,0.4-1,0.9-1H66c0.5,0,0.9,0.5,0.9,1
	C66.9,1917.8,66.5,1918.2,66,1918.2C66,1918.2,66,1918.2,66,1918.2z"/>
<path class="st2" d="M66,1923.6H37.8c-0.5-0.1-0.9-0.5-0.8-1c0-0.4,0.4-0.8,0.8-0.8H66c0.5-0.1,1,0.3,1,0.8s-0.3,1-0.8,1
	C66.1,1923.6,66.1,1923.6,66,1923.6z"/>
<path class="st2" d="M87.5,1947.9H12.2c-0.5,0-0.9-0.4-0.9-0.9c0-0.5,0.4-0.9,0.9-0.9c0,0,0,0,0,0h75.2c0.5,0,0.9,0.4,0.9,0.9
	C88.4,1947.5,88,1947.9,87.5,1947.9C87.5,1947.9,87.5,1947.9,87.5,1947.9z"/>
<path class="st2" d="M50,1879.7c-0.5,0-0.9-0.4-0.9-0.9l0,0v-2.1c0.1-0.5,0.5-0.9,1-0.8c0.4,0,0.8,0.4,0.8,0.8l0,0v2.1
	C50.9,1879.3,50.5,1879.7,50,1879.7z"/>
<path class="st2" d="M50,1873.3c-0.5,0-0.9-0.4-0.9-0.9l0,0v-7.2c0.1-0.5,0.5-0.9,1-0.8c0.4,0,0.8,0.4,0.8,0.8l0,0v7.2
	C50.9,1872.9,50.5,1873.3,50,1873.3z"/>
<g>
	<defs>
		<circle id="SVGID_27_" cx="50" cy="1914.2" r="45"/>
	</defs>
	<clipPath id="SVGID_28_">
		<use xlink:href="#SVGID_27_"  style="overflow:visible;"/>
	</clipPath>
	<g class="st18">
		<path class="st2" d="M65,1888.5h-0.3c-0.5-0.2-0.8-0.7-0.6-1.2l0,0l4.4-13.8c0.2-0.5,0.7-0.7,1.2-0.5c0.4,0.2,0.7,0.6,0.6,1l0,0
			l-4.3,13.8C65.8,1888.2,65.4,1888.5,65,1888.5z"/>
		<path class="st2" d="M35,1888.4c-0.4,0-0.8-0.3-0.9-0.7l-4.3-13.8c-0.2-0.5,0.1-1,0.6-1.2l0,0c0.5-0.1,1,0.1,1.2,0.6l4.3,13.8
			c0.1,0.5-0.1,1-0.6,1.2c0,0,0,0,0,0C35.2,1888.4,35.1,1888.4,35,1888.4z"/>
	</g>
</g>
<path class="st2" d="M19.2,1888c-0.3,0-0.5-0.1-0.7-0.3l-6.1-6.3c-0.4-0.4-0.4-1,0-1.3c0,0,0,0,0,0c0.3-0.4,0.9-0.4,1.3,0
	c0,0,0,0,0,0l6.1,6.3c0.3,0.4,0.3,1,0,1.3C19.6,1887.8,19.4,1887.9,19.2,1888z"/>
<path class="st2" d="M25.3,1894.3c-0.2,0-0.5-0.1-0.7-0.3l-3.5-3.6c-0.4-0.4-0.4-1,0-1.3c0,0,0,0,0,0l0,0c0.4-0.4,1-0.4,1.3,0
	l3.5,3.6c0.4,0.4,0.4,1,0,1.3c0,0,0,0,0,0l0,0C25.8,1894.2,25.5,1894.3,25.3,1894.3z"/>
<path class="st2" d="M81.1,1888c-0.2,0-0.5-0.1-0.7-0.3c-0.3-0.4-0.3-1,0-1.3l6.1-6.3c0.4-0.4,1-0.4,1.3,0c0.3,0.4,0.3,1,0,1.3
	l-6.2,6.3C81.5,1887.8,81.3,1887.9,81.1,1888z"/>
<path class="st2" d="M73.7,1896c-0.5,0-0.9-0.4-0.9-0.9c0-0.2,0.1-0.5,0.3-0.6l4.8-5.2c0.4-0.4,1-0.4,1.3,0c0.4,0.4,0.4,1,0,1.3
	l-4.8,5.2C74.1,1895.9,73.9,1896,73.7,1896z"/>
<circle class="st1" cx="50" cy="312.4" r="45"/>
<path class="st2" d="M84.5,326.8c-2,0-3.7-1.6-3.7-3.7s1.6-3.7,3.7-3.7s3.7,1.6,3.7,3.7l0,0C88.2,325.1,86.6,326.8,84.5,326.8z
	 M84.5,321.3c-1,0-1.8,0.8-1.8,1.8c0,1,0.8,1.8,1.8,1.8c1,0,1.8-0.8,1.8-1.8C86.3,322.1,85.5,321.3,84.5,321.3
	C84.5,321.3,84.5,321.3,84.5,321.3z"/>
<path class="st2" d="M47.8,282.4c-2,0-3.7-1.6-3.7-3.7s1.6-3.7,3.7-3.7c2,0,3.7,1.6,3.7,3.7C51.4,280.8,49.8,282.4,47.8,282.4
	C47.8,282.4,47.8,282.4,47.8,282.4z M47.8,277c-1,0-1.8,0.8-1.8,1.8s0.8,1.8,1.8,1.8c1,0,1.8-0.8,1.8-1.8l0,0
	C49.5,277.8,48.7,277,47.8,277z"/>
<path class="st2" d="M85.4,304.9h-2.5v-2.5c0.1-0.5-0.3-1-0.8-1s-1,0.3-1,0.8c0,0.1,0,0.1,0,0.2v2.5h-2.5c-0.5,0.1-0.9,0.5-0.8,1
	c0,0.4,0.4,0.8,0.8,0.8H81v2.5c0.1,0.5,0.5,0.9,1,0.8c0.4,0,0.8-0.4,0.8-0.8v-2.5h2.5c0.5,0,0.9-0.4,0.9-0.9c0,0,0,0,0,0
	C86.4,305.3,86,304.9,85.4,304.9L85.4,304.9z"/>
<path class="st2" d="M18.7,321.6h-2.5V319c-0.1-0.5-0.5-0.9-1-0.8c-0.4,0-0.8,0.4-0.8,0.8v2.5h-2.5c-0.5,0-0.9,0.4-0.9,0.9
	c0,0.5,0.4,0.9,0.9,1h2.5v2.5c0.1,0.5,0.5,0.9,1,0.8c0.4,0,0.8-0.4,0.8-0.8l0,0v-2.5h2.5c0.5,0,0.9-0.4,0.9-1
	C19.7,322,19.2,321.6,18.7,321.6z"/>
<circle class="st2" cx="55.4" cy="274.8" r="1.4"/>
<circle class="st2" cx="49.7" cy="333.6" r="1.4"/>
<circle class="st2" cx="13.2" cy="311" r="1.4"/>
<circle class="st2" cx="78.5" cy="293.1" r="1.4"/>
<path class="st3" d="M68.1,296.3c0-5.6-4.6-10.2-10.2-10.2c-3.5-0.1-6.7,2-7.9,5.4c-2.1-3.9-4.7-5.4-7.9-5.4
	c-5.6,0-10.2,4.6-10.2,10.2v0.8c0,5.4,6.1,14.6,17.5,21.7c0.4,0.2,0.8,0.2,1.2,0c11.4-7,17.5-16.3,17.5-21.7
	C68.1,296.8,68.1,296.6,68.1,296.3z"/>
<path class="st2" d="M35.8,297.3c-0.6,0-1-0.4-1-1l0,0c0-4,3.3-7.3,7.3-7.3c0.5,0,0.9,0.4,0.9,0.9c0,0.5-0.4,0.9-0.9,1
	c-3,0-5.4,2.4-5.5,5.4l0,0C36.6,296.8,36.3,297.2,35.8,297.3z"/>
<path class="st3" d="M33,346.7c-0.6,0-1.2-0.3-1.7-0.7l-5.2-5.5c-0.4-0.4-0.7-1-0.6-1.7c0-0.6,0.3-1.2,0.8-1.7l1.9-1.7
	c0.3-0.3,0.4-0.7,0.2-1.1l-4.9-13.7c-0.4-1-0.3-2.2,0.1-3.2L28,307c0.7-1.4,2.4-2,3.8-1.3c1.1,0.5,1.8,1.7,1.6,3
	c-0.9,3.5-2.2,9.5-2.3,10.5c0.1,2.2,1.2,4.2,2.9,5.5c0.2,0.1,0.4,0.1,0.6,0.1c1.4,0,2.4-1.9,2.4-4.5v-1.7c0-1.6,1.3-2.8,2.8-2.8
	c0,0,0,0,0,0c1.5,0,2.8,1.2,2.8,2.8v14.8c0,2.9-1.1,5.7-3.2,7.8l-5,5C34.2,346.5,33.6,346.8,33,346.7L33,346.7z"/>
<path class="st1" d="M30.6,306.3c1.1,0,1.9,0.9,1.9,2c0,0.1,0,0.3,0,0.4c0,0-2.3,9.1-2.3,10.8c0,2.5,2.1,6,3.6,6.5
	c0.3,0.1,0.6,0.1,0.9,0.1c2.1,0,3.3-2.4,3.3-5.5v-1.7c0-1,0.8-1.9,1.8-1.9c0,0,0,0,0,0H40c1,0,1.8,0.8,1.8,1.8l0,0v14.7
	c0,2.6-1,5.1-2.8,6.9l-5,5c-0.3,0.3-0.6,0.4-1,0.4c-0.4,0-0.7-0.2-1-0.4l-5.2-5.5c-0.6-0.5-0.6-1.4,0-2c0,0,0,0,0,0l0,0l1.9-1.7
	c0.6-0.5,0.8-1.3,0.5-2l-5-13.7c-0.3-0.8-0.3-1.7,0-2.5l4.5-10.5c0.3-0.7,1-1.1,1.8-1.1 M30.4,304.5c-1.5,0-2.9,0.9-3.5,2.3
	l-4.5,10.5c-0.5,1.2-0.6,2.6-0.1,3.9l4.9,13.7l-1.9,1.7c-1.3,1.2-1.4,3.3-0.2,4.6c0,0,0,0,0.1,0.1l5.2,5.5c1.3,1.2,3.3,1.2,4.6,0
	l5-5c2.2-2.2,3.4-5.2,3.4-8.3v-14.8c-0.1-1.9-1.6-3.5-3.5-3.6c-2.1,0-3.8,1.6-3.8,3.7c0,0,0,0,0,0v1.7c0,2.2-0.8,3.6-1.5,3.6
	c-0.1,0-0.2,0-0.3,0c-1.3-1.2-2.1-2.9-2.2-4.6c0-0.9,1.2-6,2.2-10.3c0.5-2.1-0.8-4.1-2.8-4.6c-0.3-0.1-0.6-0.1-0.9-0.1L30.4,304.5z"
	/>
<path class="st3" d="M67,346.7c-0.6,0-1.2-0.2-1.7-0.7l-5-5c-2-2-3.2-4.7-3.2-7.6v-14.7c0-1.5,1.3-2.7,2.8-2.7l0,0
	c1.6,0,2.9,1.2,2.9,2.8l0,0v1.7c0,2.6,1,4.5,2.4,4.5c0.2,0,0.4,0,0.6-0.1c1.7-1.3,2.8-3.3,2.9-5.5c0-1-1.4-7-2.3-10.5
	c-0.4-1.5,0.6-3.1,2.1-3.4c0,0,0,0,0,0c1.3-0.3,2.7,0.4,3.2,1.6l4.5,10.5c0.4,1,0.4,2.2,0,3.2l-4.8,13.6c-0.1,0.4,0,0.7,0.2,1
	l1.9,1.7c0.9,0.9,1,2.3,0.2,3.3l0,0l-5.2,5.5C68.3,346.4,67.7,346.7,67,346.7z"/>
<path class="st1" d="M69.4,306.3c0.7,0,1.3,0.5,1.6,1.1l4.5,10.6c0.3,0.8,0.3,1.7,0,2.5l-4.9,13.7c-0.2,0.7,0,1.5,0.5,2l1.9,1.7
	c0.5,0.5,0.5,1.4,0,1.9c0,0,0,0,0,0v0l-5.2,5.5c-0.3,0.3-0.6,0.4-1,0.4c-0.4,0-0.7-0.1-1-0.4l-5-5c-1.8-1.8-2.9-4.3-2.9-6.9v-14.7
	c0-1,0.8-1.8,1.8-1.8c0,0,0,0,0,0l0,0c1,0,1.9,0.8,1.9,1.8v1.7c0,3.1,1.3,5.5,3.3,5.5c0.3,0,0.6,0,0.9-0.1c1.5-0.5,3.7-4,3.6-6.5
	c0-1.5-2.3-10.7-2.3-10.7c-0.2-1,0.5-2.1,1.5-2.3c0.1,0,0.3,0,0.4,0 M69.1,304.4c-2.1,0-3.8,1.7-3.8,3.8c0,0.3,0,0.5,0.1,0.8
	c1.1,4.4,2.2,9.5,2.2,10.4c-0.2,1.8-1,3.4-2.3,4.6c-0.1,0-0.2,0-0.3,0c-0.7,0-1.5-1.5-1.5-3.6v-1.7c0-1.9-1.5-3.5-3.5-3.7
	c-2,0-3.7,1.6-3.7,3.6c0,0,0,0,0,0v14.8c0,3.1,1.1,6.1,3.3,8.3l5,5c1.3,1.2,3.3,1.2,4.6,0l5.3-5.7c1.2-1.3,1.2-3.3,0-4.5l-0.1-0.1
	l-1.9-1.7l5-13.7c0.5-1.3,0.4-2.6-0.1-3.9l-4.5-10.5c-0.6-1.4-2-2.3-3.6-2.2L69.1,304.4z"/>
<path class="st2" d="M51.5,349.8c-0.3,0-0.5-0.1-0.7-0.3l-2.9-2.9c-0.3-0.4-0.3-1,0-1.3l2.9-2.9c0.4-0.4,0.9-0.4,1.3,0c0,0,0,0,0,0
	l2.9,2.9c0.3,0.4,0.3,1,0,1.3l-2.9,2.9C52,349.7,51.7,349.8,51.5,349.8z M49.9,346.1l1.5,1.5l1.5-1.5l-1.5-1.5L49.9,346.1z"/>
<path class="st2" d="M17.5,301.8L17.5,301.8c-0.2,0-0.5-0.1-0.7-0.3l-2.8-2.9c-0.3-0.4-0.3-1,0-1.3l2.9-2.9c0.4-0.4,1-0.4,1.3,0
	c0,0,0,0,0,0l2.8,2.9c0.3,0.4,0.3,1,0,1.3l-2.9,2.9C18,301.7,17.7,301.8,17.5,301.8z M15.9,298l1.5,1.5L19,298l-1.5-1.5L15.9,298z"
	/>
<path class="st2" d="M28.8,278.4c-0.3,0-0.6-0.1-0.8-0.4l-4.9-6.5c-0.3-0.4-0.2-1,0.2-1.3l0,0c0.4-0.3,1-0.2,1.3,0.2c0,0,0,0,0,0
	l0,0l4.9,6.5c0.3,0.4,0.2,1-0.2,1.3l0,0C29.2,278.3,29,278.4,28.8,278.4z"/>
<path class="st2" d="M34.7,286.3c-0.3,0-0.6-0.1-0.8-0.4l-2.9-3.8c-0.3-0.4-0.1-1,0.3-1.3c0.4-0.2,0.9-0.2,1.2,0.2l2.9,3.8
	c0.3,0.4,0.2,1-0.2,1.3c0,0,0,0,0,0l0,0C35.1,286.2,34.9,286.3,34.7,286.3z"/>
<path class="st2" d="M71.2,278.4c-0.2,0-0.4-0.1-0.6-0.2c-0.4-0.3-0.5-0.9-0.2-1.3l0,0l4.9-6.5c0.3-0.4,0.9-0.5,1.3-0.2l0,0
	c0.4,0.3,0.5,0.9,0.2,1.3l0,0L72,278C71.8,278.3,71.5,278.4,71.2,278.4z"/>
<path class="st2" d="M65.3,286.3c-0.2,0-0.4-0.1-0.6-0.2c-0.4-0.3-0.5-0.9-0.2-1.3l2.9-3.8c0.3-0.4,0.9-0.5,1.3-0.2l0,0
	c0.4,0.3,0.5,0.9,0.2,1.3c0,0,0,0,0,0l0,0l-2.9,3.9C65.8,286.1,65.6,286.3,65.3,286.3z"/>
<g>
	<defs>
		<circle id="SVGID_29_" cx="50" cy="312.4" r="45"/>
	</defs>
	<clipPath id="SVGID_30_">
		<use xlink:href="#SVGID_29_"  style="overflow:visible;"/>
	</clipPath>
	<g class="st19">
		<path class="st2" d="M38.3,283.6c-0.4,0-0.8-0.3-0.9-0.7l-4.2-13.7c-0.2-0.5,0.1-1,0.6-1.2c0.5-0.2,1,0.1,1.2,0.6l0,0l4.2,13.7
			c0.2,0.5-0.1,1-0.6,1.2l0,0C38.6,283.6,38.5,283.6,38.3,283.6z"/>
		<path class="st2" d="M30.9,289.2c-0.2,0-0.4-0.1-0.5-0.2l-12-9c-0.4-0.3-0.5-0.9-0.2-1.3c0.3-0.4,0.9-0.5,1.3-0.2l0,0l11.9,9
			c0.4,0.3,0.5,0.9,0.2,1.3l0,0C31.4,289,31.2,289.1,30.9,289.2z"/>
		<path class="st2" d="M61.7,283.6h-0.3c-0.5-0.1-0.8-0.6-0.6-1.1c0,0,0,0,0,0l0,0l4.2-13.8c0.2-0.5,0.7-0.7,1.2-0.6
			c0.5,0.1,0.8,0.7,0.6,1.2c0,0,0,0,0,0l0,0L62.6,283C62.4,283.4,62.1,283.6,61.7,283.6z"/>
		<path class="st2" d="M69.1,289.2c-0.3,0-0.6-0.1-0.8-0.4c-0.3-0.4-0.2-1,0.2-1.3c0,0,0,0,0,0l0,0l11.9-9c0.4-0.3,1-0.2,1.3,0.2
			c0,0,0,0,0,0c0.3,0.4,0.2,1-0.2,1.3l0,0l-11.9,9C69.5,289.1,69.3,289.2,69.1,289.2z"/>
	</g>
</g>
<circle class="st1" cx="50" cy="2178.3" r="45"/>
<path class="st2" d="M60.7,2162.6c-0.5,0-0.9-0.4-0.9-0.9l0,0v-3c0-2-1.6-3.6-3.6-3.6c0,0,0,0,0,0H43.8c-2,0-3.6,1.6-3.6,3.6v3
	c0,0.5-0.4,0.9-1,0.9c-0.5,0-0.9-0.4-0.9-0.9l0,0v-3c0-3,2.4-5.5,5.5-5.5h12.4c3,0,5.5,2.4,5.5,5.5c0,0,0,0,0,0l0,0v3
	C61.7,2162.1,61.3,2162.5,60.7,2162.6C60.8,2162.6,60.7,2162.6,60.7,2162.6z"/>
<path class="st3" d="M26.1,2161h47.7c0.9,0,1.7,0.7,1.7,1.7v31.4c0,0.9-0.7,1.7-1.7,1.7H26.1c-0.9,0-1.7-0.7-1.7-1.7v-31.4
	C24.5,2161.8,25.2,2161,26.1,2161z"/>
<path class="st2" d="M20.7,2174.5h-0.3l-9.2-3.3c-0.5-0.2-0.7-0.7-0.6-1.2c0.2-0.5,0.7-0.7,1.2-0.6l0,0l9.2,3.3
	c0.5,0.2,0.7,0.7,0.5,1.2C21.5,2174.3,21.1,2174.5,20.7,2174.5L20.7,2174.5z"/>
<path class="st2" d="M11.6,2187.3c-0.5,0-0.9-0.4-0.9-0.9c0-0.4,0.2-0.7,0.6-0.9l9.2-3.3c0.5-0.2,1,0.1,1.2,0.5c0,0,0,0,0,0l0,0
	c0.2,0.5-0.1,1-0.6,1.2l0,0l-9.2,3.3C11.8,2187.3,11.7,2187.3,11.6,2187.3z"/>
<path class="st2" d="M10.2,2179.1H2.1c-0.5,0-0.9-0.4-0.9-0.9c0-0.5,0.4-0.9,0.9-0.9h8.1c0.5,0,0.9,0.4,0.9,0.9
	C11.1,2178.7,10.7,2179.1,10.2,2179.1z"/>
<path class="st2" d="M20.7,2179.1h-6.4c-0.5,0-0.9-0.4-0.9-0.9c0-0.5,0.4-0.9,0.9-0.9h6.4c0.5,0,0.9,0.4,0.9,0.9
	C21.7,2178.7,21.2,2179.1,20.7,2179.1z"/>
<path class="st2" d="M61.5,2148.7c-2,0-3.7-1.6-3.7-3.7c0-2,1.6-3.7,3.7-3.7c2,0,3.7,1.6,3.7,3.7c0,0,0,0,0,0
	C65.2,2147.1,63.5,2148.7,61.5,2148.7z M61.5,2143.2c-1,0-1.8,0.8-1.8,1.8c0,0,0,0,0,0c0,1,0.8,1.8,1.8,1.8c1,0,1.8-0.8,1.8-1.8
	C63.3,2144.1,62.5,2143.3,61.5,2143.2C61.6,2143.3,61.5,2143.3,61.5,2143.2L61.5,2143.2z"/>
<path class="st2" d="M28.9,2149.3l1.8-1.8c0.2-0.5,0-1.1-0.5-1.3c-0.3-0.1-0.6-0.1-0.9,0l-1.8,1.8l-1.8-1.9c-0.4-0.4-0.9-0.4-1.3,0
	c-0.3,0.4-0.3,1,0,1.3l1.8,1.8l-1.8,1.9c-0.3,0.4-0.3,1,0,1.3c0.2,0.2,0.4,0.3,0.6,0.3c0.2,0,0.5-0.1,0.7-0.3l1.8-1.8l1.8,1.8
	c0.4,0.3,1,0.3,1.3,0c0.3-0.4,0.3-1,0-1.3L28.9,2149.3z"/>
<path class="st2" d="M64.2,2201.6c-3.8,0-6.9,3.1-6.9,6.9c0,3.8,3.1,6.9,6.9,6.9c3.8,0,6.9-3.1,6.9-6.9l0,0
	C71.1,2204.7,68,2201.6,64.2,2201.6z M69.2,2207.6h-4v-4C67.3,2204,68.8,2205.5,69.2,2207.6z M64.2,2213.5c-2.8,0.3-5.2-1.8-5.5-4.5
	c-0.3-2.8,1.8-5.2,4.5-5.5l0,0v5c0,0.5,0.4,0.9,0.9,0.9h5C68.7,2211.8,66.6,2213.5,64.2,2213.5L64.2,2213.5z"/>
<circle class="st2" cx="41.9" cy="2144.8" r="1.4"/>
<circle class="st2" cx="76.2" cy="2153.8" r="1.4"/>
<circle class="st2" cx="17.5" cy="2159.2" r="1.4"/>
<circle class="st2" cx="78.4" cy="2207.5" r="1.4"/>
<circle class="st2" cx="21.7" cy="2202.7" r="1.4"/>
<g>
	<defs>
		<path id="SVGID_31_" d="M26.2,2160.9h47.7c0.9,0,1.7,0.7,1.7,1.7v31.4c0,0.9-0.7,1.7-1.7,1.7H26.2c-0.9,0-1.7-0.7-1.7-1.7v-31.4
			C24.5,2161.7,25.2,2160.9,26.2,2160.9z"/>
	</defs>
	<clipPath id="SVGID_32_">
		<use xlink:href="#SVGID_31_"  style="overflow:visible;"/>
	</clipPath>
	<g class="st20">
		<path class="st2" d="M33.2,2197.3c-0.5,0-0.9-0.4-0.9-0.9l0,0v-36c0-0.5,0.4-0.9,0.9-0.9s0.9,0.4,0.9,0.9v36
			C34.1,2196.9,33.7,2197.3,33.2,2197.3C33.2,2197.3,33.2,2197.3,33.2,2197.3z"/>
		<path class="st2" d="M66.8,2197.3c-0.5,0-0.9-0.4-0.9-0.9l0,0v-36c0.1-0.5,0.6-0.9,1.1-0.8c0.4,0.1,0.7,0.4,0.8,0.8v36
			C67.7,2196.9,67.3,2197.3,66.8,2197.3L66.8,2197.3z"/>
	</g>
</g>
<g>
	<defs>
		<circle id="SVGID_33_" cx="50" cy="2178.4" r="45"/>
	</defs>
	<clipPath id="SVGID_34_">
		<use xlink:href="#SVGID_33_"  style="overflow:visible;"/>
	</clipPath>
	<g class="st21">
		<path class="st2" d="M91.2,2197.6H8.7c-0.5-0.1-0.9-0.5-0.8-1c0-0.4,0.4-0.8,0.8-0.8h82.5c0.5-0.1,1,0.3,1,0.8
			c0.1,0.5-0.3,1-0.8,1C91.4,2197.6,91.3,2197.6,91.2,2197.6z"/>
		<path class="st2" d="M50.3,2201.4h-7.6c-0.5,0-0.9,0.4-0.9,0.9l0,0v2.8h-6.7c-0.5,0-0.9,0.4-0.9,0.9l0,0v2.8h-6.7
			c-0.5,0-0.9,0.4-0.9,0.9l0,0v16.4c0,0.5,0.4,0.9,0.9,0.9h22.8c0.5,0,0.9-0.4,0.9-0.9l0,0v-23.8
			C51.2,2201.8,50.8,2201.4,50.3,2201.4z M41.7,2206.9v18.3h-5.6v-15.5c0-0.1,0-0.2,0-0.3v-2.5L41.7,2206.9z M28.4,2210.6h5.7v14.6
			h-5.6L28.4,2210.6z M49.3,2225.2h-5.6v-21.9h5.7L49.3,2225.2z"/>
	</g>
</g>
<path class="st2" d="M79.3,2174.5c-0.4,0-0.8-0.2-0.9-0.6c-0.1-0.5,0.1-1,0.6-1.2l9.2-3.3c0.5-0.2,1,0.1,1.2,0.5c0,0,0,0,0,0l0,0
	c0.1,0.5-0.1,1-0.6,1.2l-9.2,3.3C79.5,2174.5,79.4,2174.5,79.3,2174.5z"/>
<path class="st2" d="M88.4,2187.3h-0.3l-9.2-3.3c-0.5-0.2-0.8-0.7-0.6-1.2c0,0,0,0,0,0l0,0c0.2-0.5,0.7-0.7,1.2-0.6c0,0,0,0,0,0l0,0
	l9.2,3.3c0.5,0.1,0.8,0.7,0.6,1.1C89.2,2187.1,88.8,2187.4,88.4,2187.3L88.4,2187.3z"/>
<path class="st2" d="M97.9,2179.1h-8.1c-0.5,0-0.9-0.4-0.9-0.9c0-0.5,0.4-0.9,0.9-0.9h8.1c0.5,0,0.9,0.4,0.9,0.9
	C98.8,2178.7,98.4,2179.1,97.9,2179.1z"/>
<path class="st2" d="M85.7,2179.1h-6.4c-0.5,0-0.9-0.4-0.9-0.9c0-0.5,0.4-0.9,0.9-0.9l0,0h6.4c0.5,0,0.9,0.4,0.9,0.9
	C86.6,2178.7,86.2,2179.1,85.7,2179.1z"/>
<circle class="st1" cx="50" cy="581.5" r="45"/>
<circle class="st1" cx="50" cy="581.5" r="45"/>
<path class="st2" d="M50,556.1c-0.5,0-0.9-0.4-0.9-0.9c0,0,0,0,0,0v-5.4c0.1-0.5,0.5-0.9,1-0.8c0.4,0,0.8,0.4,0.8,0.8l0,0v5.4
	C50.9,555.7,50.5,556.1,50,556.1z"/>
<path class="st2" d="M50,545.5c-0.5,0-0.9-0.4-0.9-0.9v-12.2c0.1-0.5,0.5-0.9,1-0.8c0.4,0,0.8,0.4,0.8,0.8l0,0v12.2
	C50.9,545.1,50.5,545.5,50,545.5z"/>
<path class="st2" d="M69.6,567.5c-0.2,0-0.5-0.1-0.6-0.2c-0.3-0.4-0.3-1,0-1.3l17.4-18.7c0.4-0.3,1-0.3,1.3,0c0.3,0.4,0.3,1,0,1.3
	l-17.4,18.7C70.1,567.4,69.9,567.5,69.6,567.5z"/>
<path class="st2" d="M30.4,567.5c-0.3,0-0.5-0.1-0.7-0.3l-17.3-18.7c-0.4-0.3-0.4-0.9-0.1-1.3s0.9-0.4,1.3-0.1c0,0,0.1,0.1,0.1,0.1
	l0,0l17.3,18.7c0.4,0.4,0.4,0.9,0,1.3c0,0,0,0,0,0C30.9,567.4,30.6,567.5,30.4,567.5z"/>
<g>
	<defs>
		<circle id="SVGID_35_" cx="50" cy="581.5" r="45"/>
	</defs>
	<clipPath id="SVGID_36_">
		<use xlink:href="#SVGID_35_"  style="overflow:visible;"/>
	</clipPath>
	<g class="st22">
		<path class="st2" d="M64.9,556.1c-0.1,0-0.2,0-0.3,0c-0.5-0.2-0.8-0.7-0.6-1.2c0,0,0,0,0,0l0,0l4.5-14.2c0.1-0.5,0.7-0.7,1.1-0.6
			c0,0,0,0,0,0l0,0c0.5,0.2,0.8,0.7,0.6,1.2l-4.5,14.2C65.7,555.8,65.3,556.1,64.9,556.1z"/>
		<path class="st2" d="M35.1,556.1c-0.4,0-0.8-0.3-0.9-0.7l-4.5-14.3c-0.2-0.5,0.1-1,0.6-1.2l0,0c0.5-0.2,1,0.1,1.2,0.6c0,0,0,0,0,0
			l0,0l4.5,14.2c0.2,0.5-0.1,1-0.6,1.2l0,0C35.3,556,35.2,556,35.1,556.1z"/>
	</g>
</g>
<path class="st2" d="M38.3,618.8c-0.2,0-0.5-0.1-0.7-0.3l-2.9-2.9c-0.4-0.4-0.4-0.9,0-1.3c0,0,0,0,0,0l2.9-2.9c0.4-0.3,1-0.3,1.3,0
	l2.9,2.9c0.4,0.4,0.4,0.9,0,1.3c0,0,0,0,0,0l-2.9,2.9C38.8,618.7,38.6,618.8,38.3,618.8z M36.7,615l1.5,1.5l1.5-1.5l-1.4-1.5
	L36.7,615z"/>
<path class="st2" d="M88.9,583.7h-2.5v-2.5c-0.1-0.5-0.5-0.9-1-0.8c-0.4,0-0.8,0.4-0.8,0.8l0,0v2.5H82c-0.5,0-0.9,0.4-0.9,0.9l0,0
	c0,0.5,0.4,1,0.9,1h2.5v2.5c0.1,0.5,0.5,0.9,1,0.8c0.4,0,0.8-0.4,0.8-0.8l0,0v-2.5h2.5c0.5,0,0.9-0.5,0.9-1
	C89.8,584.2,89.4,583.7,88.9,583.7C88.9,583.7,88.9,583.7,88.9,583.7z"/>
<circle class="st2" cx="13.3" cy="580.5" r="1.4"/>
<circle class="st2" cx="82" cy="566.6" r="1.4"/>
<circle class="st2" cx="52.2" cy="612.6" r="1.4"/>
<circle class="st2" cx="26.8" cy="605.6" r="1.4"/>
<path class="st2" d="M16,571.2c-2,0-3.7-1.7-3.7-3.7s1.7-3.7,3.7-3.7s3.7,1.7,3.7,3.7S18,571.2,16,571.2C16,571.2,16,571.2,16,571.2
	z M16,565.7c-1,0-1.8,0.8-1.8,1.8c0,1,0.8,1.8,1.8,1.8s1.8-0.8,1.8-1.8l0,0C17.8,566.5,17,565.7,16,565.7z"/>
<ellipse transform="matrix(3.327797e-02 -0.9994 0.9994 3.327797e-02 -510.657 628.0569)" class="st3" cx="69.3" cy="578" rx="6.5" ry="6.4"/>
<ellipse transform="matrix(3.327797e-02 -0.9994 0.9994 3.327797e-02 -507.7033 603.6107)" class="st3" cx="58.2" cy="564.2" rx="6.5" ry="6.4"/>
<ellipse transform="matrix(2.164035e-02 -0.9998 0.9998 2.164035e-02 -547.8049 596.0991)" class="st3" cx="30.7" cy="577.9" rx="6.4" ry="6.5"/>
<circle class="st3" cx="41.8" cy="564.2" r="6.5"/>
<path class="st3" d="M62.3,587.2c-3.1-2.4-3.1-5.8-3.7-8c-0.1-0.3-0.2-0.6-0.3-1c-1.2-2.9-3.8-5-6.9-5.5c-0.5-0.1-0.9-0.1-1.4-0.1
	l0,0c-0.5,0-1,0-1.4,0.1c-3.1,0.5-5.7,2.6-6.9,5.5c-0.1,0.3-0.2,0.6-0.3,1c-0.6,2.2-0.5,5.6-3.7,8c-2.8,2-4.4,5.4-3.9,8.8
	c0.7,4.9,5.3,8.2,10.1,7.5c1.1-0.2,2.2-0.6,3.2-1.1c0.9-0.5,1.9-0.8,2.9-0.8l0,0c1,0,2,0.3,2.9,0.8c4.2,2.5,9.7,1.1,12.2-3.1
	c0.6-1,1-2.1,1.1-3.2C66.6,592.6,65.1,589.2,62.3,587.2z"/>
<path class="st2" d="M59.7,598.8c-0.3,0-0.6-0.1-0.8-0.4c-0.3-0.4-0.2-1,0.2-1.3c0.6-0.5,1.1-1.1,1.2-1.9c0.1-1-0.3-2.1-1.1-2.7
	l-0.4-0.4c-0.4-0.3-0.5-0.9-0.2-1.3c0.3-0.4,0.9-0.5,1.3-0.2c0,0,0.1,0.1,0.1,0.1l0.5,0.5c1.2,1.1,1.8,2.7,1.7,4.3
	c-0.2,1.3-0.9,2.4-2,3.2C60,598.7,59.8,598.8,59.7,598.8z"/>
<path class="st2" d="M57.1,590.1c-0.3,0-0.5-0.1-0.7-0.3c-0.3-0.4-0.6-0.8-0.8-1.1c-0.3-0.4-0.2-1,0.3-1.3c0,0,0,0,0,0
	c0.4-0.3,1-0.2,1.3,0.3c0.2,0.3,0.5,0.7,0.7,1c0.3,0.4,0.3,1-0.1,1.3c0,0,0,0,0,0l0,0C57.5,590,57.3,590.1,57.1,590.1z"/>
<path class="st2" d="M29.1,590.2c-1.7,0-3.4,0.7-4.6,2c-1.7-2.1-4.2-3.2-6.9-3.2c-0.8,0-1.7,0.1-2.4,0.4l0,0
	c-2.2,0.7-4.1,2.1-5.3,4.2c-0.2,0.3-0.2,0.6,0,0.9c1.2,2,3.1,3.5,5.3,4.2l0,0c0.8,0.2,1.6,0.3,2.4,0.3c2.7,0,5.2-1.2,6.9-3.2
	c1.2,1.2,2.9,1.9,4.6,2c0.5,0,0.9-0.4,0.9-0.9c0,0,0,0,0,0v-5.6C30,590.6,29.6,590.2,29.1,590.2z M11.8,593.9c0.7-1,1.7-1.9,2.8-2.4
	v4.8C13.4,595.8,12.5,594.9,11.8,593.9z M17.6,597c-0.4,0-0.8,0-1.2-0.1v-6c0.4-0.1,0.8-0.1,1.2-0.1c2.3,0,4.5,1.1,5.8,3v0.2
	C22.1,595.9,20,597,17.6,597L17.6,597z M28.2,595.6c-1-0.2-2-0.8-2.6-1.7v-0.1c0.7-0.8,1.6-1.4,2.6-1.7V595.6z"/>
<g>
	<defs>
		<circle id="SVGID_37_" cx="50" cy="581.5" r="45"/>
	</defs>
	<clipPath id="SVGID_38_">
		<use xlink:href="#SVGID_37_"  style="overflow:visible;"/>
	</clipPath>
	<g class="st23">
		<path class="st2" d="M85,615.6h-9c0-0.1,0-0.2,0-0.3l-1.3-3.5c3.5-0.5,6-3.5,6.2-7v-3.5h2.4c0.5,0,0.9-0.4,0.9-0.9
			c0-0.3-0.1-0.6-0.3-0.7l-4.1-3.3c-0.7-0.9-1.8-1.4-3-1.4c-1.5,0-2.8,0.8-3.5,2.1v0.1l-9.7,15c-0.2,0.4-0.1,1,0.3,1.3
			c0.1,0.1,0.3,0.2,0.5,0.2c0.3,0,0.6-0.2,0.8-0.4l0.8-1.3h3.4l1.3,3.8h-8c-0.6,0-1,0.4-1,1c0,0.5,0.5,0.9,1,0.9H85
			c0.5,0,0.9-0.4,0.9-0.9C85.9,616,85.5,615.6,85,615.6z M76.8,596.8c1.2,0,2.2,1,2.2,2.2l0,0l0,0v1.4l0,0v2.3
			c-1.2,1.8-2.7,3.3-4.8,3.3h-4.5l5-7.8V598C75.1,597.2,75.9,596.7,76.8,596.8L76.8,596.8z M68.4,607.9h5.7c1.8,0,3.4-0.8,4.6-2.1
			c-0.6,2.4-2.7,4-5.2,4.1h-6.4L68.4,607.9z M72.6,615.2l-1.2-3.5h1.3l1.3,3.8h-1.3C72.7,615.5,72.7,615.3,72.6,615.2L72.6,615.2z"
			/>
		<circle class="st2" cx="76.9" cy="599.5" r="0.8"/>
	</g>
</g>
<g>
	<circle class="st1" cx="50" cy="1381.1" r="45"/>
	<g>
		<path class="st3" d="M70.2,1376.7L70.2,1376.7c-7.9,4.1-7.6,6.3-6.6,12.1c0.7,4-6.1,10.1-8.6,6.9s0.7-15.6-3.5-15.1
			c-4,0.5-8.4,2.2-10.4-1.8c-2-4,0.7-7.4,4.1-9.6c0.3-0.3,0.8-0.5,1.2-1c-1.5,0.2-3,0.2-4.5-0.2c-2.8-0.5-5.1-1.7-7.4-3.1
			c-3.5,2.6-6.1,6.1-7.6,10.3l0.2,0.2c1.2,1,2.8,5.3,4,6.3c1.2,1,5.1,0.8,4.5,3.6s-3.6,6.6-2.5,8.3c2.5,3.8,1.7,7.6,1.7,7.6v0.5
			c4.1,2.6,8.8,4.3,13.9,4.3c12.6,0,22.7-10.3,22.7-22.8C71.2,1381,70.8,1378.6,70.2,1376.7z"/>
	</g>
	<g>
		<path class="st2" d="M17.2,1362.6l-1.8,1.8c-0.3,0.3-0.3,1,0,1.3s1,0.3,1.3,0l1.8-1.8l1.8,1.8c0.3,0.3,1,0.3,1.3,0
			c0.3-0.3,0.3-1,0-1.3l-1.8-1.8l1.8-1.8c0.3-0.3,0.3-1,0-1.3c-0.3-0.3-1-0.3-1.3,0l-1.8,1.8l-1.8-1.8c-0.3-0.3-1-0.3-1.3,0
			s-0.3,1,0,1.3L17.2,1362.6z"/>
		<path class="st2" d="M50.7,1418c-0.8,0-1.3,0.7-1.3,1.3s0.7,1.5,1.3,1.5c0.7,0,1.3-0.7,1.3-1.3S51.5,1418,50.7,1418z"/>
		<circle class="st2" cx="14.1" cy="1393.2" r="1.3"/>
		<path class="st2" d="M77.3,1387.9c1-5.6,0.2-11.4-2-16.5c1-0.3,2.8-0.8,4.8-1.8c4-2,6.9-4.8,8.1-7.8c1.3-3.1,1.3-6.9-0.2-11.3
			c-1-3.1-2.3-5.5-2.5-5.6c-0.2-0.3-0.7-0.5-1.2-0.5c-0.2,0-2.6,0.7-5.8,2.2c-4,2-6.9,4.8-8.1,7.8c-1.2,2.6-1.3,5.8-0.5,9.1
			c-1.7-1.8-3.5-3.5-5.5-4.8c-0.7-1.2-2.3-4.1-4.8-7.3c-0.8-1-2.5,0.3-1.7,1.3c1.7,2.2,3,4.1,3.8,5.6l-9.4-1.8l-8.9-12.2
			c0.8,0,1.7,0.2,2.6,0.3c2.8,0.5,5.5,2,8.1,4.1c1,0.8,2.3-0.7,1.3-1.5c-2.6-2.5-5.6-4.1-8.8-4.6c-4.8-1-10.3,0.3-15.9,3.5
			c-4.3,2.5-7.1,5-7.3,5.1c-0.3,0.3-0.5,1-0.2,1.5c0.5,0.8,2,4,4.6,7.3c1.5,2,3.1,3.6,4.8,5c-0.5,0.3-1,0.8-1.3,1.3
			c-2.5,2.3-4.3,5.1-5.5,8.3c-1,2.6-1.7,5.6-1.7,8.6c0,4.8,1.3,9.6,4.1,13.6c2.6,4,6.5,6.9,10.8,8.8c1.2,0.5,2-1.5,0.8-2
			c-1.7-0.7-3.1-1.5-4.5-2.5c0.2-1,0.7-4.5-1.8-8.1c-0.3-0.5,0.7-2.5,1.2-3.6c0.7-1.2,1.2-2.5,1.5-3.6c0.3-1.3,0-2.3-1-3.1
			c-0.7-0.5-1.7-0.8-2.5-1.2c-0.5-0.2-1.2-0.3-1.3-0.5c-0.5-0.3-1.2-1.8-1.8-2.8c-0.7-1.2-1.3-2.3-1.8-3.1c1.5-3.3,3.6-6.3,6.5-8.6
			c2.6,1.8,5.6,3,8.6,3.3c-3.6,2.8-4.8,6.5-3.1,9.9c2,4,6,3.5,9.6,2.8c0.7-0.2,1.3-0.2,1.8-0.3c0.2,0,0.3,0,0.3,0
			c0.8,0.7,0.8,4,0.7,6.5c0,3.3,0,6.5,1.2,8.1c0.7,0.8,1.5,1.3,2.6,1.3c0.7,0,1.3-0.2,2-0.5c3.1-1.3,6.3-5.3,5.8-8.4
			c-0.5-2.8-0.7-4.6,0-6.1c0.7-1.3,2.2-2.6,5.1-4.3c0.3,1.7,0.5,3.3,0.5,5c0,5.8-2.3,11.3-6.6,15.4c-4.6,4.5-11.1,6.8-17.7,6.1
			c-1.3-0.2-1.5,2-0.2,2c7.1,0.8,14.2-1.7,19.4-6.6c4.5-4.5,7.1-10.4,7.1-16.7c0.2-8.4-4.3-15.9-10.8-20.2c1.3-1,2.3-1.8,3-2.3
			c2.5,1.7,4.5,3.8,6.3,6.3c4.3,6,6,13.2,4.8,20.4c-2.5,14.9-16.5,25-31.4,22.5c-7.3-1.2-13.6-5.1-17.7-11.1c-4.3-6-6-13.2-4.8-20.4
			c0.2-1.3-1.8-1.7-2-0.3c-1.3,7.8,0.5,15.6,5.1,22c4.6,6.5,11.4,10.6,19.2,11.9c1.7,0.3,3.3,0.3,4.8,0.3c6.1,0,12.1-1.8,17-5.5
			C71.8,1402.5,76.1,1395.7,77.3,1387.9z M28.3,1378.8c0.8,1.5,1.5,2.8,2.3,3.5c0.5,0.5,1.3,0.7,2,1c2,0.7,2.3,1,2,1.7
			c-0.2,1-0.8,2.2-1.3,3.3c-1,2.2-2.2,4.3-1.2,5.8c1.3,2.2,1.7,4.1,1.5,5.5c-6.1-5.5-8.6-14.2-6.3-22.2
			C27.7,1377.7,28,1378.2,28.3,1378.8z M41.4,1344.4l8.4,11.4l-8.1-1.7l-6.1-8.3C37.4,1345.2,39.4,1344.7,41.4,1344.4z M33.8,1346.9
			l5,6.8l-12.1-2.3C28.2,1350.2,30.6,1348.4,33.8,1346.9z M26.3,1353.3l11.9,2.3l-6.6,5C29.2,1358,27.3,1355.2,26.3,1353.3z
			 M33.1,1362.1l7.9-5.8l8.6,1.7l-10.9,8.1C36.6,1364.9,34.8,1363.6,33.1,1362.1z M69,1376.3c-3.6,2-5.5,3.5-6.5,5.5
			c-1,2-0.7,4.3-0.2,7.3c0.3,1.8-1.8,5.1-4.6,6.3c-1,0.5-1.8,0.3-2.2-0.2c-0.7-1-0.7-4.3-0.7-6.9c0-3.6,0-6.6-1.5-7.9
			c-0.5-0.5-1.2-0.7-2-0.7c-0.7,0-1.3,0.2-2,0.3c-3.8,0.7-6.1,0.8-7.4-1.7c-2-4.1,2-7.1,3.8-8.3c0.3-0.2,0.7-0.5,1-0.8
			c4.5-0.5,8.6-2.5,12.4-4.8C63.9,1367.1,67.4,1371.4,69,1376.3z M42.1,1367.1c-0.3,0-0.7-0.2-1.2-0.3l11.4-8.4l9.4,1.8
			C58.3,1362.9,50,1368.6,42.1,1367.1z M86.4,1360.9c-1.3,3.3-4.6,5.5-7.1,6.8c-1.2,0.7-2.3,1-3.1,1.3l3.1-7.4l7.9-3.3
			C86.9,1359.1,86.7,1360.1,86.4,1360.9z M84.9,1347.7c0.3,0.8,0.8,2,1.3,3.3c0.5,1.5,0.8,3.1,1,5l-6.8,2.8L84.9,1347.7z
			 M79.8,1348.4c1.2-0.7,2.3-1,3.3-1.3l-4.8,11.6l-3-7.3C76.6,1350,78.3,1349,79.8,1348.4z M72.8,1364.9c-0.8-2.6-1.5-6.5-0.2-9.8
			c0.3-0.7,0.7-1.3,1.2-2l3.3,8.1l-3,7.1C73.7,1367.4,73.2,1366.2,72.8,1364.9z"/>
		<path class="st2" d="M82.1,1411.4c-0.5-0.3-1.2-0.3-1.5,0.2c-0.2,0.2-0.2,0.5-0.3,0.7c0,0.3,0.2,0.7,0.3,0.8l7.4,6.1
			c0.5,0.3,1.2,0.3,1.5-0.2c0.3-0.5,0.3-1.2-0.2-1.5L82.1,1411.4z"/>
		<path class="st2" d="M72.8,1405.6c-0.2,0.2-0.2,0.5-0.3,0.7c0,0.3,0.2,0.7,0.3,0.8l4.3,3.6c0.5,0.3,1.2,0.3,1.5-0.2
			c0.3-0.5,0.3-1.2-0.2-1.5l-4.3-3.6C74,1405,73.3,1405.1,72.8,1405.6z"/>
		<path class="st2" d="M19.4,1401.2l-16,5.6c-0.5,0.2-0.8,0.8-0.7,1.5c0.2,0.5,0.8,0.8,1.5,0.7l16-5.6c0.5-0.2,0.8-0.7,0.7-1.2
			c0-0.2,0-0.2,0-0.3C20.5,1401.3,19.9,1401,19.4,1401.2z"/>
		<path class="st2" d="M71,1410.1c-0.3-0.5-1-0.7-1.5-0.3c-0.3,0.2-0.5,0.5-0.5,0.8c0,0.2,0,0.5,0.2,0.7l10.1,14.6
			c0.3,0.5,1,0.7,1.5,0.3c0.5-0.3,0.7-1,0.3-1.5L71,1410.1z"/>
		<path class="st2" d="M83.6,1385.1c0,2,1.7,3.6,3.6,3.6s3.6-1.7,3.6-3.6s-1.7-3.6-3.6-3.6S83.6,1383.1,83.6,1385.1z M88.9,1385.1
			c0,1-0.8,1.8-1.8,1.8s-1.8-0.8-1.8-1.8s0.8-1.8,1.8-1.8C88.2,1383.3,88.9,1384.1,88.9,1385.1z"/>
	</g>
</g>
</svg>
