<svg width="40" height="40" viewBox="0 0 40 40" fill="none" xmlns="http://www.w3.org/2000/svg">
   <rect width="40" height="40" rx="20" fill="#c8c8c8" />
   <g clip-path="url(#clip0)">
      <path d="M20.022 34.9993C18.2683 34.9993 16.5506 34.5853 14.9183 33.7695C13.3848 33.003 11.9945 31.9188 10.7872 30.5481C8.38049 27.8152 7 24.2475 7 20.7597V11.1445C7.00026 11.0274 7.0342 10.9129 7.09778 10.8146C7.16135 10.7163 7.25188 10.6384 7.35854 10.5902L19.7128 5.05238C19.7907 5.01784 19.8749 5 19.9601 5C20.0452 5 20.1295 5.01784 20.2073 5.05238L32.6829 10.5908C32.7902 10.6387 32.8812 10.7166 32.9453 10.815C33.0093 10.9134 33.0436 11.0282 33.0439 11.1457V20.7609C33.0439 23.3304 32.3122 25.9207 30.9262 28.2524C30.8726 28.3434 30.7961 28.4187 30.7043 28.4709C30.6125 28.5231 30.5087 28.5504 30.4031 28.5499C30.2961 28.5491 30.1912 28.5202 30.0989 28.466C30.0066 28.4118 29.9302 28.3343 29.8774 28.2413C29.8246 28.1482 29.7971 28.0429 29.7979 27.9359C29.7987 27.8289 29.8276 27.7239 29.8817 27.6317C31.1561 25.4877 31.8293 23.1121 31.8293 20.7609V11.5408L19.9622 6.2725L8.21464 11.5408V20.7627C8.21464 24.0085 9.51158 27.3079 11.7726 29.8152C14.0494 32.3396 17.0567 33.7871 20.022 33.7871C22.2232 33.7871 24.372 33.0701 26.2372 31.714C26.301 31.6584 26.3756 31.6166 26.4564 31.5914C26.5371 31.5662 26.6223 31.5581 26.7063 31.5676C26.7904 31.5771 26.8716 31.6039 26.9447 31.6465C27.0178 31.6891 27.0813 31.7464 27.1311 31.8148C27.1809 31.8832 27.2158 31.9612 27.2338 32.0439C27.2518 32.1266 27.2524 32.2121 27.2355 32.295C27.2187 32.3779 27.1847 32.4564 27.1359 32.5255C27.0871 32.5946 27.0244 32.6527 26.9518 32.6963C24.8781 34.2012 22.4817 34.9993 20.022 34.9993Z" fill="#30515b" />
      <path d="M18.9 25.1397C18.2529 25.1378 17.6309 24.8894 17.1604 24.4452L13.2707 20.6501C13.1709 20.5345 13.1181 20.3856 13.1227 20.2329C13.1274 20.0802 13.1892 19.9349 13.2959 19.8256C13.4026 19.7163 13.5464 19.651 13.6989 19.6427C13.8514 19.6343 14.0015 19.6835 14.1195 19.7806L18.0055 23.5726C18.247 23.7996 18.5661 23.9257 18.8976 23.9251C18.9293 23.9251 18.9585 23.9251 18.9848 23.9251C19.1571 23.9139 19.3255 23.8685 19.48 23.7915C19.6346 23.7144 19.7722 23.6072 19.8848 23.4763L19.9024 23.4556L25.9183 15.0531C25.9646 14.9881 26.0232 14.9329 26.0909 14.8907C26.1586 14.8485 26.2339 14.82 26.3126 14.807C26.3913 14.7939 26.4718 14.7966 26.5495 14.8148C26.6272 14.8329 26.7005 14.8663 26.7652 14.9129C26.8957 15.0071 26.9837 15.149 27.01 15.3078C27.0362 15.4665 26.9987 15.6293 26.9055 15.7604L20.8823 24.1751L20.8616 24.2019C20.6428 24.4733 20.3704 24.6965 20.0612 24.8576C19.7521 25.0187 19.413 25.1141 19.0652 25.1379C19.011 25.1379 18.9561 25.1428 18.9018 25.1428L18.9 25.1397Z" fill="#30515b" />
   </g>
   <defs>
      <clipPath id="clip0">
         <rect width="26.0445" height="30" fill="white" transform="translate(7 5)" />
      </clipPath>
   </defs>
</svg>