<svg width="40" height="40" viewBox="0 0 40 40" fill="none" xmlns="http://www.w3.org/2000/svg">
<rect width="40" height="40" rx="20" fill="#c8c8c8"/>
<g clip-path="url(#clip0)">
<path d="M20 11.4637C20.3368 11.4637 20.6098 11.1907 20.6098 10.8539C20.6098 10.5171 20.3368 10.2441 20 10.2441C19.6633 10.2441 19.3903 10.5171 19.3903 10.8539C19.3903 11.1907 19.6633 11.4637 20 11.4637Z" fill="#30515b"/>
<path d="M5.60976 34.7566C5.44804 34.7566 5.29295 34.6924 5.17859 34.578C5.06424 34.4637 5 34.3086 5 34.1469C5 33.9851 5.06424 33.83 5.17859 33.7157C5.29295 33.6013 5.44804 33.5371 5.60976 33.5371H34.3902C34.5519 33.5371 34.707 33.6013 34.8214 33.7157C34.9357 33.83 35 33.9851 35 34.1469C35 34.3086 34.9357 34.4637 34.8214 34.578C34.707 34.6924 34.5519 34.7566 34.3902 34.7566H5.60976Z" fill="#30515b"/>
<path d="M7.86585 29.8781C7.70413 29.8781 7.54904 29.8138 7.43469 29.6995C7.32034 29.5851 7.2561 29.43 7.2561 29.2683C7.2561 29.2646 7.26097 29.1939 7.26097 29.1939L7.2561 29.1128V17.7439C7.2561 16.6842 6.56402 15.9146 5.60976 15.9146C5.45013 15.9147 5.29686 15.8521 5.18285 15.7404C5.06884 15.6287 5.00319 15.4767 5 15.3171C5 15.3073 5 15.2982 5 15.2884V15.2604C5 15.25 5 15.2396 5 15.2293V12.0122C5.00005 11.8944 5.03423 11.7791 5.0984 11.6803C5.16257 11.5815 5.25398 11.5034 5.36158 11.4555L19.7213 5.05305C19.7993 5.01791 19.8839 4.99982 19.9695 5C20.0548 4.99998 20.1391 5.01784 20.2171 5.05244L34.6378 11.4549C34.7456 11.5028 34.8372 11.5809 34.9015 11.6798C34.9658 11.7788 35 11.8942 35 12.0122V15.2287C35 15.2396 35 15.25 35 15.2604V15.2744C35 15.2744 35 15.3079 35 15.3177C34.9966 15.4772 34.9309 15.629 34.8169 15.7406C34.7029 15.8522 34.5497 15.9147 34.3902 15.9146C33.464 15.9146 32.8658 16.6329 32.8658 17.7439V23.1415C32.8658 23.3032 32.8016 23.4583 32.6872 23.5726C32.5729 23.687 32.4178 23.7512 32.2561 23.7512C32.0944 23.7512 31.9393 23.687 31.8249 23.5726C31.7106 23.4583 31.6463 23.3032 31.6463 23.1415V17.7439C31.6463 17.2588 31.4536 16.7935 31.1105 16.4504C30.7675 16.1074 30.3022 15.9146 29.8171 15.9146C29.3319 15.9146 28.8666 16.1074 28.5236 16.4504C28.1805 16.7935 27.9878 17.2588 27.9878 17.7439V28.6585H32.2561C32.4178 28.6585 32.5729 28.7228 32.6872 28.8371C32.8016 28.9515 32.8658 29.1066 32.8658 29.2683C32.8658 29.43 32.8016 29.5851 32.6872 29.6995C32.5729 29.8138 32.4178 29.8781 32.2561 29.8781H7.86585ZM24.939 15.9146C24.4539 15.9146 23.9886 16.1074 23.6455 16.4504C23.3025 16.7935 23.1097 17.2588 23.1097 17.7439V28.6585H26.7683V17.7439C26.7683 17.2588 26.5755 16.7935 26.2325 16.4504C25.8894 16.1074 25.4242 15.9146 24.939 15.9146ZM20.061 15.9146C19.5758 15.9146 19.1105 16.1074 18.7675 16.4504C18.4244 16.7935 18.2317 17.2588 18.2317 17.7439V28.6585H21.8902V17.7439C21.8902 17.2588 21.6975 16.7935 21.3544 16.4504C21.0114 16.1074 20.5461 15.9146 20.061 15.9146ZM15.1829 15.9146C14.6978 15.9146 14.2325 16.1074 13.8894 16.4504C13.5464 16.7935 13.3537 17.2588 13.3537 17.7439V28.6585H17.0122V17.7439C17.0122 17.2588 16.8195 16.7935 16.4764 16.4504C16.1333 16.1074 15.6681 15.9146 15.1829 15.9146ZM10.3049 15.9146C9.81973 15.9146 9.35444 16.1074 9.01139 16.4504C8.66833 16.7935 8.47561 17.2588 8.47561 17.7439V28.6585H12.1341V17.7439C12.1341 17.2588 11.9414 16.7935 11.5984 16.4504C11.2553 16.1074 10.79 15.9146 10.3049 15.9146ZM6.21951 12.4079V14.6342H33.7805V12.4085L19.9701 6.27683L6.21951 12.4079Z" fill="#30515b"/>
</g>
<defs>
<clipPath id="clip0">
<rect width="30" height="29.7561" fill="white" transform="translate(5 5)"/>
</clipPath>
</defs>
</svg>
