<svg width="40" height="40" viewBox="0 0 40 40" fill="none" xmlns="http://www.w3.org/2000/svg">
<rect width="40" height="40" rx="20" fill="#c8c8c8"/>
<g clip-path="url(#clip0)">
<path d="M20 26.4642C18.645 26.4628 17.3248 26.0351 16.2263 25.2418C15.1279 24.4484 14.3069 23.3296 13.8795 22.0437C13.4522 20.7579 13.4403 19.3702 13.8454 18.0771C14.2505 16.7841 15.0521 15.6513 16.1367 14.8391C17.2213 14.027 18.534 13.5766 19.8888 13.5519C21.2435 13.5271 22.5718 13.9292 23.6853 14.7012C24.7989 15.4732 25.6414 16.5759 26.0935 17.8533C26.5456 19.1306 26.5843 20.5179 26.2043 21.8185C26.1669 21.9447 26.0898 22.0556 25.9845 22.1346C25.8792 22.2137 25.7512 22.2568 25.6195 22.2575V22.2575C25.5613 22.2574 25.5034 22.2489 25.4476 22.2325C25.2924 22.1871 25.1617 22.0819 25.0841 21.9402C25.0064 21.7984 24.9883 21.6316 25.0336 21.4764C25.3611 20.3554 25.3046 19.1572 24.873 18.072C24.4414 16.9868 23.6595 16.077 22.6516 15.4872C21.6436 14.8974 20.4675 14.6615 19.31 14.8168C18.1525 14.9721 17.0802 15.5099 16.2634 16.3446C15.4466 17.1792 14.9323 18.263 14.802 19.4235C14.6718 20.5841 14.9333 21.7549 15.5448 22.7498C16.1563 23.7447 17.0828 24.5068 18.1771 24.9147C19.2713 25.3227 20.4706 25.3532 21.5842 25.0014C21.6434 24.9827 21.705 24.973 21.7671 24.9727C21.9128 24.9727 22.0537 25.0249 22.1643 25.1197C22.2748 25.2146 22.3478 25.3459 22.3699 25.49C22.392 25.634 22.3618 25.7812 22.2848 25.9048C22.2078 26.0285 22.089 26.1205 21.95 26.1642C21.3192 26.3635 20.6616 26.4647 20 26.4642V26.4642Z" fill="#30515b"/>
<path d="M19.3902 35C18.5819 34.999 17.807 34.6775 17.2355 34.106C16.6639 33.5344 16.3424 32.7595 16.3415 31.9512V31.3372C16.3403 31.1356 16.2793 30.9389 16.166 30.7721C16.0528 30.6053 15.8925 30.476 15.7055 30.4006L15.6817 30.3909C15.5551 30.3382 15.4194 30.3111 15.2823 30.311C15.1501 30.3103 15.0192 30.3358 14.8969 30.386C14.7747 30.4363 14.6636 30.5102 14.5701 30.6037L14.136 31.0378C13.5642 31.6095 12.7888 31.9307 11.9802 31.9307C11.1716 31.9307 10.3961 31.6095 9.82439 31.0378L8.96219 30.1756C8.39045 29.6039 8.06925 28.8284 8.06925 28.0198C8.06925 27.2112 8.39045 26.4358 8.96219 25.864L9.39634 25.4299C9.5382 25.2863 9.63413 25.1037 9.67191 24.9055C9.7097 24.7072 9.68764 24.5022 9.60853 24.3165L9.59817 24.2921C9.52289 24.1055 9.3937 23.9455 9.22709 23.8327C9.06049 23.7198 8.86403 23.6592 8.6628 23.6585H8.04878C7.24049 23.6576 6.46558 23.336 5.89404 22.7645C5.32249 22.193 5.00097 21.418 5 20.6098V19.3902C5.00097 18.582 5.32249 17.807 5.89404 17.2355C6.46558 16.664 7.24049 16.3424 8.04878 16.3415H8.6628C8.86446 16.3406 9.06128 16.2796 9.22811 16.1663C9.39494 16.0531 9.5242 15.8926 9.59939 15.7055L9.60731 15.6866C9.68685 15.5006 9.70927 15.2952 9.6717 15.0965C9.63413 14.8978 9.53827 14.7148 9.39634 14.5707L8.96219 14.1366C8.39116 13.5643 8.07046 12.7889 8.07046 11.9805C8.07046 11.1721 8.39116 10.3966 8.96219 9.82439L9.82439 8.9628C10.3961 8.39106 11.1716 8.06986 11.9802 8.06986C12.7888 8.06986 13.5642 8.39106 14.136 8.9628L14.5701 9.39756C14.6637 9.49085 14.7748 9.56469 14.897 9.61482C15.0192 9.66495 15.1502 9.69038 15.2823 9.68963C15.4203 9.68981 15.5569 9.66245 15.6841 9.60914L15.7067 9.59939C15.8935 9.52423 16.0536 9.39511 16.1667 9.2285C16.2798 9.06189 16.3406 8.86537 16.3415 8.66402V8.04878C16.3424 7.24049 16.6639 6.46558 17.2355 5.89403C17.807 5.32249 18.5819 5.00097 19.3902 5H20.6097C21.418 5.00097 22.1929 5.32249 22.7645 5.89403C23.336 6.46558 23.6576 7.24049 23.6585 8.04878V8.66341C23.6596 8.86501 23.7207 9.06173 23.8339 9.22851C23.9472 9.3953 24.1075 9.52461 24.2945 9.6L24.3171 9.60914C24.444 9.66195 24.5802 9.6891 24.7177 9.68902C24.8498 9.68973 24.9807 9.66429 25.103 9.61416C25.2252 9.56404 25.3363 9.49021 25.4299 9.39695L25.864 8.96219C26.4358 8.39045 27.2112 8.06925 28.0198 8.06925C28.8284 8.06925 29.6038 8.39045 30.1756 8.96219L31.0378 9.825C31.6086 10.3972 31.9292 11.1725 31.9292 11.9808C31.9292 12.7891 31.6086 13.5644 31.0378 14.1366L30.6036 14.5707C30.4618 14.7143 30.3658 14.8969 30.3281 15.0951C30.2903 15.2934 30.3123 15.4985 30.3914 15.6841L30.4018 15.7085C30.4771 15.8951 30.6063 16.0549 30.7729 16.1677C30.9396 16.2804 31.136 16.3409 31.3372 16.3415H31.9512C32.7595 16.3424 33.5344 16.664 34.1059 17.2355C34.6775 17.807 34.999 18.582 35 19.3902V20.6098C34.999 21.418 34.6775 22.193 34.1059 22.7645C33.5344 23.336 32.7595 23.6576 31.9512 23.6585H31.3372C31.1354 23.6596 30.9385 23.7207 30.7716 23.834C30.6047 23.9474 30.4753 24.1079 30.4 24.2951L30.3908 24.3183C30.312 24.5038 30.2902 24.7085 30.3281 24.9065C30.366 25.1044 30.4619 25.2866 30.6036 25.4299L31.0378 25.864C31.6095 26.4358 31.9307 27.2112 31.9307 28.0198C31.9307 28.8284 31.6095 29.6039 31.0378 30.1756L30.1756 31.0378C29.6038 31.6095 28.8284 31.9307 28.0198 31.9307C27.2112 31.9307 26.4358 31.6095 25.864 31.0378L25.4292 30.6037C25.3359 30.5102 25.2249 30.4363 25.1028 30.386C24.9806 30.3358 24.8497 30.3103 24.7177 30.311C24.5797 30.3112 24.4432 30.3385 24.3158 30.3915L24.2927 30.4012C24.106 30.4767 23.9461 30.606 23.8331 30.7727C23.7202 30.9394 23.6594 31.1359 23.6585 31.3372V31.9512C23.6576 32.7595 23.336 33.5344 22.7645 34.106C22.1929 34.6775 21.418 34.999 20.6097 35H19.3902ZM15.2799 29.0902C15.5792 29.0905 15.8756 29.15 16.1518 29.2652L16.1683 29.2726C16.5793 29.4394 16.9313 29.7249 17.1793 30.0926C17.4273 30.4603 17.5602 30.8936 17.561 31.3372V31.9512C17.561 32.4364 17.7537 32.9017 18.0967 33.2447C18.4398 33.5878 18.9051 33.7805 19.3902 33.7805H20.6097C21.0949 33.7805 21.5602 33.5878 21.9032 33.2447C22.2463 32.9017 22.439 32.4364 22.439 31.9512V31.3372C22.4395 30.894 22.572 30.4609 22.8196 30.0933C23.0672 29.7257 23.4187 29.4402 23.8292 29.2732L23.8482 29.2659C24.1243 29.1502 24.4207 29.0908 24.7201 29.0909C25.012 29.09 25.3012 29.1471 25.571 29.2587C25.8407 29.3704 26.0856 29.5345 26.2914 29.7415L26.7262 30.1756C27.0692 30.5185 27.5344 30.7112 28.0195 30.7112C28.5045 30.7112 28.9697 30.5185 29.3128 30.1756L30.1756 29.3134C30.3455 29.1435 30.4803 28.9419 30.5722 28.7199C30.6641 28.498 30.7115 28.2601 30.7115 28.0198C30.7115 27.7796 30.6641 27.5417 30.5722 27.3197C30.4803 27.0978 30.3455 26.8961 30.1756 26.7262L29.7408 26.2921C29.4281 25.9781 29.2158 25.5782 29.131 25.1432C29.0462 24.7082 29.0927 24.2579 29.2646 23.8494L29.2725 23.8299C29.4396 23.4192 29.7252 23.0675 30.0929 22.8198C30.4606 22.5721 30.8938 22.4395 31.3372 22.439H31.9512C32.4363 22.439 32.9016 22.2463 33.2447 21.9032C33.5877 21.5602 33.7805 21.0949 33.7805 20.6098V19.3902C33.7805 18.9051 33.5877 18.4398 33.2447 18.0968C32.9016 17.7537 32.4363 17.561 31.9512 17.561H31.3372C30.894 17.5605 30.4609 17.428 30.0933 17.1804C29.7257 16.9328 29.4402 16.5813 29.2731 16.1707L29.2646 16.1506C29.093 15.7427 29.0467 15.2929 29.1315 14.8586C29.2163 14.4243 29.4284 14.025 29.7408 13.7116L30.1756 13.2768C30.5185 12.9338 30.7112 12.4686 30.7112 11.9835C30.7112 11.4985 30.5185 11.0333 30.1756 10.6902L29.3134 9.82805C28.9704 9.48511 28.5052 9.29246 28.0201 9.29246C27.535 9.29246 27.0698 9.48511 26.7268 9.82805L26.2921 10.2628C26.0862 10.4698 25.8413 10.6338 25.5716 10.7455C25.3018 10.8572 25.0126 10.9143 24.7207 10.9134C24.4213 10.9135 24.1249 10.854 23.8488 10.7384L23.8323 10.7317C23.4213 10.5649 23.0693 10.2794 22.8213 9.91165C22.5732 9.54392 22.4404 9.11064 22.4396 8.66707V8.04878C22.4396 7.56363 22.2469 7.09835 21.9038 6.75529C21.5608 6.41224 21.0955 6.21951 20.6104 6.21951H19.3908C18.9057 6.21951 18.4404 6.41224 18.0974 6.75529C17.7543 7.09835 17.5616 7.56363 17.5616 8.04878V8.66341C17.561 9.10655 17.4285 9.53948 17.1809 9.90698C16.9333 10.2745 16.5818 10.5599 16.1713 10.7268L16.153 10.7341C15.8767 10.8499 15.5801 10.9096 15.2805 10.9098C14.9886 10.9105 14.6994 10.8533 14.4297 10.7417C14.16 10.63 13.9151 10.466 13.7091 10.2591L13.275 9.825C13.1051 9.6551 12.9035 9.52033 12.6815 9.42838C12.4595 9.33643 12.2216 9.28911 11.9814 9.28911C11.7411 9.28911 11.5033 9.33643 11.2813 9.42838C11.0593 9.52033 10.8577 9.6551 10.6878 9.825L9.82561 10.6878C9.65571 10.8577 9.52094 11.0593 9.42899 11.2813C9.33704 11.5033 9.28972 11.7411 9.28972 11.9814C9.28972 12.2216 9.33704 12.4595 9.42899 12.6815C9.52094 12.9035 9.65571 13.1051 9.82561 13.275L10.2598 13.7091C10.5729 14.023 10.7855 14.423 10.8703 14.8582C10.9551 15.2934 10.9083 15.744 10.736 16.1524L10.7287 16.1695C10.5617 16.5803 10.2761 16.9321 9.9084 17.1801C9.5407 17.428 9.1075 17.5608 8.66402 17.5616H8.04878C7.56363 17.5616 7.09835 17.7543 6.75529 18.0974C6.41224 18.4404 6.21951 18.9057 6.21951 19.3909V20.6104C6.21951 21.0955 6.41224 21.5608 6.75529 21.9039C7.09835 22.2469 7.56363 22.4396 8.04878 22.4396H8.6628C9.10602 22.4401 9.53904 22.5726 9.90665 22.8203C10.2743 23.0679 10.5598 23.4193 10.7268 23.8299L10.7347 23.85C10.907 24.2584 10.9537 24.7089 10.8689 25.1439C10.784 25.579 10.5716 25.9789 10.2585 26.2927L9.82439 26.7268C9.65449 26.8967 9.51972 27.0984 9.42777 27.3203C9.33582 27.5423 9.2885 27.7802 9.2885 28.0204C9.2885 28.2607 9.33582 28.4986 9.42777 28.7205C9.51972 28.9425 9.65449 29.1442 9.82439 29.314L10.6866 30.1762C10.8564 30.3461 11.0581 30.4809 11.2801 30.5728C11.502 30.6648 11.7399 30.7121 11.9802 30.7121C12.2204 30.7121 12.4583 30.6648 12.6803 30.5728C12.9022 30.4809 13.1039 30.3461 13.2738 30.1762L13.7079 29.7421C13.9139 29.5349 14.1588 29.3707 14.4286 29.2588C14.6985 29.1469 14.9878 29.0896 15.2799 29.0902Z" fill="#30515b"/>
</g>
<defs>
<clipPath id="clip0">
<rect width="30" height="30" fill="white" transform="translate(5 5)"/>
</clipPath>
</defs>
</svg>
