<svg width="40" height="40" viewBox="0 0 40 40" fill="none" xmlns="http://www.w3.org/2000/svg">
   <rect width="40" height="40" rx="20" fill="#c8c8c8" />
   <g clip-path="url(#clip0)">
      <path d="M27.5652 33.8399C26.9827 33.8368 26.4163 33.6484 25.948 33.3021L20.9006 29.6353C20.6389 29.4443 20.3233 29.3414 19.9993 29.3414C19.6753 29.3414 19.3597 29.4443 19.098 29.6353L14.0513 33.3021C13.5842 33.6512 13.0166 33.8399 12.4335 33.8399C11.8503 33.8399 11.2827 33.6512 10.8156 33.3021C10.3406 32.9646 9.98692 32.4831 9.80691 31.9289C9.6269 31.3746 9.63015 30.7772 9.81618 30.225L11.7444 24.2916C11.8449 23.9836 11.8451 23.6517 11.7449 23.3437C11.6448 23.0357 11.4494 22.7673 11.187 22.5774L6.14027 18.9106C5.15482 18.1953 4.76333 16.9788 5.14202 15.8122C5.52071 14.6457 6.54457 13.9011 7.75808 13.9011H13.9964C14.6788 13.9011 15.2514 13.4974 15.4544 12.873L17.382 6.90234C17.5615 6.34944 17.9115 5.86756 18.3817 5.52582C18.8519 5.18407 19.4183 5 19.9996 5C20.5809 5 21.1473 5.18407 21.6175 5.52582C22.0878 5.86756 22.4377 6.34944 22.6172 6.90234L24.5454 12.8748C24.6481 13.1784 24.8446 13.4415 25.1066 13.6262C25.3685 13.8109 25.6824 13.9076 26.0029 13.9023H32.2418C33.4529 13.9023 34.4798 14.6524 34.8572 15.8134C35.2347 16.9745 34.8444 18.1966 33.859 18.9119L30.4179 21.4121C30.314 21.4875 30.1889 21.5283 30.0605 21.5285V21.5285C29.9317 21.5287 29.8061 21.488 29.7018 21.4124C29.5975 21.3368 29.5198 21.23 29.4799 21.1075C29.44 20.985 29.44 20.853 29.4798 20.7305C29.5195 20.6079 29.5971 20.5011 29.7013 20.4254L33.1425 17.9252C33.8096 17.4404 33.8669 16.7111 33.6974 16.1897C33.5279 15.6683 33.0595 15.1207 32.2418 15.1207H26.0029C25.4247 15.1262 24.8597 14.948 24.3894 14.6117C23.919 14.2755 23.5675 13.7986 23.3856 13.2498L21.4574 7.27676C21.2037 6.49621 20.5378 6.21875 19.9999 6.21875C19.4621 6.21875 18.7956 6.49682 18.5419 7.27798L16.6143 13.2486C16.4323 13.7975 16.0807 14.2745 15.6102 14.6108C15.1398 14.9471 14.5747 15.1255 13.9964 15.1201H7.75808C6.93972 15.1201 6.46956 15.6726 6.30187 16.1891C6.13417 16.7056 6.18966 17.4398 6.85679 17.9246L11.9017 21.5913C12.3729 21.9321 12.7237 22.4138 12.9035 22.9668C13.0832 23.5199 13.0826 24.1157 12.9018 24.6684L10.976 30.6018C10.7217 31.3824 11.098 31.9989 11.5322 32.3154C11.7964 32.5091 12.1144 32.6157 12.442 32.6203C12.7647 32.6178 13.0779 32.5108 13.3348 32.3154L18.3821 28.6505C18.8518 28.3077 19.4182 28.1231 19.9996 28.1231C20.5811 28.1231 21.1475 28.3077 21.6171 28.6505L26.6645 32.3172C26.9213 32.5127 27.2345 32.6197 27.5573 32.6221C27.8841 32.6186 28.2017 32.5133 28.4659 32.3209C28.9019 32.0038 29.2769 31.3879 29.0232 30.6067L27.7036 26.5448C27.6746 26.4677 27.6616 26.3855 27.6652 26.3032C27.6689 26.2209 27.6892 26.1402 27.7249 26.0659C27.7607 25.9917 27.8111 25.9254 27.8731 25.8712C27.9351 25.817 28.0075 25.7759 28.0858 25.7504C28.1642 25.7249 28.2469 25.7156 28.3289 25.7229C28.411 25.7303 28.4907 25.7542 28.5633 25.7932C28.6358 25.8323 28.6997 25.8856 28.7511 25.95C28.8025 26.0144 28.8403 26.0885 28.8622 26.1679L30.1825 30.2299C30.3685 30.7821 30.3717 31.3797 30.1916 31.9339C30.0115 32.4881 29.6576 32.9696 29.1824 33.3069C28.7135 33.6516 28.1471 33.8382 27.5652 33.8399ZM19.9999 24.7538C19.8382 24.7538 19.6831 24.6896 19.5687 24.5752C19.4544 24.4608 19.3901 24.3057 19.3901 24.144V21.095H16.3411C16.1794 21.095 16.0243 21.0307 15.9099 20.9164C15.7955 20.802 15.7313 20.6469 15.7313 20.4852C15.7313 20.3234 15.7955 20.1683 15.9099 20.054C16.0243 19.9396 16.1794 19.8754 16.3411 19.8754H19.3901V16.8263C19.3901 16.6646 19.4544 16.5095 19.5687 16.3951C19.6831 16.2808 19.8382 16.2165 19.9999 16.2165C20.1617 16.2165 20.3168 16.2808 20.4311 16.3951C20.5455 16.5095 20.6097 16.6646 20.6097 16.8263V19.8754H23.6588C23.8205 19.8754 23.9756 19.9396 24.09 20.054C24.2043 20.1683 24.2686 20.3234 24.2686 20.4852C24.2686 20.6469 24.2043 20.802 24.09 20.9164C23.9756 21.0307 23.8205 21.095 23.6588 21.095H20.6097V24.144C20.6096 24.3056 20.5453 24.4606 20.4309 24.5748C20.3166 24.689 20.1616 24.7532 19.9999 24.7532V24.7538Z" fill="#30515b" />
   </g>
   <defs>
      <clipPath id="clip0">
         <rect width="30" height="28.8401" fill="white" transform="translate(5 5)" />
      </clipPath>
   </defs>
</svg>